STARTFONT 2.1
COMMENT
COMMENT Converted from OpenType font "AsimovWid.otf" by "otf2bdf 3.0".
COMMENT
FONT -FreeType-Asimov-Medium-R-Normal--17-120-100-100-P-100-ISO10646-1
SIZE 12 100 100
FONTBOUNDINGBOX 27 22 0 -4
STARTPROPERTIES 19
FOUNDRY "FreeType"
FAMILY_NAME "Asimov"
WEIGHT_NAME "Medium"
SLANT "R"
SETWIDTH_NAME "Normal"
ADD_STYLE_NAME ""
PIXEL_SIZE 17
POINT_SIZE 120
RESOLUTION_X 100
RESOLUTION_Y 100
SPACING "P"
AVERAGE_WIDTH 100
CHARSET_REGISTRY "ISO10646"
CHARSET_ENCODING "1"
FONT_ASCENT 15
FONT_DESCENT 4
COPYRIGHT "Font data copyright Google 2014, Design modifications and new weights 2015, Cannot Into Space Fonts"
_OTF_FONTFILE "AsimovWid.otf"
_OTF_PSNAME "AsimovWid"
ENDPROPERTIES
CHARS 904
STARTCHAR 0000
ENCODING 0
SWIDTH 180 0
DWIDTH 3 0
BBX 0 0 0 0
BITMAP
ENDCHAR
STARTCHAR 0002
ENCODING 2
SWIDTH 180 0
DWIDTH 3 0
BBX 0 0 0 0
BITMAP
ENDCHAR
STARTCHAR 000D
ENCODING 13
SWIDTH 180 0
DWIDTH 3 0
BBX 0 0 0 0
BITMAP
ENDCHAR
STARTCHAR 0020
ENCODING 32
SWIDTH 180 0
DWIDTH 3 0
BBX 0 0 0 0
BITMAP
ENDCHAR
STARTCHAR 0021
ENCODING 33
SWIDTH 300 0
DWIDTH 5 0
BBX 3 12 1 0
BITMAP
E0
E0
E0
E0
E0
E0
E0
E0
00
40
E0
E0
ENDCHAR
STARTCHAR 0022
ENCODING 34
SWIDTH 420 0
DWIDTH 7 0
BBX 5 4 1 8
BITMAP
D8
D8
D0
90
ENDCHAR
STARTCHAR 0023
ENCODING 35
SWIDTH 720 0
DWIDTH 12 0
BBX 10 12 1 0
BITMAP
1900
1900
1B00
7FC0
7FC0
3200
3200
FF80
FF80
2600
2400
6400
ENDCHAR
STARTCHAR 0024
ENCODING 36
SWIDTH 660 0
DWIDTH 11 0
BBX 9 15 1 -2
BITMAP
0800
0800
3E00
7F00
E300
E380
7000
7E00
1F00
0700
C380
E380
7F00
3E00
0800
ENDCHAR
STARTCHAR 0025
ENCODING 37
SWIDTH 840 0
DWIDTH 14 0
BBX 12 12 1 0
BITMAP
7000
F880
CD80
C900
FB00
2600
04C0
0DE0
1B30
3330
23F0
01E0
ENDCHAR
STARTCHAR 0026
ENCODING 38
SWIDTH 780 0
DWIDTH 13 0
BBX 11 12 1 0
BITMAP
3C00
7E00
6300
6300
7E00
3C00
7C00
EEE0
C7C0
E380
7FC0
3EE0
ENDCHAR
STARTCHAR 0027
ENCODING 39
SWIDTH 240 0
DWIDTH 4 0
BBX 2 4 1 8
BITMAP
C0
C0
C0
80
ENDCHAR
STARTCHAR 0028
ENCODING 40
SWIDTH 420 0
DWIDTH 7 0
BBX 5 16 1 -4
BITMAP
18
30
70
60
E0
C0
C0
C0
C0
C0
C0
C0
60
60
30
18
ENDCHAR
STARTCHAR 0029
ENCODING 41
SWIDTH 420 0
DWIDTH 7 0
BBX 5 17 1 -4
BITMAP
C0
E0
60
30
30
38
38
38
38
38
38
30
30
70
60
C0
80
ENDCHAR
STARTCHAR 002A
ENCODING 42
SWIDTH 600 0
DWIDTH 10 0
BBX 8 7 1 5
BITMAP
18
18
DA
FF
38
6C
66
ENDCHAR
STARTCHAR 002B
ENCODING 43
SWIDTH 660 0
DWIDTH 11 0
BBX 9 9 1 1
BITMAP
1C00
1C00
1C00
FF80
FF80
1C00
1C00
1C00
1C00
ENDCHAR
STARTCHAR 002C
ENCODING 44
SWIDTH 300 0
DWIDTH 5 0
BBX 3 5 1 -3
BITMAP
60
60
60
C0
C0
ENDCHAR
STARTCHAR 002D
ENCODING 45
SWIDTH 420 0
DWIDTH 7 0
BBX 5 2 1 4
BITMAP
F8
F8
ENDCHAR
STARTCHAR 002E
ENCODING 46
SWIDTH 300 0
DWIDTH 5 0
BBX 3 3 1 0
BITMAP
40
E0
E0
ENDCHAR
STARTCHAR 002F
ENCODING 47
SWIDTH 480 0
DWIDTH 8 0
BBX 6 13 1 -1
BITMAP
0C
0C
08
18
18
30
30
30
60
60
60
C0
C0
ENDCHAR
STARTCHAR 0030
ENCODING 48
SWIDTH 660 0
DWIDTH 11 0
BBX 9 12 1 0
BITMAP
3E00
7F00
E300
E380
E380
E380
E380
E380
E380
E300
7F00
3E00
ENDCHAR
STARTCHAR 0031
ENCODING 49
SWIDTH 480 0
DWIDTH 8 0
BBX 5 12 1 0
BITMAP
18
78
F8
D8
18
18
18
18
18
18
18
18
ENDCHAR
STARTCHAR 0032
ENCODING 50
SWIDTH 660 0
DWIDTH 11 0
BBX 9 12 1 0
BITMAP
3E00
7F00
E380
C380
0300
0700
0E00
1C00
3800
7000
FF80
FF80
ENDCHAR
STARTCHAR 0033
ENCODING 51
SWIDTH 660 0
DWIDTH 11 0
BBX 9 12 1 0
BITMAP
3E00
7F00
E380
0380
0300
1F00
1F00
0380
0380
E380
7F00
3E00
ENDCHAR
STARTCHAR 0034
ENCODING 52
SWIDTH 660 0
DWIDTH 11 0
BBX 9 12 1 0
BITMAP
0700
0F00
1F00
1F00
3700
6700
E700
FF80
FF80
0700
0700
0700
ENDCHAR
STARTCHAR 0035
ENCODING 53
SWIDTH 660 0
DWIDTH 11 0
BBX 9 12 1 0
BITMAP
7F00
7F00
6000
E000
FE00
FF00
0300
0380
C380
E300
7F00
3E00
ENDCHAR
STARTCHAR 0036
ENCODING 54
SWIDTH 660 0
DWIDTH 11 0
BBX 9 12 1 0
BITMAP
0E00
3E00
7800
6000
FE00
FF00
E380
E380
E380
E380
7F00
3E00
ENDCHAR
STARTCHAR 0037
ENCODING 55
SWIDTH 660 0
DWIDTH 11 0
BBX 9 12 1 0
BITMAP
FF80
FF80
0380
0300
0700
0600
0E00
1C00
1C00
3800
3800
7000
ENDCHAR
STARTCHAR 0038
ENCODING 56
SWIDTH 660 0
DWIDTH 11 0
BBX 9 12 1 0
BITMAP
3E00
7F00
E700
E300
E700
7E00
7F00
E300
C380
E380
7F00
3E00
ENDCHAR
STARTCHAR 0039
ENCODING 57
SWIDTH 660 0
DWIDTH 11 0
BBX 9 12 1 0
BITMAP
3C00
7F00
E700
C380
C380
E380
7F80
3B00
0300
0F00
3E00
3800
ENDCHAR
STARTCHAR 003A
ENCODING 58
SWIDTH 300 0
DWIDTH 5 0
BBX 3 10 1 0
BITMAP
40
E0
E0
00
00
00
00
40
E0
E0
ENDCHAR
STARTCHAR 003B
ENCODING 59
SWIDTH 300 0
DWIDTH 5 0
BBX 3 12 1 -3
BITMAP
60
E0
60
00
00
00
00
60
60
60
E0
C0
ENDCHAR
STARTCHAR 003C
ENCODING 60
SWIDTH 600 0
DWIDTH 10 0
BBX 8 8 1 1
BITMAP
03
0F
7F
F8
F0
7E
0F
03
ENDCHAR
STARTCHAR 003D
ENCODING 61
SWIDTH 600 0
DWIDTH 10 0
BBX 8 5 1 3
BITMAP
FF
FF
00
FF
FF
ENDCHAR
STARTCHAR 003E
ENCODING 62
SWIDTH 600 0
DWIDTH 10 0
BBX 8 8 1 1
BITMAP
80
F0
FE
1F
0F
FE
F0
C0
ENDCHAR
STARTCHAR 003F
ENCODING 63
SWIDTH 600 0
DWIDTH 10 0
BBX 8 12 1 0
BITMAP
7C
FE
E7
07
07
1E
1C
18
00
10
38
38
ENDCHAR
STARTCHAR 0040
ENCODING 64
SWIDTH 1020 0
DWIDTH 17 0
BBX 15 16 1 -4
BITMAP
07E0
1FF8
301C
618C
67E6
C666
CC66
CC46
CC46
CCC4
CFFC
C778
6000
3800
1FC0
03A0
ENDCHAR
STARTCHAR 0041
ENCODING 65
SWIDTH 840 0
DWIDTH 14 0
BBX 12 12 1 0
BITMAP
0E00
0F00
0F00
1F80
1B80
3980
31C0
3FC0
7FE0
60E0
E060
E070
ENDCHAR
STARTCHAR 0042
ENCODING 66
SWIDTH 720 0
DWIDTH 12 0
BBX 10 12 1 0
BITMAP
FF00
FF80
E3C0
E1C0
E180
FF80
FF80
E1C0
E1C0
E1C0
FF80
FF00
ENDCHAR
STARTCHAR 0043
ENCODING 67
SWIDTH 780 0
DWIDTH 13 0
BBX 11 12 1 0
BITMAP
1F00
7F80
71C0
E0C0
E000
E000
E000
E000
E0E0
71C0
7F80
1F00
ENDCHAR
STARTCHAR 0044
ENCODING 68
SWIDTH 720 0
DWIDTH 12 0
BBX 10 12 1 0
BITMAP
FE00
FF00
E380
E1C0
E1C0
E1C0
E1C0
E1C0
E1C0
E380
FF00
FE00
ENDCHAR
STARTCHAR 0045
ENCODING 69
SWIDTH 660 0
DWIDTH 11 0
BBX 9 12 1 0
BITMAP
FF80
FF80
E000
E000
E000
FF00
FF00
E000
E000
E000
FF80
FF80
ENDCHAR
STARTCHAR 0046
ENCODING 70
SWIDTH 660 0
DWIDTH 11 0
BBX 9 12 1 0
BITMAP
FF80
FF80
E000
E000
E000
FF00
FF00
E000
E000
E000
E000
E000
ENDCHAR
STARTCHAR 0047
ENCODING 71
SWIDTH 780 0
DWIDTH 13 0
BBX 11 12 1 0
BITMAP
1F00
3FC0
71C0
E0C0
E000
E000
E7E0
E7E0
E0E0
70E0
3FC0
1F80
ENDCHAR
STARTCHAR 0048
ENCODING 72
SWIDTH 780 0
DWIDTH 13 0
BBX 11 12 1 0
BITMAP
E0E0
E0E0
E0E0
E0E0
E0E0
FFE0
FFE0
E0E0
E0E0
E0E0
E0E0
E0E0
ENDCHAR
STARTCHAR 0049
ENCODING 73
SWIDTH 300 0
DWIDTH 5 0
BBX 3 12 1 0
BITMAP
E0
E0
E0
E0
E0
E0
E0
E0
E0
E0
E0
E0
ENDCHAR
STARTCHAR 004A
ENCODING 74
SWIDTH 660 0
DWIDTH 11 0
BBX 9 12 1 0
BITMAP
0380
0380
0380
0380
0380
0380
0380
0380
E380
E700
7F00
3E00
ENDCHAR
STARTCHAR 004B
ENCODING 75
SWIDTH 780 0
DWIDTH 13 0
BBX 11 12 1 0
BITMAP
E1C0
E3C0
E780
EF00
EE00
FC00
FE00
FF00
E700
E380
E1C0
E1E0
ENDCHAR
STARTCHAR 004C
ENCODING 76
SWIDTH 660 0
DWIDTH 11 0
BBX 9 12 1 0
BITMAP
E000
E000
E000
E000
E000
E000
E000
E000
E000
E000
FF80
FF80
ENDCHAR
STARTCHAR 004D
ENCODING 77
SWIDTH 960 0
DWIDTH 16 0
BBX 14 12 1 0
BITMAP
F03C
F03C
F83C
F87C
F87C
ECFC
ECDC
EEDC
E79C
E79C
E39C
E31C
ENDCHAR
STARTCHAR 004E
ENCODING 78
SWIDTH 780 0
DWIDTH 13 0
BBX 11 12 1 0
BITMAP
E0E0
F0E0
F8E0
F8E0
FCE0
EEE0
EEE0
E7E0
E3E0
E3E0
E1E0
E0E0
ENDCHAR
STARTCHAR 004F
ENCODING 79
SWIDTH 780 0
DWIDTH 13 0
BBX 11 12 1 0
BITMAP
1F00
3F80
71C0
E0E0
E0E0
E0E0
E0E0
E0E0
E0E0
71C0
3F80
1F00
ENDCHAR
STARTCHAR 0050
ENCODING 80
SWIDTH 720 0
DWIDTH 12 0
BBX 10 12 1 0
BITMAP
FF00
FF80
E1C0
E1C0
E1C0
E1C0
FF80
FF00
E000
E000
E000
E000
ENDCHAR
STARTCHAR 0051
ENCODING 81
SWIDTH 780 0
DWIDTH 13 0
BBX 11 14 1 -2
BITMAP
1F00
3F80
71C0
E0E0
E0E0
E0E0
E0E0
E0E0
E0E0
71C0
3F80
1FC0
01E0
0040
ENDCHAR
STARTCHAR 0052
ENCODING 82
SWIDTH 720 0
DWIDTH 12 0
BBX 10 12 1 0
BITMAP
FF00
FF80
E3C0
E1C0
E1C0
E3C0
FF80
FF00
E700
E380
E1C0
E1C0
ENDCHAR
STARTCHAR 0053
ENCODING 83
SWIDTH 720 0
DWIDTH 12 0
BBX 10 12 1 0
BITMAP
3F00
7F80
E1C0
E1C0
F000
7E00
1F80
03C0
E1C0
E1C0
7F80
3F00
ENDCHAR
STARTCHAR 0054
ENCODING 84
SWIDTH 720 0
DWIDTH 12 0
BBX 10 12 1 0
BITMAP
FFC0
FFC0
0C00
0C00
0C00
0C00
0C00
0C00
0C00
0C00
0C00
0C00
ENDCHAR
STARTCHAR 0055
ENCODING 85
SWIDTH 720 0
DWIDTH 12 0
BBX 10 12 1 0
BITMAP
E1C0
E1C0
E1C0
E1C0
E1C0
E1C0
E1C0
E1C0
E1C0
F1C0
7F80
1F00
ENDCHAR
STARTCHAR 0056
ENCODING 86
SWIDTH 780 0
DWIDTH 13 0
BBX 11 12 1 0
BITMAP
E0E0
E0E0
60E0
71C0
71C0
3180
3B80
1B80
1B00
1F00
0F00
0E00
ENDCHAR
STARTCHAR 0057
ENCODING 87
SWIDTH 1020 0
DWIDTH 17 0
BBX 15 12 1 0
BITMAP
C38E
E38E
E38E
678C
66CC
76DC
76DC
3CD8
3C78
3C78
3C78
1870
ENDCHAR
STARTCHAR 0058
ENCODING 88
SWIDTH 780 0
DWIDTH 13 0
BBX 11 12 1 0
BITMAP
E0E0
71C0
7380
3B80
1F00
1E00
1F00
1F00
3B80
7380
71C0
E0E0
ENDCHAR
STARTCHAR 0059
ENCODING 89
SWIDTH 780 0
DWIDTH 13 0
BBX 11 12 1 0
BITMAP
E0E0
E1C0
71C0
3380
3B80
1F00
1E00
0E00
0E00
0E00
0E00
0E00
ENDCHAR
STARTCHAR 005A
ENCODING 90
SWIDTH 720 0
DWIDTH 12 0
BBX 10 12 1 0
BITMAP
FFC0
FFC0
0380
0700
0E00
0E00
1C00
3800
7000
7000
FFC0
FFC0
ENDCHAR
STARTCHAR 005B
ENCODING 91
SWIDTH 360 0
DWIDTH 6 0
BBX 4 17 1 -3
BITMAP
F0
F0
E0
E0
E0
E0
E0
E0
E0
E0
E0
E0
E0
E0
E0
F0
F0
ENDCHAR
STARTCHAR 005C
ENCODING 92
SWIDTH 600 0
DWIDTH 10 0
BBX 8 13 1 -1
BITMAP
E0
E0
60
70
30
38
38
1C
1C
0C
0E
06
07
ENDCHAR
STARTCHAR 005D
ENCODING 93
SWIDTH 360 0
DWIDTH 6 0
BBX 4 17 1 -3
BITMAP
F0
F0
70
70
70
70
70
70
70
70
70
70
70
70
70
F0
F0
ENDCHAR
STARTCHAR 005E
ENCODING 94
SWIDTH 540 0
DWIDTH 9 0
BBX 7 6 1 6
BITMAP
38
38
6C
6C
6C
C6
ENDCHAR
STARTCHAR 005F
ENCODING 95
SWIDTH 600 0
DWIDTH 10 0
BBX 8 2 1 -2
BITMAP
FF
FF
ENDCHAR
STARTCHAR 0060
ENCODING 96
SWIDTH 420 0
DWIDTH 7 0
BBX 5 3 1 10
BITMAP
E0
70
38
ENDCHAR
STARTCHAR 0061
ENCODING 97
SWIDTH 660 0
DWIDTH 11 0
BBX 8 9 1 0
BITMAP
3E
7F
E7
1F
7F
E3
E7
FF
7B
ENDCHAR
STARTCHAR 0062
ENCODING 98
SWIDTH 660 0
DWIDTH 11 0
BBX 9 13 1 0
BITMAP
E000
E000
E000
E000
FE00
FF00
E380
E380
E380
E380
E380
FF00
FE00
ENDCHAR
STARTCHAR 0063
ENCODING 99
SWIDTH 600 0
DWIDTH 10 0
BBX 8 9 1 0
BITMAP
3E
7F
E3
E3
E0
E0
E3
7F
3E
ENDCHAR
STARTCHAR 0064
ENCODING 100
SWIDTH 660 0
DWIDTH 11 0
BBX 9 13 1 0
BITMAP
0380
0380
0380
0380
3B80
7F80
E380
E380
E380
E380
E380
7F80
3B80
ENDCHAR
STARTCHAR 0065
ENCODING 101
SWIDTH 660 0
DWIDTH 11 0
BBX 9 9 1 0
BITMAP
3E00
7F00
E300
FF80
FF80
E000
E100
7F80
3E00
ENDCHAR
STARTCHAR 0066
ENCODING 102
SWIDTH 480 0
DWIDTH 8 0
BBX 6 13 1 0
BITMAP
1C
3C
70
70
FC
FC
70
70
70
70
70
70
70
ENDCHAR
STARTCHAR 0067
ENCODING 103
SWIDTH 660 0
DWIDTH 11 0
BBX 9 12 1 -3
BITMAP
3F80
7F80
E380
E380
E380
E380
E380
7F80
3F80
4380
FF00
3E00
ENDCHAR
STARTCHAR 0068
ENCODING 104
SWIDTH 660 0
DWIDTH 11 0
BBX 9 13 1 0
BITMAP
E000
E000
E000
E000
EE00
FF00
E380
E380
E380
E380
E380
E380
E380
ENDCHAR
STARTCHAR 0069
ENCODING 105
SWIDTH 300 0
DWIDTH 5 0
BBX 3 12 1 0
BITMAP
E0
E0
40
E0
E0
E0
E0
E0
E0
E0
E0
E0
ENDCHAR
STARTCHAR 006A
ENCODING 106
SWIDTH 360 0
DWIDTH 6 0
BBX 4 15 1 -3
BITMAP
30
70
30
30
30
30
30
30
30
30
30
30
70
F0
E0
ENDCHAR
STARTCHAR 006B
ENCODING 107
SWIDTH 660 0
DWIDTH 11 0
BBX 9 13 1 0
BITMAP
E000
E000
E000
E000
E780
EF00
FE00
FC00
FC00
FE00
EE00
E700
E380
ENDCHAR
STARTCHAR 006C
ENCODING 108
SWIDTH 300 0
DWIDTH 5 0
BBX 3 13 1 0
BITMAP
E0
E0
E0
E0
E0
E0
E0
E0
E0
E0
E0
E0
E0
ENDCHAR
STARTCHAR 006D
ENCODING 109
SWIDTH 960 0
DWIDTH 16 0
BBX 14 9 1 0
BITMAP
EE78
FFFC
E39C
E31C
E31C
E31C
E31C
E31C
E31C
ENDCHAR
STARTCHAR 006E
ENCODING 110
SWIDTH 660 0
DWIDTH 11 0
BBX 9 9 1 0
BITMAP
EE00
FF00
E300
E380
E380
E380
E380
E380
E380
ENDCHAR
STARTCHAR 006F
ENCODING 111
SWIDTH 660 0
DWIDTH 11 0
BBX 9 9 1 0
BITMAP
3E00
7F00
E380
E380
E180
E380
E380
7F00
3E00
ENDCHAR
STARTCHAR 0070
ENCODING 112
SWIDTH 660 0
DWIDTH 11 0
BBX 9 12 1 -3
BITMAP
FE00
FF00
E380
E380
E380
E380
E380
FF00
FE00
E000
E000
E000
ENDCHAR
STARTCHAR 0071
ENCODING 113
SWIDTH 660 0
DWIDTH 11 0
BBX 9 12 1 -3
BITMAP
3F80
7F80
E380
E380
E380
E380
E380
7F80
3F80
0380
0380
0380
ENDCHAR
STARTCHAR 0072
ENCODING 114
SWIDTH 480 0
DWIDTH 8 0
BBX 6 9 1 0
BITMAP
FC
FC
FC
E0
E0
E0
E0
E0
E0
ENDCHAR
STARTCHAR 0073
ENCODING 115
SWIDTH 600 0
DWIDTH 10 0
BBX 8 9 1 0
BITMAP
3C
7F
E7
F0
7E
0F
C3
FF
3C
ENDCHAR
STARTCHAR 0074
ENCODING 116
SWIDTH 480 0
DWIDTH 8 0
BBX 6 11 1 0
BITMAP
70
70
F8
F8
70
70
70
70
70
7C
3C
ENDCHAR
STARTCHAR 0075
ENCODING 117
SWIDTH 660 0
DWIDTH 11 0
BBX 8 9 1 0
BITMAP
E3
E3
E3
E3
E3
E3
E3
FF
7B
ENDCHAR
STARTCHAR 0076
ENCODING 118
SWIDTH 660 0
DWIDTH 11 0
BBX 9 9 1 0
BITMAP
E380
E300
6700
6600
7600
3E00
3C00
1C00
1C00
ENDCHAR
STARTCHAR 0077
ENCODING 119
SWIDTH 900 0
DWIDTH 15 0
BBX 13 9 1 0
BITMAP
C638
E730
E730
6F70
6DE0
6DE0
39E0
38E0
38C0
ENDCHAR
STARTCHAR 0078
ENCODING 120
SWIDTH 660 0
DWIDTH 11 0
BBX 9 9 1 0
BITMAP
E300
7700
7E00
3E00
1C00
3E00
7600
7700
E380
ENDCHAR
STARTCHAR 0079
ENCODING 121
SWIDTH 660 0
DWIDTH 11 0
BBX 9 12 1 -3
BITMAP
E380
E300
6700
7700
3600
3E00
3C00
1C00
1800
1800
7800
7000
ENDCHAR
STARTCHAR 007A
ENCODING 122
SWIDTH 600 0
DWIDTH 10 0
BBX 8 9 1 0
BITMAP
FF
FF
0E
1C
38
38
70
FF
FF
ENDCHAR
STARTCHAR 007B
ENCODING 123
SWIDTH 420 0
DWIDTH 7 0
BBX 5 16 1 -3
BITMAP
18
38
30
70
70
70
70
E0
E0
70
70
70
70
30
38
18
ENDCHAR
STARTCHAR 007C
ENCODING 124
SWIDTH 240 0
DWIDTH 4 0
BBX 2 14 1 -2
BITMAP
C0
C0
C0
C0
C0
C0
C0
C0
C0
C0
C0
C0
C0
C0
ENDCHAR
STARTCHAR 007D
ENCODING 125
SWIDTH 420 0
DWIDTH 7 0
BBX 5 16 1 -3
BITMAP
C0
E0
60
60
70
70
70
38
38
70
70
70
60
60
E0
C0
ENDCHAR
STARTCHAR 007E
ENCODING 126
SWIDTH 720 0
DWIDTH 12 0
BBX 10 4 1 3
BITMAP
78C0
7CC0
CFC0
C780
ENDCHAR
STARTCHAR 00A0
ENCODING 160
SWIDTH 180 0
DWIDTH 3 0
BBX 0 0 0 0
BITMAP
ENDCHAR
STARTCHAR 00A1
ENCODING 161
SWIDTH 300 0
DWIDTH 5 0
BBX 3 12 1 -3
BITMAP
E0
E0
40
00
E0
E0
E0
E0
E0
E0
E0
E0
ENDCHAR
STARTCHAR 00A2
ENCODING 162
SWIDTH 600 0
DWIDTH 10 0
BBX 8 13 1 -2
BITMAP
18
18
3E
7F
E3
E3
C0
E0
E3
7F
3E
18
18
ENDCHAR
STARTCHAR 00A3
ENCODING 163
SWIDTH 660 0
DWIDTH 11 0
BBX 10 12 1 0
BITMAP
1F00
3F80
7180
7000
7000
FE00
FE00
7000
7000
7000
FFC0
FFC0
ENDCHAR
STARTCHAR 00A4
ENCODING 164
SWIDTH 780 0
DWIDTH 13 0
BBX 11 11 1 0
BITMAP
4E40
FFE0
71C0
6040
C060
C060
C060
C060
60C0
FFE0
5F60
ENDCHAR
STARTCHAR 00A5
ENCODING 165
SWIDTH 720 0
DWIDTH 12 0
BBX 10 12 1 0
BITMAP
E1C0
61C0
7380
3B80
3F00
7F80
7F80
0C00
7F80
7F80
0C00
0C00
ENDCHAR
STARTCHAR 00A6
ENCODING 166
SWIDTH 300 0
DWIDTH 5 0
BBX 3 14 1 -2
BITMAP
E0
E0
E0
E0
E0
E0
00
00
E0
E0
E0
E0
E0
E0
ENDCHAR
STARTCHAR 00A7
ENCODING 167
SWIDTH 720 0
DWIDTH 12 0
BBX 10 16 1 -4
BITMAP
3E00
7F80
E380
E180
F800
7F00
FF80
E3C0
E1C0
FD80
3F00
0780
C180
E180
7F80
3F00
ENDCHAR
STARTCHAR 00A8
ENCODING 168
SWIDTH 540 0
DWIDTH 9 0
BBX 7 2 1 10
BITMAP
C6
C6
ENDCHAR
STARTCHAR 00A9
ENCODING 169
SWIDTH 840 0
DWIDTH 14 0
BBX 13 12 1 0
BITMAP
0F80
38C0
6020
4F10
9890
9018
9018
9890
4F10
6020
38C0
0F80
ENDCHAR
STARTCHAR 00AA
ENCODING 170
SWIDTH 480 0
DWIDTH 8 0
BBX 6 6 1 6
BITMAP
78
D8
0C
FC
CC
FC
ENDCHAR
STARTCHAR 00AB
ENCODING 171
SWIDTH 600 0
DWIDTH 10 0
BBX 8 7 1 1
BITMAP
33
26
6C
DC
EC
66
32
ENDCHAR
STARTCHAR 00AC
ENCODING 172
SWIDTH 600 0
DWIDTH 10 0
BBX 8 4 1 3
BITMAP
FF
FF
03
03
ENDCHAR
STARTCHAR 00AD
ENCODING 173
SWIDTH 420 0
DWIDTH 7 0
BBX 5 2 1 4
BITMAP
F8
F8
ENDCHAR
STARTCHAR 00AE
ENCODING 174
SWIDTH 840 0
DWIDTH 14 0
BBX 13 12 1 0
BITMAP
0F80
38C0
6020
4F10
8890
8998
8F18
8890
C890
4020
30C0
0F80
ENDCHAR
STARTCHAR 00AF
ENCODING 175
SWIDTH 540 0
DWIDTH 9 0
BBX 7 2 1 10
BITMAP
FE
FE
ENDCHAR
STARTCHAR 00B0
ENCODING 176
SWIDTH 420 0
DWIDTH 7 0
BBX 5 4 1 8
BITMAP
70
D8
98
70
ENDCHAR
STARTCHAR 00B1
ENCODING 177
SWIDTH 600 0
DWIDTH 10 0
BBX 8 11 1 0
BITMAP
18
18
18
FF
FF
18
18
18
00
FF
FF
ENDCHAR
STARTCHAR 00B2
ENCODING 178
SWIDTH 480 0
DWIDTH 8 0
BBX 6 7 1 5
BITMAP
78
F8
18
38
60
FC
FC
ENDCHAR
STARTCHAR 00B3
ENCODING 179
SWIDTH 480 0
DWIDTH 8 0
BBX 6 7 1 5
BITMAP
78
FC
08
38
CC
F8
20
ENDCHAR
STARTCHAR 00B4
ENCODING 180
SWIDTH 420 0
DWIDTH 7 0
BBX 4 3 1 10
BITMAP
70
60
C0
ENDCHAR
STARTCHAR 00B5
ENCODING 181
SWIDTH 660 0
DWIDTH 11 0
BBX 9 12 1 -3
BITMAP
E380
E380
E380
E380
E380
E380
E380
FF80
FF80
E000
E000
E000
ENDCHAR
STARTCHAR 00B6
ENCODING 182
SWIDTH 540 0
DWIDTH 9 0
BBX 7 12 1 0
BITMAP
3E
7E
FE
FE
FE
FE
7E
3E
06
06
06
06
ENDCHAR
STARTCHAR 00B7
ENCODING 183
SWIDTH 300 0
DWIDTH 5 0
BBX 3 3 1 4
BITMAP
E0
E0
40
ENDCHAR
STARTCHAR 00B8
ENCODING 184
SWIDTH 300 0
DWIDTH 5 0
BBX 3 4 1 -4
BITMAP
E0
60
E0
80
ENDCHAR
STARTCHAR 00B9
ENCODING 185
SWIDTH 360 0
DWIDTH 6 0
BBX 3 7 1 5
BITMAP
60
E0
20
20
20
20
20
ENDCHAR
STARTCHAR 00BA
ENCODING 186
SWIDTH 480 0
DWIDTH 8 0
BBX 6 6 1 6
BITMAP
78
CC
C4
C4
CC
78
ENDCHAR
STARTCHAR 00BB
ENCODING 187
SWIDTH 600 0
DWIDTH 10 0
BBX 8 7 1 1
BITMAP
C8
6C
66
33
36
6C
CC
ENDCHAR
STARTCHAR 00BC
ENCODING 188
SWIDTH 780 0
DWIDTH 13 0
BBX 11 12 1 0
BITMAP
6000
E080
6180
6300
6200
6660
0CE0
09E0
1B60
33E0
23E0
0060
ENDCHAR
STARTCHAR 00BD
ENCODING 189
SWIDTH 840 0
DWIDTH 14 0
BBX 12 12 1 0
BITMAP
6000
E080
6180
6300
6600
6640
6DF0
1930
1830
30E0
21F0
01F0
ENDCHAR
STARTCHAR 00BE
ENCODING 190
SWIDTH 900 0
DWIDTH 15 0
BBX 13 12 1 0
BITMAP
7800
F840
0860
38C0
CD80
F930
2370
0670
0CB0
0DF8
09F8
0030
ENDCHAR
STARTCHAR 00BF
ENCODING 191
SWIDTH 600 0
DWIDTH 10 0
BBX 8 12 1 -3
BITMAP
18
1C
18
00
18
38
70
E0
E0
E7
FE
7C
ENDCHAR
STARTCHAR 00C0
ENCODING 192
SWIDTH 840 0
DWIDTH 14 0
BBX 12 16 1 0
BITMAP
1C00
0C00
0600
0000
0E00
0F00
0F00
1F80
1B80
3980
31C0
3FC0
7FE0
60E0
E060
E070
ENDCHAR
STARTCHAR 00C1
ENCODING 193
SWIDTH 840 0
DWIDTH 14 0
BBX 12 16 1 0
BITMAP
0380
0300
0600
0000
0E00
0F00
0F00
1F80
1B80
3980
31C0
3FC0
7FE0
60E0
E060
E070
ENDCHAR
STARTCHAR 00C2
ENCODING 194
SWIDTH 840 0
DWIDTH 14 0
BBX 12 16 1 0
BITMAP
0600
0F00
1980
0000
0E00
0F00
0F00
1F80
1B80
3980
31C0
3FC0
7FE0
60E0
E060
E070
ENDCHAR
STARTCHAR 00C3
ENCODING 195
SWIDTH 840 0
DWIDTH 14 0
BBX 12 15 1 0
BITMAP
1F80
1F80
0000
0E00
0F00
0F00
1F80
1B80
3980
31C0
3FC0
7FE0
60E0
E060
E070
ENDCHAR
STARTCHAR 00C4
ENCODING 196
SWIDTH 840 0
DWIDTH 14 0
BBX 12 15 1 0
BITMAP
1980
3980
0000
0E00
0F00
0F00
1F80
1B80
3980
31C0
3FC0
7FE0
60E0
E060
E070
ENDCHAR
STARTCHAR 00C5
ENCODING 197
SWIDTH 840 0
DWIDTH 14 0
BBX 12 16 1 0
BITMAP
0600
0900
0E00
0000
0E00
0F00
0F00
1F80
1B80
3980
31C0
3FC0
7FE0
60E0
E060
E070
ENDCHAR
STARTCHAR 00C6
ENCODING 198
SWIDTH 1080 0
DWIDTH 18 0
BBX 16 12 1 0
BITMAP
03FF
03FF
07E0
06E0
0EFE
0CFE
1CE0
3FE0
3FE0
70E0
70FF
E0FF
ENDCHAR
STARTCHAR 00C7
ENCODING 199
SWIDTH 780 0
DWIDTH 13 0
BBX 11 16 1 -4
BITMAP
1F00
7F80
71C0
E0C0
E000
E000
E000
E000
E0E0
71C0
7FC0
1F00
0E00
0700
0E00
0800
ENDCHAR
STARTCHAR 00C8
ENCODING 200
SWIDTH 660 0
DWIDTH 11 0
BBX 9 16 1 0
BITMAP
7000
3800
1C00
0000
FF80
FF80
E000
E000
E000
FF00
FF00
E000
E000
E000
FF80
FF80
ENDCHAR
STARTCHAR 00C9
ENCODING 201
SWIDTH 660 0
DWIDTH 11 0
BBX 9 16 1 0
BITMAP
0700
0E00
0C00
0000
FF80
FF80
E000
E000
E000
FF00
FF00
E000
E000
E000
FF80
FF80
ENDCHAR
STARTCHAR 00CA
ENCODING 202
SWIDTH 660 0
DWIDTH 11 0
BBX 9 16 1 0
BITMAP
0C00
1E00
3300
0000
FF80
FF80
E000
E000
E000
FF00
FF00
E000
E000
E000
FF80
FF80
ENDCHAR
STARTCHAR 00CB
ENCODING 203
SWIDTH 660 0
DWIDTH 11 0
BBX 9 15 1 0
BITMAP
3300
7300
0000
FF80
FF80
E000
E000
E000
FF00
FF00
E000
E000
E000
FF80
FF80
ENDCHAR
STARTCHAR 00CC
ENCODING 204
SWIDTH 420 0
DWIDTH 7 0
BBX 4 16 1 0
BITMAP
E0
60
30
00
30
30
30
30
30
30
30
30
30
30
30
30
ENDCHAR
STARTCHAR 00CD
ENCODING 205
SWIDTH 360 0
DWIDTH 6 0
BBX 5 16 1 0
BITMAP
38
70
E0
00
E0
E0
E0
E0
E0
E0
E0
E0
E0
E0
E0
E0
ENDCHAR
STARTCHAR 00CE
ENCODING 206
SWIDTH 480 0
DWIDTH 8 0
BBX 6 16 1 0
BITMAP
30
78
CC
00
30
30
30
30
30
30
30
30
30
30
30
30
ENDCHAR
STARTCHAR 00CF
ENCODING 207
SWIDTH 480 0
DWIDTH 8 0
BBX 6 15 1 0
BITMAP
CC
CC
00
30
30
30
30
30
30
30
30
30
30
30
30
ENDCHAR
STARTCHAR 00D0
ENCODING 208
SWIDTH 780 0
DWIDTH 13 0
BBX 11 12 1 0
BITMAP
7F00
7F80
71C0
70E0
70E0
FCE0
FCE0
70E0
70E0
71C0
7F80
7F00
ENDCHAR
STARTCHAR 00D1
ENCODING 209
SWIDTH 780 0
DWIDTH 13 0
BBX 11 15 1 0
BITMAP
1F80
3F00
0000
E0E0
F0E0
F8E0
F8E0
FCE0
EEE0
EEE0
E7E0
E3E0
E3E0
E1E0
E0E0
ENDCHAR
STARTCHAR 00D2
ENCODING 210
SWIDTH 780 0
DWIDTH 13 0
BBX 11 16 1 0
BITMAP
3800
1C00
0E00
0000
1F00
3F80
71C0
E0E0
E0E0
E0E0
E0E0
E0E0
E0E0
71C0
3F80
1F00
ENDCHAR
STARTCHAR 00D3
ENCODING 211
SWIDTH 780 0
DWIDTH 13 0
BBX 11 16 1 0
BITMAP
0380
0700
0600
0000
1F00
3F80
71C0
E0E0
E0E0
E0E0
E0E0
E0E0
E0E0
71C0
3F80
1F00
ENDCHAR
STARTCHAR 00D4
ENCODING 212
SWIDTH 780 0
DWIDTH 13 0
BBX 11 16 1 0
BITMAP
0400
0E00
3B80
0000
1F00
3F80
71C0
E0E0
E0E0
E0E0
E0E0
E0E0
E0E0
71C0
3F80
1F00
ENDCHAR
STARTCHAR 00D5
ENCODING 213
SWIDTH 780 0
DWIDTH 13 0
BBX 11 15 1 0
BITMAP
1F80
3F00
1000
1F00
3F80
71C0
E0E0
E0E0
E0E0
E0E0
E0E0
E0E0
71C0
3F80
1F00
ENDCHAR
STARTCHAR 00D6
ENCODING 214
SWIDTH 780 0
DWIDTH 13 0
BBX 11 15 1 0
BITMAP
3180
3180
0000
1F00
3F80
71C0
E0E0
E0E0
E0E0
E0E0
E0E0
E0E0
71C0
3F80
1F00
ENDCHAR
STARTCHAR 00D7
ENCODING 215
SWIDTH 600 0
DWIDTH 10 0
BBX 8 8 1 2
BITMAP
40
E3
7F
3E
3C
7E
E7
C3
ENDCHAR
STARTCHAR 00D8
ENCODING 216
SWIDTH 780 0
DWIDTH 13 0
BBX 11 13 1 -1
BITMAP
1F40
3FC0
71C0
E1E0
E3E0
E6E0
ECE0
ECE0
F8E0
71C0
3F80
7F00
C000
ENDCHAR
STARTCHAR 00D9
ENCODING 217
SWIDTH 720 0
DWIDTH 12 0
BBX 10 16 1 0
BITMAP
3800
1800
0C00
0000
E1C0
E1C0
E1C0
E1C0
E1C0
E1C0
E1C0
E1C0
E1C0
F1C0
7F80
1F00
ENDCHAR
STARTCHAR 00DA
ENCODING 218
SWIDTH 720 0
DWIDTH 12 0
BBX 10 16 1 0
BITMAP
0700
0600
0C00
0000
E1C0
E1C0
E1C0
E1C0
E1C0
E1C0
E1C0
E1C0
E1C0
F1C0
7F80
1F00
ENDCHAR
STARTCHAR 00DB
ENCODING 219
SWIDTH 720 0
DWIDTH 12 0
BBX 10 16 1 0
BITMAP
0C00
1E00
3300
0000
E1C0
E1C0
E1C0
E1C0
E1C0
E1C0
E1C0
E1C0
E1C0
F1C0
7F80
1F00
ENDCHAR
STARTCHAR 00DC
ENCODING 220
SWIDTH 720 0
DWIDTH 12 0
BBX 10 15 1 0
BITMAP
3300
3300
0000
E1C0
E1C0
E1C0
E1C0
E1C0
E1C0
E1C0
E1C0
E1C0
F1C0
7F80
1F00
ENDCHAR
STARTCHAR 00DD
ENCODING 221
SWIDTH 780 0
DWIDTH 13 0
BBX 11 16 1 0
BITMAP
0380
0700
0E00
0000
E0E0
E1C0
71C0
3380
3B80
1F00
1E00
0E00
0E00
0E00
0E00
0E00
ENDCHAR
STARTCHAR 00DE
ENCODING 222
SWIDTH 720 0
DWIDTH 12 0
BBX 10 12 1 0
BITMAP
E000
E000
FE00
FF80
E380
E1C0
E1C0
E380
FF80
FE00
E000
E000
ENDCHAR
STARTCHAR 00DF
ENCODING 223
SWIDTH 720 0
DWIDTH 12 0
BBX 10 13 1 0
BITMAP
3E00
7F00
E700
E300
E700
E600
E600
E780
E380
E1C0
E1C0
EF80
FF00
ENDCHAR
STARTCHAR 00E0
ENCODING 224
SWIDTH 600 0
DWIDTH 10 0
BBX 8 13 1 0
BITMAP
70
38
18
04
3E
7F
E7
1F
7F
E3
E7
FF
7B
ENDCHAR
STARTCHAR 00E1
ENCODING 225
SWIDTH 600 0
DWIDTH 10 0
BBX 8 13 1 0
BITMAP
0E
0C
1C
00
3E
7F
E7
1F
7F
E3
E7
FF
7B
ENDCHAR
STARTCHAR 00E2
ENCODING 226
SWIDTH 600 0
DWIDTH 10 0
BBX 8 13 1 0
BITMAP
18
3E
67
00
3E
7F
E7
1F
7F
E3
E7
FF
7B
ENDCHAR
STARTCHAR 00E3
ENCODING 227
SWIDTH 600 0
DWIDTH 10 0
BBX 8 13 1 0
BITMAP
33
7E
44
00
3E
7F
E7
1F
7F
E3
E7
FF
7B
ENDCHAR
STARTCHAR 00E4
ENCODING 228
SWIDTH 600 0
DWIDTH 10 0
BBX 8 12 1 0
BITMAP
66
67
00
3E
7F
E7
1F
7F
E3
E7
FF
7B
ENDCHAR
STARTCHAR 00E5
ENCODING 229
SWIDTH 600 0
DWIDTH 10 0
BBX 8 13 1 0
BITMAP
1C
24
1C
00
3E
7F
E7
1F
7F
E3
E7
FF
7B
ENDCHAR
STARTCHAR 00E6
ENCODING 230
SWIDTH 960 0
DWIDTH 16 0
BBX 14 9 1 0
BITMAP
3EF0
7FFC
E38C
3FFC
FFFC
E300
E380
FFFC
7CF8
ENDCHAR
STARTCHAR 00E7
ENCODING 231
SWIDTH 600 0
DWIDTH 10 0
BBX 8 13 1 -4
BITMAP
3E
7F
E3
E3
E0
E0
E3
7F
3E
1C
0E
1C
10
ENDCHAR
STARTCHAR 00E8
ENCODING 232
SWIDTH 660 0
DWIDTH 11 0
BBX 9 13 1 0
BITMAP
7000
3800
1800
0000
3E00
7F00
E300
FF80
FF80
E000
E100
7F80
3E00
ENDCHAR
STARTCHAR 00E9
ENCODING 233
SWIDTH 660 0
DWIDTH 11 0
BBX 9 13 1 0
BITMAP
0E00
0C00
1800
0000
3E00
7F00
E300
FF80
FF80
E000
E100
7F80
3E00
ENDCHAR
STARTCHAR 00EA
ENCODING 234
SWIDTH 660 0
DWIDTH 11 0
BBX 9 13 1 0
BITMAP
1800
3C00
6600
0000
3E00
7F00
E300
FF80
FF80
E000
E100
7F80
3E00
ENDCHAR
STARTCHAR 00EB
ENCODING 235
SWIDTH 660 0
DWIDTH 11 0
BBX 9 12 1 0
BITMAP
6600
6600
0000
3E00
7F00
E300
FF80
FF80
E000
E100
7F80
3E00
ENDCHAR
STARTCHAR 00EC
ENCODING 236
SWIDTH 360 0
DWIDTH 6 0
BBX 4 13 1 0
BITMAP
C0
60
30
00
30
30
30
30
30
30
30
30
30
ENDCHAR
STARTCHAR 00ED
ENCODING 237
SWIDTH 360 0
DWIDTH 6 0
BBX 5 13 1 0
BITMAP
38
70
60
00
E0
E0
E0
E0
E0
E0
E0
E0
E0
ENDCHAR
STARTCHAR 00EE
ENCODING 238
SWIDTH 480 0
DWIDTH 8 0
BBX 6 13 1 0
BITMAP
30
78
CC
00
30
30
30
30
30
30
30
30
30
ENDCHAR
STARTCHAR 00EF
ENCODING 239
SWIDTH 480 0
DWIDTH 8 0
BBX 6 12 1 0
BITMAP
CC
CC
00
30
30
30
30
30
30
30
30
30
ENDCHAR
STARTCHAR 00F0
ENCODING 240
SWIDTH 660 0
DWIDTH 11 0
BBX 9 12 1 1
BITMAP
3B00
3E00
1F00
0700
3F80
7F80
E380
E380
E380
E380
7F00
3E00
ENDCHAR
STARTCHAR 00F1
ENCODING 241
SWIDTH 660 0
DWIDTH 11 0
BBX 9 13 1 0
BITMAP
3300
7E00
6600
0000
EE00
FF00
E300
E380
E380
E380
E380
E380
E380
ENDCHAR
STARTCHAR 00F2
ENCODING 242
SWIDTH 660 0
DWIDTH 11 0
BBX 9 13 1 0
BITMAP
7000
3800
1C00
0000
3E00
7F00
E380
E380
E180
E380
E380
7F00
3E00
ENDCHAR
STARTCHAR 00F3
ENCODING 243
SWIDTH 660 0
DWIDTH 11 0
BBX 9 13 1 0
BITMAP
0700
0E00
1C00
0000
3E00
7F00
E380
E380
E180
E380
E380
7F00
3E00
ENDCHAR
STARTCHAR 00F4
ENCODING 244
SWIDTH 660 0
DWIDTH 11 0
BBX 9 13 1 0
BITMAP
1C00
3E00
7300
0000
3E00
7F00
E380
E380
E180
E380
E380
7F00
3E00
ENDCHAR
STARTCHAR 00F5
ENCODING 245
SWIDTH 660 0
DWIDTH 11 0
BBX 9 13 1 0
BITMAP
3300
7F00
6600
0000
3E00
7F00
E380
E380
E180
E380
E380
7F00
3E00
ENDCHAR
STARTCHAR 00F6
ENCODING 246
SWIDTH 660 0
DWIDTH 11 0
BBX 9 12 1 0
BITMAP
6300
6300
0000
3E00
7F00
E380
E380
E180
E380
E380
7F00
3E00
ENDCHAR
STARTCHAR 00F7
ENCODING 247
SWIDTH 660 0
DWIDTH 11 0
BBX 9 10 1 1
BITMAP
0800
1C00
1C00
0000
FF80
FF80
0000
0800
1C00
1C00
ENDCHAR
STARTCHAR 00F8
ENCODING 248
SWIDTH 660 0
DWIDTH 11 0
BBX 9 11 1 -1
BITMAP
0100
3F00
7F00
E780
EF80
E980
FB80
F380
7F00
3E00
6000
ENDCHAR
STARTCHAR 00F9
ENCODING 249
SWIDTH 660 0
DWIDTH 11 0
BBX 8 13 1 0
BITMAP
70
38
18
04
E3
E3
E3
E3
E3
E3
E3
FF
7B
ENDCHAR
STARTCHAR 00FA
ENCODING 250
SWIDTH 660 0
DWIDTH 11 0
BBX 8 13 1 0
BITMAP
0E
0C
18
00
E3
E3
E3
E3
E3
E3
E3
FF
7B
ENDCHAR
STARTCHAR 00FB
ENCODING 251
SWIDTH 660 0
DWIDTH 11 0
BBX 8 13 1 0
BITMAP
1C
3E
67
00
E3
E3
E3
E3
E3
E3
E3
FF
7B
ENDCHAR
STARTCHAR 00FC
ENCODING 252
SWIDTH 660 0
DWIDTH 11 0
BBX 8 12 1 0
BITMAP
66
67
00
E3
E3
E3
E3
E3
E3
E3
FF
7B
ENDCHAR
STARTCHAR 00FD
ENCODING 253
SWIDTH 660 0
DWIDTH 11 0
BBX 9 16 1 -3
BITMAP
0600
0E00
1C00
0000
E380
E300
6700
7700
3600
3E00
3C00
1C00
1800
1800
7800
7000
ENDCHAR
STARTCHAR 00FE
ENCODING 254
SWIDTH 660 0
DWIDTH 11 0
BBX 9 16 1 -3
BITMAP
E000
E000
E000
E000
FE00
FF00
E380
E380
E380
E380
E380
FF00
FE00
E000
E000
E000
ENDCHAR
STARTCHAR 00FF
ENCODING 255
SWIDTH 660 0
DWIDTH 11 0
BBX 9 15 1 -3
BITMAP
6700
6700
0000
E380
E300
6700
7700
3600
3E00
3C00
1C00
1800
1800
7800
7000
ENDCHAR
STARTCHAR 0100
ENCODING 256
SWIDTH 840 0
DWIDTH 14 0
BBX 12 15 1 0
BITMAP
1F80
1F80
0000
0E00
0F00
0F00
1F80
1B80
3980
31C0
3FC0
7FE0
60E0
E060
E070
ENDCHAR
STARTCHAR 0101
ENCODING 257
SWIDTH 600 0
DWIDTH 10 0
BBX 8 12 1 0
BITMAP
7F
7F
00
3E
7F
E7
1F
7F
E3
E7
FF
7B
ENDCHAR
STARTCHAR 0102
ENCODING 258
SWIDTH 840 0
DWIDTH 14 0
BBX 12 16 1 0
BITMAP
1980
1F80
0F00
0000
0E00
0F00
0F00
1F80
1B80
3980
31C0
3FC0
7FE0
60E0
E060
E070
ENDCHAR
STARTCHAR 0103
ENCODING 259
SWIDTH 600 0
DWIDTH 10 0
BBX 8 13 1 0
BITMAP
66
7E
3C
00
3E
7F
E7
1F
7F
E3
E7
FF
7B
ENDCHAR
STARTCHAR 0104
ENCODING 260
SWIDTH 840 0
DWIDTH 14 0
BBX 12 15 1 -3
BITMAP
0E00
0F00
0F00
1F80
1B80
3980
31C0
3FC0
7FE0
60E0
E060
E070
00C0
00E0
00E0
ENDCHAR
STARTCHAR 0105
ENCODING 261
SWIDTH 600 0
DWIDTH 10 0
BBX 8 12 1 -3
BITMAP
3E
7F
E7
1F
7F
E3
E7
FF
7B
06
07
07
ENDCHAR
STARTCHAR 0106
ENCODING 262
SWIDTH 780 0
DWIDTH 13 0
BBX 11 16 1 0
BITMAP
0380
0700
0E00
0000
1F00
7F80
71C0
E0C0
E000
E000
E000
E000
E0E0
71C0
7F80
1F00
ENDCHAR
STARTCHAR 0107
ENCODING 263
SWIDTH 600 0
DWIDTH 10 0
BBX 8 13 1 0
BITMAP
0E
0C
18
00
3E
7F
E3
E3
E0
E0
E3
7F
3E
ENDCHAR
STARTCHAR 0108
ENCODING 264
SWIDTH 780 0
DWIDTH 13 0
BBX 11 16 1 0
BITMAP
0400
1E00
3B80
0000
1F00
7F80
71C0
E0C0
E000
E000
E000
E000
E0E0
71C0
7F80
1F00
ENDCHAR
STARTCHAR 0109
ENCODING 265
SWIDTH 600 0
DWIDTH 10 0
BBX 8 13 1 0
BITMAP
18
3C
66
00
3E
7F
E3
E3
E0
E0
E3
7F
3E
ENDCHAR
STARTCHAR 010A
ENCODING 266
SWIDTH 780 0
DWIDTH 13 0
BBX 11 15 1 0
BITMAP
0C00
0E00
0000
1F00
7F80
71C0
E0C0
E000
E000
E000
E000
E0E0
71C0
7F80
1F00
ENDCHAR
STARTCHAR 010B
ENCODING 267
SWIDTH 600 0
DWIDTH 10 0
BBX 8 12 1 0
BITMAP
18
18
00
3E
7F
E3
E3
E0
E0
E3
7F
3E
ENDCHAR
STARTCHAR 010C
ENCODING 268
SWIDTH 780 0
DWIDTH 13 0
BBX 11 15 1 0
BITMAP
3B80
1E00
0400
1F00
7F80
71C0
E0C0
E000
E000
E000
E000
E0E0
71C0
7F80
1F00
ENDCHAR
STARTCHAR 010D
ENCODING 269
SWIDTH 600 0
DWIDTH 10 0
BBX 8 13 1 0
BITMAP
66
3C
18
00
3E
7F
E3
E3
E0
E0
E3
7F
3E
ENDCHAR
STARTCHAR 010E
ENCODING 270
SWIDTH 720 0
DWIDTH 12 0
BBX 10 16 1 0
BITMAP
C600
7C00
3800
0000
FE00
FF00
E380
E1C0
E1C0
E1C0
E1C0
E1C0
E1C0
E380
FF00
FE00
ENDCHAR
STARTCHAR 010F
ENCODING 271
SWIDTH 840 0
DWIDTH 14 0
BBX 12 13 1 0
BITMAP
03B0
03B0
03B0
03B0
3BA0
7F80
E380
E380
E380
E380
E380
7F80
3B80
ENDCHAR
STARTCHAR 0110
ENCODING 272
SWIDTH 780 0
DWIDTH 13 0
BBX 11 12 1 0
BITMAP
7F00
7F80
71C0
70E0
70E0
FCE0
FCE0
70E0
70E0
71C0
7F80
7F00
ENDCHAR
STARTCHAR 0111
ENCODING 273
SWIDTH 720 0
DWIDTH 12 0
BBX 10 13 1 0
BITMAP
0380
0FC0
0FC0
0380
3B80
7F80
E380
E380
E380
E380
E380
7F80
3B80
ENDCHAR
STARTCHAR 0112
ENCODING 274
SWIDTH 660 0
DWIDTH 11 0
BBX 9 15 1 0
BITMAP
7F00
7F00
0000
FF80
FF80
E000
E000
E000
FF00
FF00
E000
E000
E000
FF80
FF80
ENDCHAR
STARTCHAR 0113
ENCODING 275
SWIDTH 660 0
DWIDTH 11 0
BBX 9 12 1 0
BITMAP
7E00
7E00
0000
3E00
7F00
E300
FF80
FF80
E000
E100
7F80
3E00
ENDCHAR
STARTCHAR 0114
ENCODING 276
SWIDTH 660 0
DWIDTH 11 0
BBX 9 16 1 0
BITMAP
2300
3F00
1E00
0000
FF80
FF80
E000
E000
E000
FF00
FF00
E000
E000
E000
FF80
FF80
ENDCHAR
STARTCHAR 0115
ENCODING 277
SWIDTH 660 0
DWIDTH 11 0
BBX 9 13 1 0
BITMAP
6600
7E00
3C00
0000
3E00
7F00
E300
FF80
FF80
E000
E100
7F80
3E00
ENDCHAR
STARTCHAR 0116
ENCODING 278
SWIDTH 660 0
DWIDTH 11 0
BBX 9 15 1 0
BITMAP
0C00
1C00
0000
FF80
FF80
E000
E000
E000
FF00
FF00
E000
E000
E000
FF80
FF80
ENDCHAR
STARTCHAR 0117
ENCODING 279
SWIDTH 660 0
DWIDTH 11 0
BBX 9 12 1 0
BITMAP
1800
1800
0000
3E00
7F00
E300
FF80
FF80
E000
E100
7F80
3E00
ENDCHAR
STARTCHAR 0118
ENCODING 280
SWIDTH 660 0
DWIDTH 11 0
BBX 9 15 1 -3
BITMAP
FF80
FF80
E000
E000
E000
FF00
FF00
E000
E000
E000
FF80
FF80
0600
0F00
0700
ENDCHAR
STARTCHAR 0119
ENCODING 281
SWIDTH 660 0
DWIDTH 11 0
BBX 9 12 1 -3
BITMAP
3E00
7F00
E300
E380
FF80
FF80
E000
7F00
3F00
0C00
0E00
0E00
ENDCHAR
STARTCHAR 011A
ENCODING 282
SWIDTH 660 0
DWIDTH 11 0
BBX 9 16 1 0
BITMAP
6300
3E00
1C00
0000
FF80
FF80
E000
E000
E000
FF00
FF00
E000
E000
E000
FF80
FF80
ENDCHAR
STARTCHAR 011B
ENCODING 283
SWIDTH 660 0
DWIDTH 11 0
BBX 9 13 1 0
BITMAP
6600
3C00
1800
0000
3E00
7F00
E300
FF80
FF80
E000
E100
7F80
3E00
ENDCHAR
STARTCHAR 011C
ENCODING 284
SWIDTH 780 0
DWIDTH 13 0
BBX 11 16 1 0
BITMAP
0400
1E00
3B80
0000
1F00
3FC0
71C0
E0C0
E000
E000
E7E0
E7E0
E0E0
70E0
3FC0
1F80
ENDCHAR
STARTCHAR 011D
ENCODING 285
SWIDTH 660 0
DWIDTH 11 0
BBX 9 16 1 -3
BITMAP
1C00
3E00
6700
0000
3F80
7F80
E380
E380
E380
E380
E380
7F80
3F80
4380
FF00
3E00
ENDCHAR
STARTCHAR 011E
ENCODING 286
SWIDTH 780 0
DWIDTH 13 0
BBX 11 15 1 0
BITMAP
3300
1F00
0400
1F00
3FC0
71C0
E0C0
E000
E000
E7E0
E7E0
E0E0
70E0
3FC0
1F80
ENDCHAR
STARTCHAR 011F
ENCODING 287
SWIDTH 660 0
DWIDTH 11 0
BBX 9 16 1 -3
BITMAP
6200
7E00
3C00
0000
3F80
7F80
E380
E380
E380
E380
E380
7F80
3F80
4380
FF00
3E00
ENDCHAR
STARTCHAR 0120
ENCODING 288
SWIDTH 780 0
DWIDTH 13 0
BBX 11 15 1 0
BITMAP
0C00
0E00
0000
1F00
3FC0
71C0
E0C0
E000
E000
E7E0
E7E0
E0E0
70E0
3FC0
1F80
ENDCHAR
STARTCHAR 0121
ENCODING 289
SWIDTH 660 0
DWIDTH 11 0
BBX 9 15 1 -3
BITMAP
1C00
1800
0000
3F80
7F80
E380
E380
E380
E380
E380
7F80
3F80
4380
FF00
3E00
ENDCHAR
STARTCHAR 0122
ENCODING 290
SWIDTH 780 0
DWIDTH 13 0
BBX 11 16 1 -4
BITMAP
1F00
3FC0
71C0
E0C0
E000
E000
E7E0
E7E0
E0E0
70E0
3FC0
1F80
0400
0400
0C00
0C00
ENDCHAR
STARTCHAR 0123
ENCODING 291
SWIDTH 660 0
DWIDTH 11 0
BBX 9 17 1 -3
BITMAP
0C00
1800
1800
1800
0000
3F80
7F80
E380
E380
E380
E380
E380
7F80
3F80
4380
FF00
3E00
ENDCHAR
STARTCHAR 0124
ENCODING 292
SWIDTH 780 0
DWIDTH 13 0
BBX 11 16 1 0
BITMAP
0400
0E00
3B80
0000
E0E0
E0E0
E0E0
E0E0
E0E0
FFE0
FFE0
E0E0
E0E0
E0E0
E0E0
E0E0
ENDCHAR
STARTCHAR 0125
ENCODING 293
SWIDTH 660 0
DWIDTH 11 0
BBX 9 16 1 0
BITMAP
1800
7E00
0000
E000
E000
E000
E000
EE00
FF00
E380
E380
E380
E380
E380
E380
E380
ENDCHAR
STARTCHAR 0126
ENCODING 294
SWIDTH 840 0
DWIDTH 14 0
BBX 12 12 1 0
BITMAP
6060
6060
FFF0
FFF0
6060
7FE0
7FE0
6060
6060
6060
6060
6060
ENDCHAR
STARTCHAR 0127
ENCODING 295
SWIDTH 720 0
DWIDTH 12 0
BBX 9 13 1 0
BITMAP
7000
FC00
FC00
7000
7F00
7F80
7180
7180
7180
7180
7180
7180
7180
ENDCHAR
STARTCHAR 0128
ENCODING 296
SWIDTH 480 0
DWIDTH 8 0
BBX 6 15 1 0
BITMAP
FC
FC
00
30
30
30
30
30
30
30
30
30
30
30
30
ENDCHAR
STARTCHAR 0129
ENCODING 297
SWIDTH 480 0
DWIDTH 8 0
BBX 6 12 1 0
BITMAP
FC
FC
00
30
30
30
30
30
30
30
30
30
ENDCHAR
STARTCHAR 012A
ENCODING 298
SWIDTH 480 0
DWIDTH 8 0
BBX 6 15 1 0
BITMAP
FC
FC
00
30
30
30
30
30
30
30
30
30
30
30
30
ENDCHAR
STARTCHAR 012B
ENCODING 299
SWIDTH 480 0
DWIDTH 8 0
BBX 6 12 1 0
BITMAP
FC
FC
00
30
30
30
30
30
30
30
30
30
ENDCHAR
STARTCHAR 012C
ENCODING 300
SWIDTH 420 0
DWIDTH 7 0
BBX 6 16 1 0
BITMAP
8C
FC
78
00
70
70
70
70
70
70
70
70
70
70
70
70
ENDCHAR
STARTCHAR 012D
ENCODING 301
SWIDTH 480 0
DWIDTH 8 0
BBX 6 12 1 0
BITMAP
CC
F8
00
70
70
70
70
70
70
70
70
70
ENDCHAR
STARTCHAR 012E
ENCODING 302
SWIDTH 360 0
DWIDTH 6 0
BBX 3 15 1 -3
BITMAP
60
60
60
60
60
60
60
60
60
60
60
60
C0
E0
E0
ENDCHAR
STARTCHAR 012F
ENCODING 303
SWIDTH 360 0
DWIDTH 6 0
BBX 3 15 1 -3
BITMAP
60
60
60
60
60
60
60
60
60
60
60
60
C0
E0
E0
ENDCHAR
STARTCHAR 0130
ENCODING 304
SWIDTH 300 0
DWIDTH 5 0
BBX 3 15 1 0
BITMAP
E0
E0
00
E0
E0
E0
E0
E0
E0
E0
E0
E0
E0
E0
E0
ENDCHAR
STARTCHAR 0131
ENCODING 305
SWIDTH 300 0
DWIDTH 5 0
BBX 3 9 1 0
BITMAP
E0
E0
E0
E0
E0
E0
E0
E0
E0
ENDCHAR
STARTCHAR 0132
ENCODING 306
SWIDTH 960 0
DWIDTH 16 0
BBX 13 12 1 0
BITMAP
E018
E018
E018
E018
E018
E018
E018
E018
E618
E738
E7F8
E1E0
ENDCHAR
STARTCHAR 0133
ENCODING 307
SWIDTH 600 0
DWIDTH 10 0
BBX 8 15 1 -3
BITMAP
E6
E7
42
E7
E7
E7
E7
E7
E7
E7
E7
E7
07
1E
1C
ENDCHAR
STARTCHAR 0134
ENCODING 308
SWIDTH 720 0
DWIDTH 12 0
BBX 10 16 1 0
BITMAP
0300
0780
0CC0
0000
0380
0380
0380
0380
0380
0380
0380
0380
E380
E700
7F00
3E00
ENDCHAR
STARTCHAR 0135
ENCODING 309
SWIDTH 480 0
DWIDTH 8 0
BBX 6 15 1 -3
BITMAP
30
EC
00
38
38
38
38
38
38
38
38
38
30
F0
E0
ENDCHAR
STARTCHAR 0136
ENCODING 310
SWIDTH 780 0
DWIDTH 13 0
BBX 11 16 1 -4
BITMAP
E1C0
E3C0
E780
EF00
EE00
FC00
FE00
FF00
E700
E380
E1C0
E1E0
0C00
0C00
0800
1800
ENDCHAR
STARTCHAR 0137
ENCODING 311
SWIDTH 660 0
DWIDTH 11 0
BBX 9 17 1 -4
BITMAP
E000
E000
E000
E000
E780
EF00
FE00
FC00
FC00
FE00
EE00
E700
E380
1800
1800
1800
1000
ENDCHAR
STARTCHAR 0138
ENCODING 312
SWIDTH 660 0
DWIDTH 11 0
BBX 9 9 1 0
BITMAP
E380
E700
EE00
FE00
FC00
FE00
EF00
E700
E380
ENDCHAR
STARTCHAR 0139
ENCODING 313
SWIDTH 660 0
DWIDTH 11 0
BBX 9 16 1 0
BITMAP
3800
7000
6000
0000
E000
E000
E000
E000
E000
E000
E000
E000
E000
E000
FF80
FF80
ENDCHAR
STARTCHAR 013A
ENCODING 314
SWIDTH 360 0
DWIDTH 6 0
BBX 4 16 1 0
BITMAP
30
60
C0
E0
E0
E0
E0
E0
E0
E0
E0
E0
E0
E0
E0
E0
ENDCHAR
STARTCHAR 013B
ENCODING 315
SWIDTH 660 0
DWIDTH 11 0
BBX 9 16 1 -4
BITMAP
E000
E000
E000
E000
E000
E000
E000
E000
E000
E000
FF80
FF80
1800
1800
1800
1800
ENDCHAR
STARTCHAR 013C
ENCODING 316
SWIDTH 300 0
DWIDTH 5 0
BBX 3 17 1 -4
BITMAP
E0
E0
E0
E0
E0
E0
E0
E0
E0
E0
E0
E0
E0
40
40
C0
C0
ENDCHAR
STARTCHAR 013D
ENCODING 317
SWIDTH 660 0
DWIDTH 11 0
BBX 9 12 1 0
BITMAP
E300
E300
E700
E600
E000
E000
E000
E000
E000
E000
FF80
FF80
ENDCHAR
STARTCHAR 013E
ENCODING 318
SWIDTH 480 0
DWIDTH 8 0
BBX 7 13 1 0
BITMAP
E6
E6
EC
EC
E0
E0
E0
E0
E0
E0
E0
E0
E0
ENDCHAR
STARTCHAR 013F
ENCODING 319
SWIDTH 660 0
DWIDTH 11 0
BBX 9 12 1 0
BITMAP
E000
E000
E000
E000
E600
EE00
E000
E000
E000
E000
FF80
FF80
ENDCHAR
STARTCHAR 0140
ENCODING 320
SWIDTH 480 0
DWIDTH 8 0
BBX 6 13 1 0
BITMAP
E0
E0
E0
E0
E0
EC
EC
E0
E0
E0
E0
E0
E0
ENDCHAR
STARTCHAR 0141
ENCODING 321
SWIDTH 660 0
DWIDTH 11 0
BBX 9 12 1 0
BITMAP
7000
7000
7000
7000
7C00
FC00
F000
7000
7000
7000
7F80
7F80
ENDCHAR
STARTCHAR 0142
ENCODING 322
SWIDTH 420 0
DWIDTH 7 0
BBX 5 13 1 0
BITMAP
70
70
70
70
70
78
F8
F0
70
70
70
70
70
ENDCHAR
STARTCHAR 0143
ENCODING 323
SWIDTH 780 0
DWIDTH 13 0
BBX 11 16 1 0
BITMAP
0380
0700
0600
0000
E0E0
F0E0
F8E0
F8E0
FCE0
EEE0
EEE0
E7E0
E3E0
E3E0
E1E0
E0E0
ENDCHAR
STARTCHAR 0144
ENCODING 324
SWIDTH 660 0
DWIDTH 11 0
BBX 9 13 1 0
BITMAP
0600
0E00
1C00
0000
EE00
FF00
E300
E380
E380
E380
E380
E380
E380
ENDCHAR
STARTCHAR 0145
ENCODING 325
SWIDTH 780 0
DWIDTH 13 0
BBX 11 16 1 -4
BITMAP
E0E0
F0E0
F8E0
F8E0
FCE0
EEE0
EEE0
E7E0
E3E0
E3E0
E1E0
E0E0
0000
0400
0C00
0C00
ENDCHAR
STARTCHAR 0146
ENCODING 326
SWIDTH 660 0
DWIDTH 11 0
BBX 9 13 1 -4
BITMAP
EE00
FF00
E300
E380
E380
E380
E380
E380
E380
1800
1800
1800
1800
ENDCHAR
STARTCHAR 0147
ENCODING 327
SWIDTH 780 0
DWIDTH 13 0
BBX 11 16 1 0
BITMAP
3180
1B00
0E00
0000
E0E0
F0E0
F8E0
F8E0
FCE0
EEE0
EEE0
E7E0
E3E0
E3E0
E1E0
E0E0
ENDCHAR
STARTCHAR 0148
ENCODING 328
SWIDTH 660 0
DWIDTH 11 0
BBX 9 13 1 0
BITMAP
7700
3E00
1800
0000
EE00
FF00
E300
E380
E380
E380
E380
E380
E380
ENDCHAR
STARTCHAR 0149
ENCODING 329
SWIDTH 720 0
DWIDTH 12 0
BBX 10 13 1 0
BITMAP
E000
E000
C000
C000
F780
7F80
71C0
71C0
71C0
71C0
71C0
71C0
71C0
ENDCHAR
STARTCHAR 014A
ENCODING 330
SWIDTH 780 0
DWIDTH 13 0
BBX 11 15 1 -3
BITMAP
E0E0
F0E0
F8E0
F8E0
FCE0
ECE0
E6E0
E7E0
E3E0
E3E0
E1E0
E0E0
00E0
03C0
0380
ENDCHAR
STARTCHAR 014B
ENCODING 331
SWIDTH 660 0
DWIDTH 11 0
BBX 9 12 1 -3
BITMAP
EE00
FF00
E300
E380
E380
E380
E380
E380
E380
0380
0F00
0E00
ENDCHAR
STARTCHAR 014C
ENCODING 332
SWIDTH 780 0
DWIDTH 13 0
BBX 11 15 1 0
BITMAP
3F80
3F80
0000
1F00
3F80
71C0
E0E0
E0E0
E0E0
E0E0
E0E0
E0E0
71C0
3F80
1F00
ENDCHAR
STARTCHAR 014D
ENCODING 333
SWIDTH 660 0
DWIDTH 11 0
BBX 9 12 1 0
BITMAP
7F00
7F00
0000
3E00
7F00
E380
E380
E180
E380
E380
7F00
3E00
ENDCHAR
STARTCHAR 014E
ENCODING 334
SWIDTH 780 0
DWIDTH 13 0
BBX 11 15 1 0
BITMAP
3180
1F00
0400
1F00
3F80
71C0
E0E0
E0E0
E0E0
E0E0
E0E0
E0E0
71C0
3F80
1F00
ENDCHAR
STARTCHAR 014F
ENCODING 335
SWIDTH 660 0
DWIDTH 11 0
BBX 9 13 1 0
BITMAP
6300
3E00
1C00
0000
3E00
7F00
E380
E380
E180
E380
E380
7F00
3E00
ENDCHAR
STARTCHAR 0150
ENCODING 336
SWIDTH 780 0
DWIDTH 13 0
BBX 11 16 1 0
BITMAP
0EC0
0D80
1B00
0000
1F00
3F80
71C0
E0E0
E0E0
E0E0
E0E0
E0E0
E0E0
71C0
3F80
1F00
ENDCHAR
STARTCHAR 0151
ENCODING 337
SWIDTH 660 0
DWIDTH 11 0
BBX 9 13 1 0
BITMAP
1980
1B00
3600
0000
3E00
7F00
E380
E380
E180
E380
E380
7F00
3E00
ENDCHAR
STARTCHAR 0152
ENCODING 338
SWIDTH 1080 0
DWIDTH 18 0
BBX 16 12 1 0
BITMAP
1FFF
7FFF
71C0
E1C0
E1C0
E1FE
E1FE
E1C0
E1C0
71C0
7FFF
1FFF
ENDCHAR
STARTCHAR 0153
ENCODING 339
SWIDTH 1020 0
DWIDTH 17 0
BBX 15 9 1 0
BITMAP
3E78
7FFC
E3CE
E3FE
E3FE
E380
E3C0
7FFE
3E7C
ENDCHAR
STARTCHAR 0154
ENCODING 340
SWIDTH 720 0
DWIDTH 12 0
BBX 10 16 1 0
BITMAP
0700
0E00
1C00
0000
FF00
FF80
E3C0
E1C0
E1C0
E3C0
FF80
FF00
E700
E380
E1C0
E1C0
ENDCHAR
STARTCHAR 0155
ENCODING 341
SWIDTH 480 0
DWIDTH 8 0
BBX 6 13 1 0
BITMAP
1C
38
30
00
FC
FC
FC
E0
E0
E0
E0
E0
E0
ENDCHAR
STARTCHAR 0156
ENCODING 342
SWIDTH 720 0
DWIDTH 12 0
BBX 10 16 1 -4
BITMAP
FF00
FF80
E3C0
E1C0
E1C0
E3C0
FF80
FF00
E700
E380
E1C0
E1C0
0C00
0800
1800
1800
ENDCHAR
STARTCHAR 0157
ENCODING 343
SWIDTH 480 0
DWIDTH 8 0
BBX 6 13 1 -4
BITMAP
FC
FC
FC
E0
E0
E0
E0
E0
E0
60
40
C0
C0
ENDCHAR
STARTCHAR 0158
ENCODING 344
SWIDTH 720 0
DWIDTH 12 0
BBX 10 16 1 0
BITMAP
6300
3600
1C00
0000
FF00
FF80
E3C0
E1C0
E1C0
E3C0
FF80
FF00
E700
E380
E1C0
E1C0
ENDCHAR
STARTCHAR 0159
ENCODING 345
SWIDTH 480 0
DWIDTH 8 0
BBX 6 13 1 0
BITMAP
CC
78
30
00
EC
FC
FC
E0
E0
E0
E0
E0
E0
ENDCHAR
STARTCHAR 015A
ENCODING 346
SWIDTH 720 0
DWIDTH 12 0
BBX 10 16 1 0
BITMAP
0700
0600
0C00
0000
3F00
7F80
E1C0
E1C0
F000
7E00
1F80
03C0
E1C0
E1C0
7F80
3F00
ENDCHAR
STARTCHAR 015B
ENCODING 347
SWIDTH 600 0
DWIDTH 10 0
BBX 8 13 1 0
BITMAP
0E
0C
18
00
3C
7F
E7
F0
7E
0F
C3
FF
3C
ENDCHAR
STARTCHAR 015C
ENCODING 348
SWIDTH 720 0
DWIDTH 12 0
BBX 10 16 1 0
BITMAP
0C00
1E00
3300
0000
3F00
7F80
E1C0
E1C0
F000
7E00
1F80
03C0
E1C0
E1C0
7F80
3F00
ENDCHAR
STARTCHAR 015D
ENCODING 349
SWIDTH 600 0
DWIDTH 10 0
BBX 8 13 1 0
BITMAP
18
3C
66
00
3C
7F
E7
F0
7E
0F
C3
FF
3C
ENDCHAR
STARTCHAR 015E
ENCODING 350
SWIDTH 720 0
DWIDTH 12 0
BBX 10 16 1 -4
BITMAP
3F00
7F80
E1C0
E1C0
F000
7E00
1F80
03C0
E1C0
E1C0
7F80
3F00
0E00
0600
0E00
0800
ENDCHAR
STARTCHAR 015F
ENCODING 351
SWIDTH 600 0
DWIDTH 10 0
BBX 8 13 1 -4
BITMAP
3C
7F
E7
F0
7E
0F
C3
FF
3E
1C
0C
1C
10
ENDCHAR
STARTCHAR 0160
ENCODING 352
SWIDTH 720 0
DWIDTH 12 0
BBX 10 16 1 0
BITMAP
7380
3F00
0C00
0000
3F00
7F80
E1C0
E1C0
F000
7E00
1F80
03C0
E1C0
E1C0
7F80
3F00
ENDCHAR
STARTCHAR 0161
ENCODING 353
SWIDTH 600 0
DWIDTH 10 0
BBX 8 13 1 0
BITMAP
66
3C
18
00
3C
7F
E7
F0
7E
0F
C3
FF
3C
ENDCHAR
STARTCHAR 0162
ENCODING 354
SWIDTH 720 0
DWIDTH 12 0
BBX 10 16 1 -4
BITMAP
FFC0
FFC0
0C00
0C00
0C00
0C00
0C00
0C00
0C00
0C00
0C00
0C00
0E00
0600
0E00
0800
ENDCHAR
STARTCHAR 0163
ENCODING 355
SWIDTH 480 0
DWIDTH 8 0
BBX 6 15 1 -4
BITMAP
70
70
F8
F8
70
70
70
70
70
7C
3C
18
0C
1C
10
ENDCHAR
STARTCHAR 0164
ENCODING 356
SWIDTH 720 0
DWIDTH 12 0
BBX 10 16 1 0
BITMAP
7380
3F00
0C00
0000
FFC0
FFC0
0C00
0C00
0C00
0C00
0C00
0C00
0C00
0C00
0C00
0C00
ENDCHAR
STARTCHAR 0165
ENCODING 357
SWIDTH 600 0
DWIDTH 10 0
BBX 8 14 1 0
BITMAP
03
03
03
76
70
F8
F8
70
70
70
70
70
7C
3C
ENDCHAR
STARTCHAR 0166
ENCODING 358
SWIDTH 720 0
DWIDTH 12 0
BBX 10 12 1 0
BITMAP
FFC0
FFC0
0C00
0C00
3F00
3F00
0C00
0C00
0C00
0C00
0C00
0C00
ENDCHAR
STARTCHAR 0167
ENCODING 359
SWIDTH 480 0
DWIDTH 8 0
BBX 6 11 1 0
BITMAP
30
30
FC
FC
30
FC
FC
30
30
3C
1C
ENDCHAR
STARTCHAR 0168
ENCODING 360
SWIDTH 720 0
DWIDTH 12 0
BBX 10 15 1 0
BITMAP
3F00
3F00
0000
E1C0
E1C0
E1C0
E1C0
E1C0
E1C0
E1C0
E1C0
E1C0
F1C0
7F80
1F00
ENDCHAR
STARTCHAR 0169
ENCODING 361
SWIDTH 660 0
DWIDTH 11 0
BBX 8 13 1 0
BITMAP
33
7E
44
00
E3
E3
E3
E3
E3
E3
E3
FF
7B
ENDCHAR
STARTCHAR 016A
ENCODING 362
SWIDTH 720 0
DWIDTH 12 0
BBX 10 15 1 0
BITMAP
3F00
3F00
0000
E1C0
E1C0
E1C0
E1C0
E1C0
E1C0
E1C0
E1C0
E1C0
F1C0
7F80
1F00
ENDCHAR
STARTCHAR 016B
ENCODING 363
SWIDTH 660 0
DWIDTH 11 0
BBX 8 12 1 0
BITMAP
7F
7F
00
E3
E3
E3
E3
E3
E3
E3
FF
7B
ENDCHAR
STARTCHAR 016C
ENCODING 364
SWIDTH 720 0
DWIDTH 12 0
BBX 10 16 1 0
BITMAP
3300
3F00
1E00
0000
E1C0
E1C0
E1C0
E1C0
E1C0
E1C0
E1C0
E1C0
E1C0
F1C0
7F80
1F00
ENDCHAR
STARTCHAR 016D
ENCODING 365
SWIDTH 660 0
DWIDTH 11 0
BBX 8 13 1 0
BITMAP
62
7E
3C
00
E3
E3
E3
E3
E3
E3
E3
FF
7B
ENDCHAR
STARTCHAR 016E
ENCODING 366
SWIDTH 720 0
DWIDTH 12 0
BBX 10 16 1 0
BITMAP
0C00
1200
0E00
0000
E1C0
E1C0
E1C0
E1C0
E1C0
E1C0
E1C0
E1C0
E1C0
F1C0
7F80
1F00
ENDCHAR
STARTCHAR 016F
ENCODING 367
SWIDTH 660 0
DWIDTH 11 0
BBX 8 13 1 0
BITMAP
1C
24
1C
00
E3
E3
E3
E3
E3
E3
E3
FF
7B
ENDCHAR
STARTCHAR 0170
ENCODING 368
SWIDTH 720 0
DWIDTH 12 0
BBX 10 16 1 0
BITMAP
0DC0
1980
1B00
0000
E1C0
E1C0
E1C0
E1C0
E1C0
E1C0
E1C0
E1C0
E1C0
F1C0
7F80
1F00
ENDCHAR
STARTCHAR 0171
ENCODING 369
SWIDTH 660 0
DWIDTH 11 0
BBX 9 13 1 0
BITMAP
1B80
3300
3600
0000
E300
E300
E300
E300
E300
E300
E300
FF00
7B00
ENDCHAR
STARTCHAR 0172
ENCODING 370
SWIDTH 720 0
DWIDTH 12 0
BBX 10 15 1 -3
BITMAP
E1C0
E1C0
E1C0
E1C0
E1C0
E1C0
E1C0
E1C0
E1C0
F1C0
7F80
1F00
0600
0700
0300
ENDCHAR
STARTCHAR 0173
ENCODING 371
SWIDTH 660 0
DWIDTH 11 0
BBX 8 12 1 -3
BITMAP
E3
E3
E3
E3
E3
E3
E3
FF
7B
06
07
07
ENDCHAR
STARTCHAR 0174
ENCODING 372
SWIDTH 1020 0
DWIDTH 17 0
BBX 15 16 1 0
BITMAP
0100
0780
0EE0
0000
C38E
E38E
E38E
678C
66CC
76DC
76DC
3CD8
3C78
3C78
3C78
1870
ENDCHAR
STARTCHAR 0175
ENCODING 373
SWIDTH 900 0
DWIDTH 15 0
BBX 13 13 1 0
BITMAP
0600
0F80
19C0
0000
C638
E730
E730
6F70
6DE0
6DE0
39E0
38E0
38C0
ENDCHAR
STARTCHAR 0176
ENCODING 374
SWIDTH 780 0
DWIDTH 13 0
BBX 11 16 1 0
BITMAP
0400
1E00
3B80
0000
E0E0
E1C0
71C0
3380
3B80
1F00
1E00
0E00
0E00
0E00
0E00
0E00
ENDCHAR
STARTCHAR 0177
ENCODING 375
SWIDTH 660 0
DWIDTH 11 0
BBX 9 16 1 -3
BITMAP
1C00
3E00
6700
0000
E380
E300
6700
7700
3600
3E00
3C00
1C00
1800
1800
7800
7000
ENDCHAR
STARTCHAR 0178
ENCODING 376
SWIDTH 780 0
DWIDTH 13 0
BBX 11 15 1 0
BITMAP
3180
3380
0000
E0E0
E1C0
71C0
3380
3B80
1F00
1E00
0E00
0E00
0E00
0E00
0E00
ENDCHAR
STARTCHAR 0179
ENCODING 377
SWIDTH 720 0
DWIDTH 12 0
BBX 10 16 1 0
BITMAP
0700
0600
0C00
0000
FFC0
FFC0
0380
0700
0E00
0E00
1C00
3800
7000
7000
FFC0
FFC0
ENDCHAR
STARTCHAR 017A
ENCODING 378
SWIDTH 600 0
DWIDTH 10 0
BBX 8 13 1 0
BITMAP
0E
0C
18
00
FF
FF
0E
1C
38
38
70
FF
FF
ENDCHAR
STARTCHAR 017B
ENCODING 379
SWIDTH 720 0
DWIDTH 12 0
BBX 10 15 1 0
BITMAP
0C00
0C00
0000
FFC0
FFC0
0380
0700
0E00
0E00
1C00
3800
7000
7000
FFC0
FFC0
ENDCHAR
STARTCHAR 017C
ENCODING 380
SWIDTH 600 0
DWIDTH 10 0
BBX 8 12 1 0
BITMAP
18
18
00
FF
FF
0E
1C
38
38
70
FF
FF
ENDCHAR
STARTCHAR 017D
ENCODING 381
SWIDTH 720 0
DWIDTH 12 0
BBX 10 16 1 0
BITMAP
7300
3E00
0C00
0000
FFC0
FFC0
0380
0700
0E00
0E00
1C00
3800
7000
7000
FFC0
FFC0
ENDCHAR
STARTCHAR 017E
ENCODING 382
SWIDTH 600 0
DWIDTH 10 0
BBX 8 13 1 0
BITMAP
66
3C
18
00
FF
FF
0E
1C
38
38
70
FF
FF
ENDCHAR
STARTCHAR 017F
ENCODING 383
SWIDTH 420 0
DWIDTH 7 0
BBX 5 13 1 0
BITMAP
38
78
E0
E0
E0
E0
E0
E0
E0
E0
E0
E0
E0
ENDCHAR
STARTCHAR 0192
ENCODING 402
SWIDTH 480 0
DWIDTH 8 0
BBX 7 16 1 -3
BITMAP
1E
3C
30
30
FC
FC
30
30
30
30
30
30
30
70
F0
E0
ENDCHAR
STARTCHAR 01A0
ENCODING 416
SWIDTH 840 0
DWIDTH 14 0
BBX 12 13 1 0
BITMAP
0010
1F10
3FB0
71E0
E0E0
E0E0
E0E0
E0E0
E0E0
E0E0
71C0
3F80
1F00
ENDCHAR
STARTCHAR 01A1
ENCODING 417
SWIDTH 720 0
DWIDTH 12 0
BBX 10 10 1 0
BITMAP
0040
3EC0
7FC0
E380
E380
E180
E380
E380
7F00
3E00
ENDCHAR
STARTCHAR 01AF
ENCODING 431
SWIDTH 900 0
DWIDTH 15 0
BBX 14 13 1 0
BITMAP
000C
E1CC
E1D8
E1F8
E1C0
E1C0
E1C0
E1C0
E1C0
E1C0
F1C0
7F80
1F00
ENDCHAR
STARTCHAR 01B0
ENCODING 432
SWIDTH 780 0
DWIDTH 13 0
BBX 11 10 1 0
BITMAP
0020
E360
E3C0
E300
E300
E300
E300
E300
FF00
7B00
ENDCHAR
STARTCHAR 01F0
ENCODING 496
SWIDTH 480 0
DWIDTH 8 0
BBX 6 15 1 -3
BITMAP
CC
78
00
38
38
38
38
38
38
38
38
38
38
F0
E0
ENDCHAR
STARTCHAR 01FA
ENCODING 506
SWIDTH 840 0
DWIDTH 14 0
BBX 12 16 1 0
BITMAP
0380
0600
0600
0900
0E00
0F00
0F00
1F80
1B80
3980
31C0
3FC0
7FE0
60E0
E060
E070
ENDCHAR
STARTCHAR 01FB
ENCODING 507
SWIDTH 600 0
DWIDTH 10 0
BBX 8 14 1 0
BITMAP
06
0C
00
18
24
3E
7F
E7
1F
7F
E3
E7
FF
7B
ENDCHAR
STARTCHAR 01FC
ENCODING 508
SWIDTH 1080 0
DWIDTH 18 0
BBX 16 16 1 0
BITMAP
00E0
00C0
0180
0000
03FF
03FF
07E0
06E0
0EFE
0CFE
1CE0
3FE0
3FE0
70E0
70FF
E0FF
ENDCHAR
STARTCHAR 01FD
ENCODING 509
SWIDTH 960 0
DWIDTH 16 0
BBX 14 13 1 0
BITMAP
01C0
0180
0300
0000
3EF0
7FFC
E38C
3FFC
FFFC
E300
E380
FFFC
7CF8
ENDCHAR
STARTCHAR 01FE
ENCODING 510
SWIDTH 780 0
DWIDTH 13 0
BBX 11 17 1 -1
BITMAP
0380
0700
0600
0000
1F40
3FC0
71C0
E1E0
E3E0
E6E0
ECE0
ECE0
F8E0
71C0
3F80
7F00
C000
ENDCHAR
STARTCHAR 01FF
ENCODING 511
SWIDTH 660 0
DWIDTH 11 0
BBX 9 14 1 -1
BITMAP
0700
0E00
1C00
0100
3F00
7F00
E780
EF80
E980
FB80
F380
7F00
3E00
6000
ENDCHAR
STARTCHAR 0218
ENCODING 536
SWIDTH 720 0
DWIDTH 12 0
BBX 10 16 1 -4
BITMAP
3F00
7F80
E1C0
E1C0
F000
7E00
1F80
03C0
E1C0
E1C0
7F80
3F00
0C00
0C00
0C00
1800
ENDCHAR
STARTCHAR 0219
ENCODING 537
SWIDTH 600 0
DWIDTH 10 0
BBX 8 13 1 -4
BITMAP
3C
7F
E7
F0
7E
0F
C3
FF
3C
18
18
18
30
ENDCHAR
STARTCHAR 021A
ENCODING 538
SWIDTH 720 0
DWIDTH 12 0
BBX 10 16 1 -4
BITMAP
FFC0
FFC0
0C00
0C00
0C00
0C00
0C00
0C00
0C00
0C00
0C00
0C00
0000
0C00
0C00
1800
ENDCHAR
STARTCHAR 021B
ENCODING 539
SWIDTH 480 0
DWIDTH 8 0
BBX 6 15 1 -4
BITMAP
70
70
F8
F8
70
70
70
70
70
7C
3C
18
18
30
30
ENDCHAR
STARTCHAR 0237
ENCODING 567
SWIDTH 420 0
DWIDTH 7 0
BBX 4 12 1 -3
BITMAP
30
30
30
30
30
30
30
30
30
30
F0
E0
ENDCHAR
STARTCHAR 0259
ENCODING 601
SWIDTH 660 0
DWIDTH 11 0
BBX 8 9 1 0
BITMAP
7C
FE
07
03
FF
FF
E7
7F
3C
ENDCHAR
STARTCHAR 02BC
ENCODING 700
SWIDTH 300 0
DWIDTH 5 0
BBX 3 4 1 9
BITMAP
60
60
60
C0
ENDCHAR
STARTCHAR 02C6
ENCODING 710
SWIDTH 540 0
DWIDTH 9 0
BBX 7 3 1 10
BITMAP
38
6C
C6
ENDCHAR
STARTCHAR 02C7
ENCODING 711
SWIDTH 540 0
DWIDTH 9 0
BBX 7 3 1 10
BITMAP
EE
7C
10
ENDCHAR
STARTCHAR 02C9
ENCODING 713
SWIDTH 540 0
DWIDTH 9 0
BBX 7 2 1 10
BITMAP
FE
FE
ENDCHAR
STARTCHAR 02D8
ENCODING 728
SWIDTH 480 0
DWIDTH 8 0
BBX 6 3 1 10
BITMAP
CC
FC
78
ENDCHAR
STARTCHAR 02D9
ENCODING 729
SWIDTH 300 0
DWIDTH 5 0
BBX 3 2 1 10
BITMAP
C0
E0
ENDCHAR
STARTCHAR 02DA
ENCODING 730
SWIDTH 360 0
DWIDTH 6 0
BBX 4 4 1 9
BITMAP
60
90
90
60
ENDCHAR
STARTCHAR 02DB
ENCODING 731
SWIDTH 300 0
DWIDTH 5 0
BBX 3 4 1 -3
BITMAP
60
C0
E0
E0
ENDCHAR
STARTCHAR 02DC
ENCODING 732
SWIDTH 540 0
DWIDTH 9 0
BBX 7 3 1 10
BITMAP
66
FE
CC
ENDCHAR
STARTCHAR 02DD
ENCODING 733
SWIDTH 540 0
DWIDTH 9 0
BBX 7 3 1 10
BITMAP
76
6C
D8
ENDCHAR
STARTCHAR 02F3
ENCODING 755
SWIDTH 360 0
DWIDTH 6 0
BBX 4 3 1 -3
BITMAP
60
90
60
ENDCHAR
STARTCHAR 0300
ENCODING 768
SWIDTH 300 0
DWIDTH 5 0
BBX 3 3 1 10
BITMAP
C0
60
20
ENDCHAR
STARTCHAR 0301
ENCODING 769
SWIDTH 300 0
DWIDTH 5 0
BBX 3 3 1 10
BITMAP
60
40
C0
ENDCHAR
STARTCHAR 0303
ENCODING 771
SWIDTH 540 0
DWIDTH 9 0
BBX 7 3 1 10
BITMAP
66
FE
CC
ENDCHAR
STARTCHAR 0309
ENCODING 777
SWIDTH 360 0
DWIDTH 6 0
BBX 4 4 1 10
BITMAP
E0
70
60
C0
ENDCHAR
STARTCHAR 030F
ENCODING 783
SWIDTH 600 0
DWIDTH 10 0
BBX 8 2 1 10
BITMAP
EC
3F
ENDCHAR
STARTCHAR 0323
ENCODING 803
SWIDTH 300 0
DWIDTH 5 0
BBX 3 2 1 -3
BITMAP
E0
60
ENDCHAR
STARTCHAR 0384
ENCODING 900
SWIDTH 300 0
DWIDTH 5 0
BBX 3 3 1 10
BITMAP
60
C0
C0
ENDCHAR
STARTCHAR 0385
ENCODING 901
SWIDTH 600 0
DWIDTH 10 0
BBX 8 4 1 10
BITMAP
0C
18
DB
C3
ENDCHAR
STARTCHAR 0386
ENCODING 902
SWIDTH 840 0
DWIDTH 14 0
BBX 12 13 1 0
BITMAP
6000
6E00
CF00
0F00
1F00
1B80
3980
31C0
3FC0
7FE0
60E0
E060
E070
ENDCHAR
STARTCHAR 0387
ENCODING 903
SWIDTH 300 0
DWIDTH 5 0
BBX 3 3 1 4
BITMAP
E0
E0
40
ENDCHAR
STARTCHAR 0388
ENCODING 904
SWIDTH 840 0
DWIDTH 14 0
BBX 12 13 1 0
BITMAP
C000
DFF0
9FF0
1C00
1C00
1C00
1FE0
1FE0
1C00
1C00
1C00
1FF0
1FF0
ENDCHAR
STARTCHAR 0389
ENCODING 905
SWIDTH 960 0
DWIDTH 16 0
BBX 14 13 1 0
BITMAP
C000
DC1C
9C1C
1C1C
1C1C
1C1C
1FFC
1FFC
1C1C
1C1C
1C1C
1C1C
1C1C
ENDCHAR
STARTCHAR 038A
ENCODING 906
SWIDTH 480 0
DWIDTH 8 0
BBX 6 13 1 0
BITMAP
C0
DC
9C
1C
1C
1C
1C
1C
1C
1C
1C
1C
1C
ENDCHAR
STARTCHAR 038C
ENCODING 908
SWIDTH 840 0
DWIDTH 14 0
BBX 12 13 1 0
BITMAP
E000
CF80
9FE0
38F0
3070
7030
7030
7030
7030
3070
38F0
1FE0
0F80
ENDCHAR
STARTCHAR 038E
ENCODING 910
SWIDTH 960 0
DWIDTH 16 0
BBX 14 13 1 0
BITMAP
C000
DC1C
9C38
0E38
0670
0770
03E0
03C0
01C0
01C0
01C0
01C0
01C0
ENDCHAR
STARTCHAR 038F
ENCODING 911
SWIDTH 840 0
DWIDTH 14 0
BBX 12 13 1 0
BITMAP
E000
CF80
9FC0
38E0
70E0
70E0
7070
70E0
70E0
38E0
19C0
7DE0
7DE0
ENDCHAR
STARTCHAR 0390
ENCODING 912
SWIDTH 600 0
DWIDTH 10 0
BBX 8 14 1 0
BITMAP
18
18
D7
C7
00
38
38
38
38
38
38
38
3E
1E
ENDCHAR
STARTCHAR 0391
ENCODING 913
SWIDTH 840 0
DWIDTH 14 0
BBX 12 12 1 0
BITMAP
0E00
0F00
0F00
1F80
1B80
3980
31C0
3FC0
7FE0
60E0
E060
E070
ENDCHAR
STARTCHAR 0392
ENCODING 914
SWIDTH 720 0
DWIDTH 12 0
BBX 10 12 1 0
BITMAP
FF00
FF80
E3C0
E1C0
E180
FF80
FF80
E1C0
E1C0
E1C0
FF80
FF00
ENDCHAR
STARTCHAR 0393
ENCODING 915
SWIDTH 660 0
DWIDTH 11 0
BBX 9 12 1 0
BITMAP
FF80
FF80
E000
E000
E000
E000
E000
E000
E000
E000
E000
E000
ENDCHAR
STARTCHAR 0394
ENCODING 916
SWIDTH 900 0
DWIDTH 15 0
BBX 13 12 2 0
BITMAP
0700
0780
0F80
0D80
1DC0
18C0
38E0
38E0
7070
7070
7FF0
FFF8
ENDCHAR
STARTCHAR 0395
ENCODING 917
SWIDTH 660 0
DWIDTH 11 0
BBX 9 12 1 0
BITMAP
FF80
FF80
E000
E000
E000
FF00
FF00
E000
E000
E000
FF80
FF80
ENDCHAR
STARTCHAR 0396
ENCODING 918
SWIDTH 720 0
DWIDTH 12 0
BBX 10 12 1 0
BITMAP
FFC0
FFC0
0380
0700
0E00
0E00
1C00
3800
7000
7000
FFC0
FFC0
ENDCHAR
STARTCHAR 0397
ENCODING 919
SWIDTH 780 0
DWIDTH 13 0
BBX 11 12 1 0
BITMAP
E0E0
E0E0
E0E0
E0E0
E0E0
FFE0
FFE0
E0E0
E0E0
E0E0
E0E0
E0E0
ENDCHAR
STARTCHAR 0398
ENCODING 920
SWIDTH 780 0
DWIDTH 13 0
BBX 11 12 1 0
BITMAP
1F00
3F80
71C0
E0E0
E0E0
EEE0
EEE0
E0E0
E0E0
71C0
3F80
1F00
ENDCHAR
STARTCHAR 0399
ENCODING 921
SWIDTH 300 0
DWIDTH 5 0
BBX 3 12 1 0
BITMAP
E0
E0
E0
E0
E0
E0
E0
E0
E0
E0
E0
E0
ENDCHAR
STARTCHAR 039A
ENCODING 922
SWIDTH 780 0
DWIDTH 13 0
BBX 11 12 1 0
BITMAP
E1C0
E3C0
E780
EF00
EE00
FC00
FE00
FF00
E700
E380
E1C0
E1E0
ENDCHAR
STARTCHAR 039B
ENCODING 923
SWIDTH 780 0
DWIDTH 13 0
BBX 11 12 1 0
BITMAP
0E00
0E00
1F00
1F00
1B80
3B80
3180
71C0
71C0
60C0
E0E0
E0E0
ENDCHAR
STARTCHAR 039C
ENCODING 924
SWIDTH 960 0
DWIDTH 16 0
BBX 14 12 1 0
BITMAP
F03C
F03C
F83C
F87C
F87C
ECFC
ECDC
EEDC
E79C
E79C
E39C
E31C
ENDCHAR
STARTCHAR 039D
ENCODING 925
SWIDTH 780 0
DWIDTH 13 0
BBX 11 12 1 0
BITMAP
E0E0
F0E0
F8E0
F8E0
FCE0
EEE0
EEE0
E7E0
E3E0
E3E0
E1E0
E0E0
ENDCHAR
STARTCHAR 039E
ENCODING 926
SWIDTH 660 0
DWIDTH 11 0
BBX 9 12 1 0
BITMAP
FF00
FF00
0000
0000
0000
7F00
7F00
0000
0000
0000
FF80
FF80
ENDCHAR
STARTCHAR 039F
ENCODING 927
SWIDTH 780 0
DWIDTH 13 0
BBX 11 12 1 0
BITMAP
1F00
3F80
71C0
E0E0
E0E0
E0E0
E0E0
E0E0
E0E0
71C0
3F80
1F00
ENDCHAR
STARTCHAR 03A0
ENCODING 928
SWIDTH 780 0
DWIDTH 13 0
BBX 11 12 1 0
BITMAP
FFE0
FFE0
E0E0
E0E0
E0E0
E0E0
E0E0
E0E0
E0E0
E0E0
E0E0
E0E0
ENDCHAR
STARTCHAR 03A1
ENCODING 929
SWIDTH 720 0
DWIDTH 12 0
BBX 10 12 1 0
BITMAP
FF00
FF80
E1C0
E1C0
E1C0
E1C0
FF80
FF00
E000
E000
E000
E000
ENDCHAR
STARTCHAR 03A3
ENCODING 931
SWIDTH 660 0
DWIDTH 11 0
BBX 9 12 1 0
BITMAP
FF80
FF80
7000
3800
1C00
1C00
1C00
1C00
3800
7000
FF80
FF80
ENDCHAR
STARTCHAR 03A4
ENCODING 932
SWIDTH 720 0
DWIDTH 12 0
BBX 10 12 1 0
BITMAP
FFC0
FFC0
0C00
0C00
0C00
0C00
0C00
0C00
0C00
0C00
0C00
0C00
ENDCHAR
STARTCHAR 03A5
ENCODING 933
SWIDTH 780 0
DWIDTH 13 0
BBX 11 12 1 0
BITMAP
E0E0
E1C0
71C0
3380
3B80
1F00
1E00
0E00
0E00
0E00
0E00
0E00
ENDCHAR
STARTCHAR 03A6
ENCODING 934
SWIDTH 900 0
DWIDTH 15 0
BBX 13 12 1 0
BITMAP
0700
0700
3FE0
7FF0
E770
E738
E738
E738
F770
7FF0
1FC0
0700
ENDCHAR
STARTCHAR 03A7
ENCODING 935
SWIDTH 780 0
DWIDTH 13 0
BBX 11 12 1 0
BITMAP
E0E0
71C0
7380
3B80
1F00
1E00
1F00
1F00
3B80
7380
71C0
E0E0
ENDCHAR
STARTCHAR 03A8
ENCODING 936
SWIDTH 840 0
DWIDTH 14 0
BBX 12 12 1 0
BITMAP
E730
E730
E730
E730
E730
E770
7770
7FE0
1FC0
0700
0700
0700
ENDCHAR
STARTCHAR 03A9
ENCODING 937
SWIDTH 720 0
DWIDTH 12 0
BBX 10 12 2 0
BITMAP
3E00
7F80
F380
E1C0
E1C0
E1C0
E1C0
E1C0
E180
7300
F7C0
F7C0
ENDCHAR
STARTCHAR 03AA
ENCODING 938
SWIDTH 480 0
DWIDTH 8 0
BBX 6 15 1 0
BITMAP
CC
CC
00
30
30
30
30
30
30
30
30
30
30
30
30
ENDCHAR
STARTCHAR 03AB
ENCODING 939
SWIDTH 780 0
DWIDTH 13 0
BBX 11 15 1 0
BITMAP
3180
3380
0000
E0E0
E1C0
71C0
3380
3B80
1F00
1E00
0E00
0E00
0E00
0E00
0E00
ENDCHAR
STARTCHAR 03AC
ENCODING 940
SWIDTH 660 0
DWIDTH 11 0
BBX 10 13 1 0
BITMAP
0E00
0C00
0C00
0000
3F00
7F00
E300
E300
C300
E300
E380
7F80
39C0
ENDCHAR
STARTCHAR 03AD
ENCODING 941
SWIDTH 660 0
DWIDTH 11 0
BBX 9 13 1 0
BITMAP
0C00
0C00
1800
0000
3E00
FF00
E300
7C00
7C00
E000
E380
FF00
3E00
ENDCHAR
STARTCHAR 03AE
ENCODING 942
SWIDTH 660 0
DWIDTH 11 0
BBX 9 16 1 -3
BITMAP
0C00
0C00
1800
0000
EE00
FF00
E300
E380
E380
E380
E380
E380
E380
0380
0380
0380
ENDCHAR
STARTCHAR 03AF
ENCODING 943
SWIDTH 360 0
DWIDTH 6 0
BBX 4 13 1 0
BITMAP
60
60
40
00
E0
E0
E0
E0
E0
E0
E0
F0
70
ENDCHAR
STARTCHAR 03B0
ENCODING 944
SWIDTH 600 0
DWIDTH 10 0
BBX 8 14 1 0
BITMAP
0C
08
DB
E3
00
E7
E7
E3
E3
E3
E3
E7
7E
3C
ENDCHAR
STARTCHAR 03B1
ENCODING 945
SWIDTH 660 0
DWIDTH 11 0
BBX 10 9 1 0
BITMAP
3F00
7F00
E300
E300
E300
E300
E380
7F80
39C0
ENDCHAR
STARTCHAR 03B2
ENCODING 946
SWIDTH 660 0
DWIDTH 11 0
BBX 9 15 1 -3
BITMAP
3E00
7F00
E380
E380
E300
EF00
EF00
E380
E180
E380
FF80
FF00
E000
E000
E000
ENDCHAR
STARTCHAR 03B3
ENCODING 947
SWIDTH 660 0
DWIDTH 11 0
BBX 9 12 1 -3
BITMAP
E380
E300
6700
7600
7600
3E00
3C00
1C00
1C00
1C00
1C00
1C00
ENDCHAR
STARTCHAR 03B4
ENCODING 948
SWIDTH 660 0
DWIDTH 11 0
BBX 9 13 1 0
BITMAP
3E00
7E00
6000
7000
3E00
7F00
E380
E380
C380
E380
E380
7F00
3E00
ENDCHAR
STARTCHAR 03B5
ENCODING 949
SWIDTH 660 0
DWIDTH 11 0
BBX 9 9 1 0
BITMAP
3E00
FF00
E380
7C00
7C00
E000
E380
FF00
3E00
ENDCHAR
STARTCHAR 03B6
ENCODING 950
SWIDTH 600 0
DWIDTH 10 0
BBX 8 15 1 -3
BITMAP
FF
FF
0E
1C
38
70
60
E0
E0
E0
7C
3E
07
06
0C
ENDCHAR
STARTCHAR 03B7
ENCODING 951
SWIDTH 660 0
DWIDTH 11 0
BBX 9 12 1 -3
BITMAP
EE00
FF00
E380
E380
E380
E380
E380
E380
E380
0380
0380
0380
ENDCHAR
STARTCHAR 03B8
ENCODING 952
SWIDTH 660 0
DWIDTH 11 0
BBX 9 12 1 0
BITMAP
3E00
7F00
E300
E380
E380
FF80
FF80
E380
E380
E300
7F00
3E00
ENDCHAR
STARTCHAR 03B9
ENCODING 953
SWIDTH 360 0
DWIDTH 6 0
BBX 4 9 1 0
BITMAP
E0
E0
E0
E0
E0
E0
E0
F0
70
ENDCHAR
STARTCHAR 03BA
ENCODING 954
SWIDTH 660 0
DWIDTH 11 0
BBX 9 9 1 0
BITMAP
E380
E700
EE00
FE00
FC00
FE00
EF00
E700
E380
ENDCHAR
STARTCHAR 03BB
ENCODING 955
SWIDTH 720 0
DWIDTH 12 0
BBX 10 13 1 0
BITMAP
7000
7800
3800
1C00
1C00
1C00
3E00
3600
3700
7700
6380
E3C0
E1C0
ENDCHAR
STARTCHAR 03BC
ENCODING 956
SWIDTH 660 0
DWIDTH 11 0
BBX 9 12 1 -3
BITMAP
E380
E380
E380
E380
E380
E380
E380
FF80
FF80
E000
E000
E000
ENDCHAR
STARTCHAR 03BD
ENCODING 957
SWIDTH 660 0
DWIDTH 11 0
BBX 9 9 1 0
BITMAP
E380
E300
6700
6600
7600
3E00
3C00
3C00
1C00
ENDCHAR
STARTCHAR 03BE
ENCODING 958
SWIDTH 600 0
DWIDTH 10 0
BBX 8 15 1 -3
BITMAP
3F
7E
60
60
7E
7E
E0
C0
C0
E0
7E
1F
07
07
06
ENDCHAR
STARTCHAR 03BF
ENCODING 959
SWIDTH 660 0
DWIDTH 11 0
BBX 9 9 1 0
BITMAP
3E00
7F00
E380
E380
E180
E380
E380
7F00
3E00
ENDCHAR
STARTCHAR 03C0
ENCODING 960
SWIDTH 780 0
DWIDTH 13 0
BBX 11 9 1 0
BITMAP
FFE0
FFE0
7380
7380
7380
7380
7380
71E0
71E0
ENDCHAR
STARTCHAR 03C1
ENCODING 961
SWIDTH 660 0
DWIDTH 11 0
BBX 9 12 1 -3
BITMAP
3E00
7F00
E300
E380
E380
E380
E380
FF00
FE00
E000
E000
E000
ENDCHAR
STARTCHAR 03C2
ENCODING 962
SWIDTH 600 0
DWIDTH 10 0
BBX 8 12 1 -3
BITMAP
3E
7F
E3
E3
E0
E0
E0
7C
3E
06
06
0C
ENDCHAR
STARTCHAR 03C3
ENCODING 963
SWIDTH 720 0
DWIDTH 12 0
BBX 10 9 1 0
BITMAP
3FC0
7FC0
E300
E380
E380
E380
E380
7F00
3E00
ENDCHAR
STARTCHAR 03C4
ENCODING 964
SWIDTH 660 0
DWIDTH 11 0
BBX 9 9 1 0
BITMAP
FF80
FF80
1800
1800
1800
1800
1800
1E00
0E00
ENDCHAR
STARTCHAR 03C5
ENCODING 965
SWIDTH 600 0
DWIDTH 10 0
BBX 8 9 1 0
BITMAP
E7
E7
E3
E3
E3
E3
E7
7E
3C
ENDCHAR
STARTCHAR 03C6
ENCODING 966
SWIDTH 900 0
DWIDTH 15 0
BBX 13 13 1 -4
BITMAP
63C0
77E0
E770
E730
E738
E730
F770
7FE0
1FC0
0700
0700
0700
0700
ENDCHAR
STARTCHAR 03C7
ENCODING 967
SWIDTH 660 0
DWIDTH 11 0
BBX 9 9 1 0
BITMAP
E300
7700
7E00
3E00
1C00
3E00
7600
7700
E380
ENDCHAR
STARTCHAR 03C8
ENCODING 968
SWIDTH 840 0
DWIDTH 14 0
BBX 12 13 1 -4
BITMAP
E670
E670
E630
E630
E630
E630
7670
7FE0
1FC0
0600
0600
0600
0600
ENDCHAR
STARTCHAR 03C9
ENCODING 969
SWIDTH 960 0
DWIDTH 16 0
BBX 14 9 1 0
BITMAP
7038
E038
E718
E718
E71C
E718
E7B8
7FF8
3CF0
ENDCHAR
STARTCHAR 03CA
ENCODING 970
SWIDTH 480 0
DWIDTH 8 0
BBX 7 12 1 0
BITMAP
CC
CE
00
30
30
30
30
30
30
30
3C
1C
ENDCHAR
STARTCHAR 03CB
ENCODING 971
SWIDTH 600 0
DWIDTH 10 0
BBX 8 12 1 0
BITMAP
66
66
00
E7
E7
E3
E3
E3
E3
E7
7E
3C
ENDCHAR
STARTCHAR 03CC
ENCODING 972
SWIDTH 660 0
DWIDTH 11 0
BBX 9 13 1 0
BITMAP
0C00
0C00
0800
0000
3E00
7F00
E380
E380
C380
E380
E380
7F00
3E00
ENDCHAR
STARTCHAR 03CD
ENCODING 973
SWIDTH 600 0
DWIDTH 10 0
BBX 8 13 1 0
BITMAP
0C
18
18
00
E7
E7
E3
E3
E3
E3
E7
7E
3C
ENDCHAR
STARTCHAR 03CE
ENCODING 974
SWIDTH 960 0
DWIDTH 16 0
BBX 13 13 1 0
BITMAP
0300
0300
0200
0000
7030
E038
E718
E718
E718
E718
E738
7FF8
3CF0
ENDCHAR
STARTCHAR 03D1
ENCODING 977
SWIDTH 720 0
DWIDTH 12 0
BBX 10 12 1 0
BITMAP
1E00
3F00
3B80
3380
3B80
1FC0
CFC0
C380
C380
E700
7F00
3E00
ENDCHAR
STARTCHAR 03D2
ENCODING 978
SWIDTH 780 0
DWIDTH 13 0
BBX 11 12 1 0
BITMAP
E0E0
F1E0
7180
3380
3B00
1B00
1F00
0E00
0E00
0E00
0E00
0E00
ENDCHAR
STARTCHAR 03D6
ENCODING 982
SWIDTH 1020 0
DWIDTH 17 0
BBX 15 9 1 0
BITMAP
FFFE
FFFE
601C
E39C
E39C
639C
779C
7FF8
3CF0
ENDCHAR
STARTCHAR 0400
ENCODING 1024
SWIDTH 660 0
DWIDTH 11 0
BBX 9 16 1 0
BITMAP
7000
3800
1C00
0000
FF80
FF80
E000
E000
E000
FF00
FF00
E000
E000
E000
FF80
FF80
ENDCHAR
STARTCHAR 0401
ENCODING 1025
SWIDTH 660 0
DWIDTH 11 0
BBX 9 15 1 0
BITMAP
3300
7300
0000
FF80
FF80
E000
E000
E000
FF00
FF00
E000
E000
E000
FF80
FF80
ENDCHAR
STARTCHAR 0402
ENCODING 1026
SWIDTH 900 0
DWIDTH 15 0
BBX 13 12 1 0
BITMAP
FFC0
FFC0
1C00
1C00
1C00
1FE0
1FF0
1C38
1C38
1C30
1CF0
1CC0
ENDCHAR
STARTCHAR 0403
ENCODING 1027
SWIDTH 660 0
DWIDTH 11 0
BBX 9 16 1 0
BITMAP
0700
0E00
0C00
0000
FF80
FF80
E000
E000
E000
E000
E000
E000
E000
E000
E000
E000
ENDCHAR
STARTCHAR 0404
ENCODING 1028
SWIDTH 780 0
DWIDTH 13 0
BBX 10 12 1 0
BITMAP
1F00
7F80
71C0
E0C0
E000
FE00
FE00
E000
E0C0
71C0
7F80
1F00
ENDCHAR
STARTCHAR 0405
ENCODING 1029
SWIDTH 720 0
DWIDTH 12 0
BBX 10 12 1 0
BITMAP
3F00
7F80
E1C0
E1C0
F000
7E00
1F80
03C0
E1C0
E1C0
7F80
3F00
ENDCHAR
STARTCHAR 0406
ENCODING 1030
SWIDTH 300 0
DWIDTH 5 0
BBX 3 12 1 0
BITMAP
E0
E0
E0
E0
E0
E0
E0
E0
E0
E0
E0
E0
ENDCHAR
STARTCHAR 0407
ENCODING 1031
SWIDTH 480 0
DWIDTH 8 0
BBX 6 15 1 0
BITMAP
CC
CC
00
30
30
30
30
30
30
30
30
30
30
30
30
ENDCHAR
STARTCHAR 0408
ENCODING 1032
SWIDTH 660 0
DWIDTH 11 0
BBX 9 12 1 0
BITMAP
0380
0380
0380
0380
0380
0380
0380
0380
E380
E700
7F00
3E00
ENDCHAR
STARTCHAR 0409
ENCODING 1033
SWIDTH 1200 0
DWIDTH 20 0
BBX 18 12 1 0
BITMAP
1FE000
1FE000
186000
186000
187F00
187F80
1861C0
3860C0
3860C0
3861C0
F07F80
E07F00
ENDCHAR
STARTCHAR 040A
ENCODING 1034
SWIDTH 1200 0
DWIDTH 20 0
BBX 18 12 1 0
BITMAP
E0E000
E0E000
E0E000
E0E000
E0FE00
FFFF80
FFE3C0
E0E1C0
E0E1C0
E0E3C0
E0FF80
E0FF00
ENDCHAR
STARTCHAR 040B
ENCODING 1035
SWIDTH 900 0
DWIDTH 15 0
BBX 13 12 1 0
BITMAP
FFC0
FFC0
1800
1800
1FC0
1FF0
1870
1830
1838
1838
1838
1838
ENDCHAR
STARTCHAR 040C
ENCODING 1036
SWIDTH 780 0
DWIDTH 13 0
BBX 11 16 1 0
BITMAP
0700
0E00
1C00
0000
E1C0
E3C0
E780
EF00
EE00
FC00
FE00
FF00
E700
E380
E1C0
E1E0
ENDCHAR
STARTCHAR 040D
ENCODING 1037
SWIDTH 780 0
DWIDTH 13 0
BBX 11 16 1 0
BITMAP
3800
1C00
0E00
0000
E0E0
E1E0
E3E0
E3E0
E7E0
EEE0
EEE0
FCE0
F8E0
F8E0
F0E0
E0E0
ENDCHAR
STARTCHAR 040E
ENCODING 1038
SWIDTH 720 0
DWIDTH 12 0
BBX 11 16 1 0
BITMAP
3100
3F00
1E00
0000
E0E0
E1C0
71C0
7380
3B80
1B00
1F00
0E00
0E00
0C00
3C00
3800
ENDCHAR
STARTCHAR 040F
ENCODING 1039
SWIDTH 780 0
DWIDTH 13 0
BBX 11 15 1 -3
BITMAP
E0E0
E0E0
E0E0
E0E0
E0E0
E0E0
E0E0
E0E0
E0E0
E0E0
FFE0
FFE0
0E00
0E00
0E00
ENDCHAR
STARTCHAR 0410
ENCODING 1040
SWIDTH 840 0
DWIDTH 14 0
BBX 12 12 1 0
BITMAP
0E00
0F00
0F00
1F00
1B80
3980
31C0
3FC0
7FE0
60E0
E060
E070
ENDCHAR
STARTCHAR 0411
ENCODING 1041
SWIDTH 720 0
DWIDTH 12 0
BBX 10 12 1 0
BITMAP
FF80
FF80
E000
E000
FF00
FF80
E1C0
E1C0
E1C0
E1C0
FF80
FF00
ENDCHAR
STARTCHAR 0412
ENCODING 1042
SWIDTH 720 0
DWIDTH 12 0
BBX 10 12 1 0
BITMAP
FF00
FF80
E3C0
E1C0
E180
FF80
FF80
E1C0
E1C0
E1C0
FF80
FF00
ENDCHAR
STARTCHAR 0413
ENCODING 1043
SWIDTH 660 0
DWIDTH 11 0
BBX 9 12 1 0
BITMAP
FF80
FF80
E000
E000
E000
E000
E000
E000
E000
E000
E000
E000
ENDCHAR
STARTCHAR 0414
ENCODING 1044
SWIDTH 900 0
DWIDTH 15 0
BBX 13 15 1 -3
BITMAP
1FF0
1FF0
1C70
1870
1870
1870
1870
3870
3870
7070
FFF8
FFF8
E038
E038
E038
ENDCHAR
STARTCHAR 0415
ENCODING 1045
SWIDTH 660 0
DWIDTH 11 0
BBX 9 12 1 0
BITMAP
FF80
FF80
E000
E000
E000
FF00
FF00
E000
E000
E000
FF80
FF80
ENDCHAR
STARTCHAR 0416
ENCODING 1046
SWIDTH 1200 0
DWIDTH 20 0
BBX 18 12 1 0
BITMAP
F1C380
71C780
39C700
39CE00
1DCE00
0FFC00
1FFE00
3DCE00
39C700
71C700
71C380
E1C3C0
ENDCHAR
STARTCHAR 0417
ENCODING 1047
SWIDTH 720 0
DWIDTH 12 0
BBX 10 12 1 0
BITMAP
3F00
7F80
E380
E1C0
0380
1F00
1F80
01C0
E1C0
E3C0
7F80
3F00
ENDCHAR
STARTCHAR 0418
ENCODING 1048
SWIDTH 780 0
DWIDTH 13 0
BBX 11 12 1 0
BITMAP
E0E0
E1E0
E3E0
E3E0
E7E0
EEE0
EEE0
FCE0
F8E0
F8E0
F0E0
E0E0
ENDCHAR
STARTCHAR 0419
ENCODING 1049
SWIDTH 780 0
DWIDTH 13 0
BBX 11 16 1 0
BITMAP
3180
1F00
0F00
0000
E0E0
E1E0
E3E0
E3E0
E7E0
EEE0
EEE0
FCE0
F8E0
F8E0
F0E0
E0E0
ENDCHAR
STARTCHAR 041A
ENCODING 1050
SWIDTH 780 0
DWIDTH 13 0
BBX 11 12 1 0
BITMAP
E1C0
E3C0
E380
E700
EE00
FE00
FE00
E700
E780
E380
E1C0
E0E0
ENDCHAR
STARTCHAR 041B
ENCODING 1051
SWIDTH 840 0
DWIDTH 14 0
BBX 11 12 1 0
BITMAP
3FE0
3FE0
3860
3860
3860
3860
3860
3860
3860
7060
F060
E060
ENDCHAR
STARTCHAR 041C
ENCODING 1052
SWIDTH 960 0
DWIDTH 16 0
BBX 14 12 1 0
BITMAP
F03C
F03C
F83C
F87C
F87C
ECFC
ECDC
EEDC
E79C
E79C
E39C
E31C
ENDCHAR
STARTCHAR 041D
ENCODING 1053
SWIDTH 780 0
DWIDTH 13 0
BBX 11 12 1 0
BITMAP
E0E0
E0E0
E0E0
E0E0
E0E0
FFE0
FFE0
E0E0
E0E0
E0E0
E0E0
E0E0
ENDCHAR
STARTCHAR 041E
ENCODING 1054
SWIDTH 780 0
DWIDTH 13 0
BBX 11 12 1 0
BITMAP
1F00
3F80
71C0
E0E0
E0E0
E0E0
E0E0
E0E0
E0E0
71C0
3F80
1F00
ENDCHAR
STARTCHAR 041F
ENCODING 1055
SWIDTH 780 0
DWIDTH 13 0
BBX 11 12 1 0
BITMAP
FFE0
FFE0
E0E0
E0E0
E0E0
E0E0
E0E0
E0E0
E0E0
E0E0
E0E0
E0E0
ENDCHAR
STARTCHAR 0420
ENCODING 1056
SWIDTH 720 0
DWIDTH 12 0
BBX 10 12 1 0
BITMAP
FF00
FF80
E1C0
E1C0
E1C0
E1C0
FF80
FF00
E000
E000
E000
E000
ENDCHAR
STARTCHAR 0421
ENCODING 1057
SWIDTH 780 0
DWIDTH 13 0
BBX 10 12 1 0
BITMAP
1F00
7F80
71C0
E0C0
E000
E000
E000
E000
E0C0
71C0
7F80
1F00
ENDCHAR
STARTCHAR 0422
ENCODING 1058
SWIDTH 720 0
DWIDTH 12 0
BBX 10 12 1 0
BITMAP
FFC0
FFC0
0C00
0C00
0C00
0C00
0C00
0C00
0C00
0C00
0C00
0C00
ENDCHAR
STARTCHAR 0423
ENCODING 1059
SWIDTH 720 0
DWIDTH 12 0
BBX 11 12 1 0
BITMAP
E0E0
E1C0
71C0
7380
3B80
1B00
1F00
0E00
0E00
0C00
3C00
3800
ENDCHAR
STARTCHAR 0424
ENCODING 1060
SWIDTH 960 0
DWIDTH 16 0
BBX 14 13 1 -1
BITMAP
0700
0700
3FE0
7FF0
E738
E718
C71C
E718
F738
7FF0
1FE0
0700
0700
ENDCHAR
STARTCHAR 0425
ENCODING 1061
SWIDTH 780 0
DWIDTH 13 0
BBX 11 12 1 0
BITMAP
E0E0
71C0
7380
3B80
1F00
1E00
1F00
1F00
3B80
7380
71C0
E0E0
ENDCHAR
STARTCHAR 0426
ENCODING 1062
SWIDTH 840 0
DWIDTH 14 0
BBX 13 15 1 -3
BITMAP
E0E0
E0E0
E0E0
E0E0
E0E0
E0E0
E0E0
E0E0
E0E0
E0E0
FFF8
FFF8
0038
0030
0030
ENDCHAR
STARTCHAR 0427
ENCODING 1063
SWIDTH 780 0
DWIDTH 13 0
BBX 10 12 1 0
BITMAP
E0C0
E0C0
E0C0
E0C0
E0C0
E0C0
7FC0
3FC0
00C0
00C0
00C0
00C0
ENDCHAR
STARTCHAR 0428
ENCODING 1064
SWIDTH 1080 0
DWIDTH 18 0
BBX 16 12 1 0
BITMAP
E187
E187
E187
E187
E187
E187
E187
E187
E187
E187
FFFF
FFFF
ENDCHAR
STARTCHAR 0429
ENCODING 1065
SWIDTH 1140 0
DWIDTH 19 0
BBX 17 15 1 -3
BITMAP
E18700
E18700
E18700
E18700
E18700
E18700
E18700
E18700
E18700
E18700
FFFF80
FFFF80
000180
000180
000180
ENDCHAR
STARTCHAR 042A
ENCODING 1066
SWIDTH 900 0
DWIDTH 15 0
BBX 13 12 1 0
BITMAP
FC00
FC00
1C00
1C00
1FE0
1FF0
1C38
1C38
1C38
1C38
1FF0
1FE0
ENDCHAR
STARTCHAR 042B
ENCODING 1067
SWIDTH 960 0
DWIDTH 16 0
BBX 14 12 1 0
BITMAP
E01C
E01C
E01C
E01C
FF1C
FF9C
E1DC
E1DC
E1DC
E1DC
FF9C
FF1C
ENDCHAR
STARTCHAR 042C
ENCODING 1068
SWIDTH 720 0
DWIDTH 12 0
BBX 10 12 1 0
BITMAP
E000
E000
E000
E000
FF00
FF80
E1C0
E1C0
E1C0
E1C0
FF80
FF00
ENDCHAR
STARTCHAR 042D
ENCODING 1069
SWIDTH 780 0
DWIDTH 13 0
BBX 11 12 1 0
BITMAP
3F00
7F80
E1C0
E1C0
00C0
0FE0
0FE0
00C0
E0C0
E1C0
7F80
3F00
ENDCHAR
STARTCHAR 042E
ENCODING 1070
SWIDTH 1020 0
DWIDTH 17 0
BBX 15 12 1 0
BITMAP
E1F0
E3FC
E79E
E60E
EE06
FE06
FE06
EE06
E70E
E79E
E3FC
E1F0
ENDCHAR
STARTCHAR 042F
ENCODING 1071
SWIDTH 720 0
DWIDTH 12 0
BBX 10 12 1 0
BITMAP
1FC0
7FC0
71C0
E1C0
E1C0
71C0
7FC0
3FC0
39C0
71C0
E1C0
E1C0
ENDCHAR
STARTCHAR 0430
ENCODING 1072
SWIDTH 600 0
DWIDTH 10 0
BBX 8 9 1 0
BITMAP
3E
7F
E7
1F
7F
E3
E7
FF
7B
ENDCHAR
STARTCHAR 0431
ENCODING 1073
SWIDTH 660 0
DWIDTH 11 0
BBX 9 13 1 0
BITMAP
0300
1F00
7C00
6000
DE00
FF00
E380
E380
E380
E380
E380
7F00
3E00
ENDCHAR
STARTCHAR 0432
ENCODING 1074
SWIDTH 660 0
DWIDTH 11 0
BBX 9 9 1 0
BITMAP
FE00
FF00
E300
FF00
FF00
E380
E380
FF80
FE00
ENDCHAR
STARTCHAR 0433
ENCODING 1075
SWIDTH 540 0
DWIDTH 9 0
BBX 7 9 1 0
BITMAP
FE
FE
E0
E0
E0
E0
E0
E0
E0
ENDCHAR
STARTCHAR 0434
ENCODING 1076
SWIDTH 780 0
DWIDTH 13 0
BBX 11 12 1 -3
BITMAP
3F80
3F80
3980
3980
3980
3180
7180
FFE0
FFE0
E0E0
E0E0
E0E0
ENDCHAR
STARTCHAR 0435
ENCODING 1077
SWIDTH 660 0
DWIDTH 11 0
BBX 9 9 1 0
BITMAP
3E00
7F00
E300
FF80
FF80
E000
E100
7F80
3E00
ENDCHAR
STARTCHAR 0436
ENCODING 1078
SWIDTH 1020 0
DWIDTH 17 0
BBX 15 9 1 0
BITMAP
E39E
739C
73B8
3BB8
1FF0
3FF8
73B8
739C
E39E
ENDCHAR
STARTCHAR 0437
ENCODING 1079
SWIDTH 600 0
DWIDTH 10 0
BBX 8 9 1 0
BITMAP
3C
FF
E7
1E
1E
07
E7
FF
7C
ENDCHAR
STARTCHAR 0438
ENCODING 1080
SWIDTH 660 0
DWIDTH 11 0
BBX 9 9 1 0
BITMAP
E380
E780
E780
EF80
FB80
FB80
F380
F380
E380
ENDCHAR
STARTCHAR 0439
ENCODING 1081
SWIDTH 660 0
DWIDTH 11 0
BBX 9 13 1 0
BITMAP
6300
3E00
3C00
0000
E380
E780
E780
EF80
FB80
FB80
F380
F380
E380
ENDCHAR
STARTCHAR 043A
ENCODING 1082
SWIDTH 660 0
DWIDTH 11 0
BBX 9 9 1 0
BITMAP
E380
E700
EE00
FE00
FC00
FE00
EF00
E700
E380
ENDCHAR
STARTCHAR 043B
ENCODING 1083
SWIDTH 660 0
DWIDTH 11 0
BBX 9 9 1 0
BITMAP
3F80
3F80
3180
3180
3180
3180
7180
E180
C180
ENDCHAR
STARTCHAR 043C
ENCODING 1084
SWIDTH 840 0
DWIDTH 14 0
BBX 12 9 1 0
BITMAP
F0F0
F0F0
F1F0
F9F0
F9F0
EF70
EF70
EE70
E670
ENDCHAR
STARTCHAR 043D
ENCODING 1085
SWIDTH 660 0
DWIDTH 11 0
BBX 9 9 1 0
BITMAP
E380
E380
E380
E380
FF80
FF80
E380
E380
E380
ENDCHAR
STARTCHAR 043E
ENCODING 1086
SWIDTH 660 0
DWIDTH 11 0
BBX 9 9 1 0
BITMAP
3E00
7F00
E380
E380
E180
E380
E380
7F00
3E00
ENDCHAR
STARTCHAR 043F
ENCODING 1087
SWIDTH 660 0
DWIDTH 11 0
BBX 9 9 1 0
BITMAP
FF80
FF80
E380
E380
E380
E380
E380
E380
E380
ENDCHAR
STARTCHAR 0440
ENCODING 1088
SWIDTH 660 0
DWIDTH 11 0
BBX 9 12 1 -3
BITMAP
FE00
FF00
E380
E380
E380
E380
E380
FF00
FE00
E000
E000
E000
ENDCHAR
STARTCHAR 0441
ENCODING 1089
SWIDTH 600 0
DWIDTH 10 0
BBX 8 9 1 0
BITMAP
3E
7F
E3
E3
E0
E0
E3
7F
3E
ENDCHAR
STARTCHAR 0442
ENCODING 1090
SWIDTH 660 0
DWIDTH 11 0
BBX 9 9 1 0
BITMAP
FF80
FF80
1800
1800
1800
1800
1800
1800
1800
ENDCHAR
STARTCHAR 0443
ENCODING 1091
SWIDTH 660 0
DWIDTH 11 0
BBX 9 12 1 -3
BITMAP
E380
E300
6700
7600
7600
3E00
3C00
1C00
1800
1800
7800
7000
ENDCHAR
STARTCHAR 0444
ENCODING 1092
SWIDTH 840 0
DWIDTH 14 0
BBX 12 16 1 -3
BITMAP
0600
0600
0600
0600
3FC0
7FE0
E670
E670
E670
E670
E670
7FE0
3FC0
0600
0600
0600
ENDCHAR
STARTCHAR 0445
ENCODING 1093
SWIDTH 660 0
DWIDTH 11 0
BBX 9 9 1 0
BITMAP
E300
7700
7E00
3E00
1C00
3E00
7E00
6700
E380
ENDCHAR
STARTCHAR 0446
ENCODING 1094
SWIDTH 720 0
DWIDTH 12 0
BBX 10 12 1 -3
BITMAP
E380
E380
E380
E380
E380
E380
E380
FFC0
FFC0
01C0
01C0
01C0
ENDCHAR
STARTCHAR 0447
ENCODING 1095
SWIDTH 660 0
DWIDTH 11 0
BBX 8 9 1 0
BITMAP
E3
E3
E3
E3
FF
3F
03
03
03
ENDCHAR
STARTCHAR 0448
ENCODING 1096
SWIDTH 900 0
DWIDTH 15 0
BBX 13 9 1 0
BITMAP
E718
E718
E718
E718
E718
E718
E718
FFF8
FFF8
ENDCHAR
STARTCHAR 0449
ENCODING 1097
SWIDTH 1020 0
DWIDTH 17 0
BBX 15 12 1 -3
BITMAP
E718
E718
E718
E718
E718
E718
E718
FFFE
FFFE
0006
0006
0006
ENDCHAR
STARTCHAR 044A
ENCODING 1098
SWIDTH 780 0
DWIDTH 13 0
BBX 11 9 1 0
BITMAP
F800
F800
1800
1FC0
1FE0
18E0
18E0
1FE0
1F80
ENDCHAR
STARTCHAR 044B
ENCODING 1099
SWIDTH 900 0
DWIDTH 15 0
BBX 13 9 1 0
BITMAP
E038
E038
E038
FE38
FF38
E3B8
E3B8
FF38
FE38
ENDCHAR
STARTCHAR 044C
ENCODING 1100
SWIDTH 660 0
DWIDTH 11 0
BBX 9 9 1 0
BITMAP
E000
E000
E000
FE00
FF00
E380
E380
FF00
FE00
ENDCHAR
STARTCHAR 044D
ENCODING 1101
SWIDTH 600 0
DWIDTH 10 0
BBX 8 9 1 0
BITMAP
3C
FE
E7
1F
1F
C3
E7
7E
3C
ENDCHAR
STARTCHAR 044E
ENCODING 1102
SWIDTH 900 0
DWIDTH 15 0
BBX 13 9 1 0
BITMAP
E3E0
E7F0
EE38
FE18
FE18
EE18
E638
E7F0
E3E0
ENDCHAR
STARTCHAR 044F
ENCODING 1103
SWIDTH 660 0
DWIDTH 11 0
BBX 8 9 1 0
BITMAP
3F
7F
E3
E3
7F
3F
73
63
E3
ENDCHAR
STARTCHAR 0450
ENCODING 1104
SWIDTH 660 0
DWIDTH 11 0
BBX 9 13 1 0
BITMAP
7000
3800
1800
0000
3E00
7F00
E300
FF80
FF80
E000
E100
7F80
3E00
ENDCHAR
STARTCHAR 0451
ENCODING 1105
SWIDTH 660 0
DWIDTH 11 0
BBX 9 12 1 0
BITMAP
6600
6600
0000
3E00
7F00
E300
FF80
FF80
E000
E100
7F80
3E00
ENDCHAR
STARTCHAR 0452
ENCODING 1106
SWIDTH 720 0
DWIDTH 12 0
BBX 9 16 1 -3
BITMAP
7000
FC00
FC00
7000
7F00
7F80
7180
7180
7180
7180
7180
7180
7180
0180
0780
0700
ENDCHAR
STARTCHAR 0453
ENCODING 1107
SWIDTH 540 0
DWIDTH 9 0
BBX 7 13 1 0
BITMAP
1C
18
30
00
FE
FE
E0
E0
E0
E0
E0
E0
E0
ENDCHAR
STARTCHAR 0454
ENCODING 1108
SWIDTH 600 0
DWIDTH 10 0
BBX 8 9 1 0
BITMAP
3E
7F
E3
E3
F8
F8
E3
7F
3E
ENDCHAR
STARTCHAR 0455
ENCODING 1109
SWIDTH 600 0
DWIDTH 10 0
BBX 8 9 1 0
BITMAP
3C
7F
E7
F0
7E
0F
C3
FF
3C
ENDCHAR
STARTCHAR 0456
ENCODING 1110
SWIDTH 300 0
DWIDTH 5 0
BBX 3 12 1 0
BITMAP
E0
E0
40
E0
E0
E0
E0
E0
E0
E0
E0
E0
ENDCHAR
STARTCHAR 0457
ENCODING 1111
SWIDTH 480 0
DWIDTH 8 0
BBX 6 12 1 0
BITMAP
CC
CC
00
30
30
30
30
30
30
30
30
30
ENDCHAR
STARTCHAR 0458
ENCODING 1112
SWIDTH 360 0
DWIDTH 6 0
BBX 4 15 1 -3
BITMAP
30
70
20
30
30
30
30
30
30
30
30
30
70
F0
E0
ENDCHAR
STARTCHAR 0459
ENCODING 1113
SWIDTH 1020 0
DWIDTH 17 0
BBX 15 9 1 0
BITMAP
3F80
3F80
3380
33FC
33FE
338E
738E
F3FE
E3F8
ENDCHAR
STARTCHAR 045A
ENCODING 1114
SWIDTH 1020 0
DWIDTH 17 0
BBX 15 9 1 0
BITMAP
E380
E380
E380
FFF8
FFFC
E38E
E38C
E3FC
E3F8
ENDCHAR
STARTCHAR 045B
ENCODING 1115
SWIDTH 660 0
DWIDTH 11 0
BBX 9 13 1 0
BITMAP
7000
FC00
FC00
7000
7F00
7F80
7380
7180
7180
7180
7180
7180
7180
ENDCHAR
STARTCHAR 045C
ENCODING 1116
SWIDTH 660 0
DWIDTH 11 0
BBX 9 13 1 0
BITMAP
0700
0E00
1C00
0000
E780
E700
EE00
FE00
FC00
FE00
EF00
E700
E380
ENDCHAR
STARTCHAR 045D
ENCODING 1117
SWIDTH 660 0
DWIDTH 11 0
BBX 9 13 1 0
BITMAP
7000
3800
1800
0400
E380
E780
E780
EF80
FB80
FB80
F380
F380
E380
ENDCHAR
STARTCHAR 045E
ENCODING 1118
SWIDTH 660 0
DWIDTH 11 0
BBX 9 16 1 -3
BITMAP
6200
7E00
3C00
0000
E380
E300
6700
7600
7600
3E00
3C00
1C00
1800
1800
7800
7000
ENDCHAR
STARTCHAR 045F
ENCODING 1119
SWIDTH 660 0
DWIDTH 11 0
BBX 9 12 1 -3
BITMAP
E380
E380
E380
E380
E380
E380
E380
FF80
FF80
1C00
1C00
1C00
ENDCHAR
STARTCHAR 0460
ENCODING 1120
SWIDTH 1020 0
DWIDTH 17 0
BBX 15 12 1 0
BITMAP
E386
E386
E386
E386
E386
E386
E386
E386
E38E
E3CE
7FFC
3E78
ENDCHAR
STARTCHAR 0461
ENCODING 1121
SWIDTH 960 0
DWIDTH 16 0
BBX 13 9 1 0
BITMAP
E718
E718
E718
E718
E718
E718
E718
7FF8
3CF0
ENDCHAR
STARTCHAR 0462
ENCODING 1122
SWIDTH 780 0
DWIDTH 13 0
BBX 11 12 1 0
BITMAP
7000
FC00
FC00
7000
7F80
7FC0
70E0
70E0
70E0
70E0
7FC0
7F80
ENDCHAR
STARTCHAR 0463
ENCODING 1123
SWIDTH 720 0
DWIDTH 12 0
BBX 10 13 1 0
BITMAP
7000
7000
FC00
FC00
7000
7000
7F00
7F80
71C0
71C0
71C0
7F80
7F00
ENDCHAR
STARTCHAR 0464
ENCODING 1124
SWIDTH 1020 0
DWIDTH 17 0
BBX 15 12 1 0
BITMAP
E1F0
E3FC
E71E
E70E
E600
FFE0
FFE0
EE00
E60E
E70E
E3FC
E1F8
ENDCHAR
STARTCHAR 0465
ENCODING 1125
SWIDTH 840 0
DWIDTH 14 0
BBX 12 9 1 0
BITMAP
E3E0
E7F0
EE30
FF80
FF80
EE30
EE30
E7F0
E3E0
ENDCHAR
STARTCHAR 0466
ENCODING 1126
SWIDTH 840 0
DWIDTH 14 0
BBX 12 12 1 0
BITMAP
0E00
0F00
1F00
1F00
1B80
3980
39C0
3FC0
7FC0
66E0
E6E0
E670
ENDCHAR
STARTCHAR 0467
ENCODING 1127
SWIDTH 720 0
DWIDTH 12 0
BBX 10 9 1 0
BITMAP
1C00
1E00
3E00
3700
3700
7F00
7F80
ED80
EDC0
ENDCHAR
STARTCHAR 0468
ENCODING 1128
SWIDTH 1080 0
DWIDTH 18 0
BBX 16 12 1 0
BITMAP
E0E0
E0F0
E0F0
E1F8
E1B8
E198
E39C
FFFC
FFFE
E76E
E66E
EE67
ENDCHAR
STARTCHAR 0469
ENCODING 1129
SWIDTH 900 0
DWIDTH 15 0
BBX 13 9 1 0
BITMAP
E1C0
E1C0
E3E0
E360
E770
FFF0
FFF0
EEB8
EC98
ENDCHAR
STARTCHAR 046A
ENCODING 1130
SWIDTH 960 0
DWIDTH 16 0
BBX 14 12 1 0
BITMAP
3FF8
3FF0
1C60
0CE0
0FC0
3FF0
7FF8
E39C
E39C
E39C
E39C
E39C
ENDCHAR
STARTCHAR 046B
ENCODING 1131
SWIDTH 780 0
DWIDTH 13 0
BBX 11 9 1 0
BITMAP
7FC0
3FC0
1B80
1F00
7FC0
FFE0
EE60
EE60
EE60
ENDCHAR
STARTCHAR 046C
ENCODING 1132
SWIDTH 1260 0
DWIDTH 21 0
BBX 19 12 1 0
BITMAP
E1FFC0
E1FF80
E0E380
E07700
E07600
FFFF80
FFFFE0
E79CE0
E71CE0
E71C60
E71C60
E71C60
ENDCHAR
STARTCHAR 046D
ENCODING 1133
SWIDTH 1080 0
DWIDTH 18 0
BBX 16 9 1 0
BITMAP
E3FE
E1FE
E1DC
E0FC
FFFE
FFFF
E773
E773
E773
ENDCHAR
STARTCHAR 046E
ENCODING 1134
SWIDTH 600 0
DWIDTH 10 0
BBX 8 19 1 -3
BITMAP
67
3C
18
00
7C
7E
07
07
06
3E
3E
07
03
07
7F
FC
C0
E0
60
ENDCHAR
STARTCHAR 046F
ENCODING 1135
SWIDTH 600 0
DWIDTH 10 0
BBX 8 16 1 -3
BITMAP
E6
3C
18
00
7C
7E
06
3E
3E
07
07
7E
FC
C0
E0
60
ENDCHAR
STARTCHAR 0470
ENCODING 1136
SWIDTH 840 0
DWIDTH 14 0
BBX 12 12 1 0
BITMAP
E630
E630
E630
E630
E630
E670
F6F0
7FE0
1F80
0600
0600
0600
ENDCHAR
STARTCHAR 0471
ENCODING 1137
SWIDTH 840 0
DWIDTH 14 0
BBX 12 13 1 -4
BITMAP
E670
E670
E630
E630
E630
E630
7670
7FE0
1FC0
0600
0600
0600
0600
ENDCHAR
STARTCHAR 0472
ENCODING 1138
SWIDTH 780 0
DWIDTH 13 0
BBX 11 12 1 0
BITMAP
1F00
3F80
71C0
E0E0
E0E0
FFE0
FFE0
E0E0
E0E0
71C0
3F80
1F00
ENDCHAR
STARTCHAR 0473
ENCODING 1139
SWIDTH 660 0
DWIDTH 11 0
BBX 9 9 1 0
BITMAP
3E00
7F00
E380
E380
FF80
FF80
E380
7F00
3E00
ENDCHAR
STARTCHAR 0474
ENCODING 1140
SWIDTH 780 0
DWIDTH 13 0
BBX 11 12 1 0
BITMAP
E060
E0E0
60C0
71C0
7180
3180
3B80
3B00
1B00
1F00
1E00
0E00
ENDCHAR
STARTCHAR 0475
ENCODING 1141
SWIDTH 660 0
DWIDTH 11 0
BBX 9 9 1 0
BITMAP
E180
E380
6700
6600
7600
3C00
3C00
3C00
1800
ENDCHAR
STARTCHAR 0476
ENCODING 1142
SWIDTH 780 0
DWIDTH 13 0
BBX 11 15 1 0
BITMAP
7E00
3F00
0000
E060
E0E0
60C0
71C0
7180
3180
3B80
3B00
1B00
1F00
1E00
0E00
ENDCHAR
STARTCHAR 0477
ENCODING 1143
SWIDTH 660 0
DWIDTH 11 0
BBX 9 12 1 0
BITMAP
FC00
7600
0000
E180
E380
6700
7600
7600
3E00
3C00
1C00
1C00
ENDCHAR
STARTCHAR 0478
ENCODING 1144
SWIDTH 1380 0
DWIDTH 23 0
BBX 21 15 1 -3
BITMAP
1F0000
3F8000
71C000
E0EE38
E0EE30
E0E670
E0E770
E0E360
E0E3E0
71C3C0
3F81C0
1F01C0
000180
000780
000700
ENDCHAR
STARTCHAR 0479
ENCODING 1145
SWIDTH 1260 0
DWIDTH 21 0
BBX 19 12 1 -3
BITMAP
3E38E0
7F38C0
E399C0
E39DC0
E19D80
E38F80
E38F00
7F0700
3E0700
000600
001E00
001C00
ENDCHAR
STARTCHAR 047A
ENCODING 1146
SWIDTH 780 0
DWIDTH 13 0
BBX 11 14 1 -1
BITMAP
0400
1F00
3F80
75C0
E0E0
E0E0
E0E0
E0E0
E0E0
E0E0
75C0
3F80
1F00
0400
ENDCHAR
STARTCHAR 047B
ENCODING 1147
SWIDTH 660 0
DWIDTH 11 0
BBX 9 11 1 -1
BITMAP
0800
3E00
7F00
EB80
E380
E180
E380
EB80
7F00
3E00
0800
ENDCHAR
STARTCHAR 047C
ENCODING 1148
SWIDTH 1020 0
DWIDTH 17 0
BBX 15 15 1 0
BITMAP
0780
04F0
0100
3118
721C
E00E
E00E
E00E
E38E
E38E
E38E
E38E
E38E
7FFC
3EF8
ENDCHAR
STARTCHAR 047D
ENCODING 1149
SWIDTH 900 0
DWIDTH 15 0
BBX 13 12 1 0
BITMAP
0F00
09E0
0200
3260
7470
E038
E038
E738
E738
E738
7FF0
3DE0
ENDCHAR
STARTCHAR 047E
ENCODING 1150
SWIDTH 1020 0
DWIDTH 17 0
BBX 15 15 1 0
BITMAP
0FF0
0100
0000
E386
E386
E386
E386
E386
E386
E386
E386
E38E
E3CE
7FFC
3E78
ENDCHAR
STARTCHAR 047F
ENCODING 1151
SWIDTH 960 0
DWIDTH 16 0
BBX 13 12 1 0
BITMAP
1FC0
0300
0000
E718
E718
E718
E718
E718
E718
E718
7FF8
3CF0
ENDCHAR
STARTCHAR 0480
ENCODING 1152
SWIDTH 720 0
DWIDTH 12 0
BBX 10 15 1 -3
BITMAP
1F00
7F80
73C0
E1C0
E000
E000
E000
E000
E000
E000
7E00
3E00
0E00
0E00
0E00
ENDCHAR
STARTCHAR 0481
ENCODING 1153
SWIDTH 600 0
DWIDTH 10 0
BBX 8 12 1 -3
BITMAP
3E
7F
E3
E3
E0
E0
E0
7C
3C
1C
1C
1C
ENDCHAR
STARTCHAR 0482
ENCODING 1154
SWIDTH 660 0
DWIDTH 11 0
BBX 9 11 1 0
BITMAP
0100
0300
3A00
0E00
0F80
8880
F800
3800
2E00
6000
4000
ENDCHAR
STARTCHAR 0483
ENCODING 1155
SWIDTH 540 0
DWIDTH 9 0
BBX 6 3 1 10
BITMAP
04
FC
C0
ENDCHAR
STARTCHAR 0484
ENCODING 1156
SWIDTH 540 0
DWIDTH 9 0
BBX 7 2 1 11
BITMAP
1C
F6
ENDCHAR
STARTCHAR 0485
ENCODING 1157
SWIDTH 240 0
DWIDTH 4 0
BBX 2 3 1 11
BITMAP
C0
C0
40
ENDCHAR
STARTCHAR 0486
ENCODING 1158
SWIDTH 240 0
DWIDTH 4 0
BBX 2 3 1 11
BITMAP
C0
C0
80
ENDCHAR
STARTCHAR 0488
ENCODING 1160
SWIDTH 1140 0
DWIDTH 19 0
BBX 17 15 1 -3
BITMAP
01C000
014000
380600
680900
000000
000000
E00380
900280
000000
000000
300E00
480A00
000000
01C000
014000
ENDCHAR
STARTCHAR 0489
ENCODING 1161
SWIDTH 1080 0
DWIDTH 18 0
BBX 16 15 1 -3
BITMAP
0080
0080
3180
101C
1000
0000
0000
E007
0000
0000
0008
1808
2084
0080
0100
ENDCHAR
STARTCHAR 048A
ENCODING 1162
SWIDTH 900 0
DWIDTH 15 0
BBX 13 19 1 -3
BITMAP
3180
1F00
0E00
0000
E0E0
E1E0
E3E0
E3E0
E7E0
EEE0
EEE0
FCE0
F8E0
F8E0
F0F8
E0F8
0018
0030
0030
ENDCHAR
STARTCHAR 048B
ENCODING 1163
SWIDTH 720 0
DWIDTH 12 0
BBX 11 16 1 -3
BITMAP
6300
3E00
3C00
0000
E380
E780
E780
EF80
FB80
FB80
F380
F3E0
E3E0
00E0
00C0
01C0
ENDCHAR
STARTCHAR 048C
ENCODING 1164
SWIDTH 780 0
DWIDTH 13 0
BBX 11 12 1 0
BITMAP
7000
FC00
FC00
7000
7F80
7FC0
70E0
70E0
70E0
70E0
7FC0
7F80
ENDCHAR
STARTCHAR 048D
ENCODING 1165
SWIDTH 720 0
DWIDTH 12 0
BBX 10 13 1 0
BITMAP
7000
FC00
FC00
7000
7000
7000
7F00
7F80
71C0
71C0
71C0
7F80
7F00
ENDCHAR
STARTCHAR 048E
ENCODING 1166
SWIDTH 720 0
DWIDTH 12 0
BBX 10 12 1 0
BITMAP
FF00
FF80
E1C0
E1C0
E7C0
E3C0
FF80
FFC0
E000
E000
E000
E000
ENDCHAR
STARTCHAR 048F
ENCODING 1167
SWIDTH 660 0
DWIDTH 11 0
BBX 9 12 1 -3
BITMAP
FE00
FF00
E380
E380
E380
E780
E780
FF00
FF80
E000
E000
E000
ENDCHAR
STARTCHAR 0490
ENCODING 1168
SWIDTH 660 0
DWIDTH 11 0
BBX 9 15 1 0
BITMAP
0380
0380
0380
FF80
FF80
E000
E000
E000
E000
E000
E000
E000
E000
E000
E000
ENDCHAR
STARTCHAR 0491
ENCODING 1169
SWIDTH 540 0
DWIDTH 9 0
BBX 7 12 1 0
BITMAP
06
06
06
FE
FE
E0
E0
E0
E0
E0
E0
E0
ENDCHAR
STARTCHAR 0492
ENCODING 1170
SWIDTH 720 0
DWIDTH 12 0
BBX 10 12 1 0
BITMAP
7FC0
7FC0
7000
7000
7000
FC00
FC00
7000
7000
7000
7000
7000
ENDCHAR
STARTCHAR 0493
ENCODING 1171
SWIDTH 600 0
DWIDTH 10 0
BBX 8 9 1 0
BITMAP
7F
7F
70
FC
FC
70
70
70
70
ENDCHAR
STARTCHAR 0494
ENCODING 1172
SWIDTH 720 0
DWIDTH 12 0
BBX 10 15 1 -3
BITMAP
FF80
FF80
E000
E000
E000
FE00
FF80
E380
E1C0
E1C0
E1C0
E1C0
0380
0780
0600
ENDCHAR
STARTCHAR 0495
ENCODING 1173
SWIDTH 600 0
DWIDTH 10 0
BBX 8 11 1 -2
BITMAP
FE
FE
E0
FC
FE
E7
E3
E3
E7
0F
0E
ENDCHAR
STARTCHAR 0496
ENCODING 1174
SWIDTH 1260 0
DWIDTH 21 0
BBX 19 15 1 -3
BITMAP
F1C380
71C780
39C700
39CE00
1DCE00
0FFC00
1FFE00
3DCE00
39C700
71C700
71C3E0
E1C3E0
0000E0
0000E0
0000E0
ENDCHAR
STARTCHAR 0497
ENCODING 1175
SWIDTH 1080 0
DWIDTH 18 0
BBX 16 12 1 -3
BITMAP
E39E
739C
73B8
3BB8
1FF0
3FF8
73B8
739F
E39F
0007
0007
0007
ENDCHAR
STARTCHAR 0498
ENCODING 1176
SWIDTH 720 0
DWIDTH 12 0
BBX 10 16 1 -4
BITMAP
3E00
7F80
E380
E180
0380
1F00
1F80
0180
01C0
E3C0
7F80
3F00
0C00
0C00
0C00
0C00
ENDCHAR
STARTCHAR 0499
ENCODING 1177
SWIDTH 600 0
DWIDTH 10 0
BBX 8 13 1 -4
BITMAP
3C
FF
E7
1E
1E
07
E7
FF
7C
18
18
18
18
ENDCHAR
STARTCHAR 049A
ENCODING 1178
SWIDTH 840 0
DWIDTH 14 0
BBX 12 15 1 -3
BITMAP
E1C0
E3C0
E380
E700
EE00
FE00
FE00
E700
E780
E380
E1F0
E0F0
0070
0070
0070
ENDCHAR
STARTCHAR 049B
ENCODING 1179
SWIDTH 720 0
DWIDTH 12 0
BBX 10 12 1 -3
BITMAP
E380
E700
EE00
FE00
FC00
FE00
EF00
E7C0
E3C0
00C0
00C0
00C0
ENDCHAR
STARTCHAR 049C
ENCODING 1180
SWIDTH 780 0
DWIDTH 13 0
BBX 11 12 1 0
BITMAP
E0E0
E1C0
E1C0
EB80
EB00
FF00
FF00
EB80
EBC0
E1C0
E1E0
E0E0
ENDCHAR
STARTCHAR 049D
ENCODING 1181
SWIDTH 720 0
DWIDTH 12 0
BBX 10 9 1 0
BITMAP
E1C0
E380
FB80
FF00
FE00
FF00
FB80
E380
E1C0
ENDCHAR
STARTCHAR 049E
ENCODING 1182
SWIDTH 840 0
DWIDTH 14 0
BBX 12 12 1 0
BITMAP
70E0
FDE0
FDC0
7380
7700
7F00
7F00
7380
71C0
71C0
70E0
7070
ENDCHAR
STARTCHAR 049F
ENCODING 1183
SWIDTH 720 0
DWIDTH 12 0
BBX 10 13 1 0
BITMAP
7000
FC00
FC00
7000
71C0
7380
7700
7E00
7E00
7F00
7380
7380
71C0
ENDCHAR
STARTCHAR 04A0
ENCODING 1184
SWIDTH 960 0
DWIDTH 16 0
BBX 15 12 1 0
BITMAP
FE1C
FE38
0E78
0E70
0EE0
0FC0
0FE0
0E70
0E70
0E38
0E1C
0E1E
ENDCHAR
STARTCHAR 04A1
ENCODING 1185
SWIDTH 840 0
DWIDTH 14 0
BBX 12 9 1 0
BITMAP
FC70
FCE0
1DC0
1FC0
1F80
1FC0
1CE0
1CF0
1C70
ENDCHAR
STARTCHAR 04A2
ENCODING 1186
SWIDTH 900 0
DWIDTH 15 0
BBX 13 15 1 -3
BITMAP
E0E0
E0E0
E0E0
E0E0
E0E0
FFE0
FFE0
E0E0
E0E0
E0E0
E0F8
E0F8
0038
0038
0038
ENDCHAR
STARTCHAR 04A3
ENCODING 1187
SWIDTH 780 0
DWIDTH 13 0
BBX 11 12 1 -3
BITMAP
E380
E380
E380
E380
FF80
FF80
E380
E3E0
E3E0
00E0
00E0
00E0
ENDCHAR
STARTCHAR 04A4
ENCODING 1188
SWIDTH 1080 0
DWIDTH 18 0
BBX 16 12 1 0
BITMAP
E0FF
E0FF
E0E0
E0E0
E0E0
FFE0
FFE0
E0E0
E0E0
E0E0
E0E0
E0E0
ENDCHAR
STARTCHAR 04A5
ENCODING 1189
SWIDTH 840 0
DWIDTH 14 0
BBX 12 9 1 0
BITMAP
E3F0
E3F0
E380
E380
FF80
FF80
E380
E380
E380
ENDCHAR
STARTCHAR 04A6
ENCODING 1190
SWIDTH 1200 0
DWIDTH 20 0
BBX 18 15 1 -3
BITMAP
FFE000
FFE000
E0E000
E0E000
E0E000
E0FE00
E0FF00
E0E380
E0E180
E0E1C0
E0E1C0
E0E180
000380
000700
000600
ENDCHAR
STARTCHAR 04A7
ENCODING 1191
SWIDTH 1020 0
DWIDTH 17 0
BBX 15 11 1 -2
BITMAP
FF80
FF80
E380
E3F0
E3FC
E39C
E38E
E38E
E38C
003C
0018
ENDCHAR
STARTCHAR 04A8
ENCODING 1192
SWIDTH 900 0
DWIDTH 15 0
BBX 13 12 1 0
BITMAP
39E0
7BF0
F730
E738
E638
E638
E738
E738
E3F0
7BF0
3FF8
1FB8
ENDCHAR
STARTCHAR 04A9
ENCODING 1193
SWIDTH 780 0
DWIDTH 13 0
BBX 11 9 1 0
BITMAP
3780
77C0
EDC0
ECC0
ECC0
ECC0
F7C0
7FE0
1FE0
ENDCHAR
STARTCHAR 04AA
ENCODING 1194
SWIDTH 780 0
DWIDTH 13 0
BBX 10 16 1 -4
BITMAP
1F00
7F80
71C0
E0C0
E000
E000
E000
E000
E0C0
71C0
7F80
1F00
0E00
0E00
0E00
0E00
ENDCHAR
STARTCHAR 04AB
ENCODING 1195
SWIDTH 600 0
DWIDTH 10 0
BBX 8 13 1 -4
BITMAP
3E
7F
E3
E3
E0
E0
E3
7F
3E
1C
1C
1C
1C
ENDCHAR
STARTCHAR 04AC
ENCODING 1196
SWIDTH 720 0
DWIDTH 12 0
BBX 10 15 1 -3
BITMAP
FFC0
FFC0
0C00
0C00
0C00
0C00
0C00
0C00
0C00
0C00
0F00
0F00
0700
0700
0700
ENDCHAR
STARTCHAR 04AD
ENCODING 1197
SWIDTH 660 0
DWIDTH 11 0
BBX 9 12 1 -3
BITMAP
FF80
FF80
1800
1800
1800
1800
1800
1E00
1E00
0600
0600
0600
ENDCHAR
STARTCHAR 04AE
ENCODING 1198
SWIDTH 780 0
DWIDTH 13 0
BBX 11 12 1 0
BITMAP
E0E0
E1C0
71C0
3380
3B00
1F00
1E00
0E00
0E00
0E00
0E00
0E00
ENDCHAR
STARTCHAR 04AF
ENCODING 1199
SWIDTH 660 0
DWIDTH 11 0
BBX 9 12 1 -3
BITMAP
E380
E300
6700
6600
7600
3E00
3C00
1C00
1C00
1C00
1C00
1C00
ENDCHAR
STARTCHAR 04B0
ENCODING 1200
SWIDTH 780 0
DWIDTH 13 0
BBX 11 12 1 0
BITMAP
E0E0
E1C0
71C0
3380
3B00
1F00
3F00
3F00
0E00
0E00
0E00
0E00
ENDCHAR
STARTCHAR 04B1
ENCODING 1201
SWIDTH 660 0
DWIDTH 11 0
BBX 9 12 1 -3
BITMAP
E380
E300
6700
6600
7600
3E00
3C00
7E00
7E00
1C00
1C00
1C00
ENDCHAR
STARTCHAR 04B2
ENCODING 1202
SWIDTH 840 0
DWIDTH 14 0
BBX 12 15 1 -3
BITMAP
E0E0
71C0
7380
3B80
1F00
1E00
1F00
1F00
3B80
7380
71F0
E0F0
0070
0070
0070
ENDCHAR
STARTCHAR 04B3
ENCODING 1203
SWIDTH 660 0
DWIDTH 11 0
BBX 9 12 1 -3
BITMAP
E300
7700
7E00
3E00
1C00
3E00
7E00
6780
E380
0180
0180
0180
ENDCHAR
STARTCHAR 04B4
ENCODING 1204
SWIDTH 1020 0
DWIDTH 17 0
BBX 15 15 1 -3
BITMAP
FF18
FF18
1818
1818
1818
1818
1818
1818
1818
1818
1FFE
1FFE
000E
000E
000E
ENDCHAR
STARTCHAR 04B5
ENCODING 1205
SWIDTH 840 0
DWIDTH 14 0
BBX 12 12 1 -3
BITMAP
FCC0
FCC0
30C0
30C0
30C0
30C0
30C0
3FF0
3FF0
0070
0070
0060
ENDCHAR
STARTCHAR 04B6
ENCODING 1206
SWIDTH 840 0
DWIDTH 14 0
BBX 12 15 1 -3
BITMAP
E0C0
E0C0
E0C0
E0C0
E0C0
E0C0
7FC0
3FC0
00C0
00C0
00F0
00F0
0030
0030
0030
ENDCHAR
STARTCHAR 04B7
ENCODING 1207
SWIDTH 720 0
DWIDTH 12 0
BBX 10 12 1 -3
BITMAP
E300
E300
E300
E300
FF00
3F00
0300
03C0
03C0
00C0
00C0
00C0
ENDCHAR
STARTCHAR 04B8
ENCODING 1208
SWIDTH 780 0
DWIDTH 13 0
BBX 10 12 1 0
BITMAP
E0C0
E0C0
E0C0
ECC0
ECC0
ECC0
7FC0
3FC0
0CC0
0CC0
00C0
00C0
ENDCHAR
STARTCHAR 04B9
ENCODING 1209
SWIDTH 660 0
DWIDTH 11 0
BBX 8 9 1 0
BITMAP
E3
E3
FB
FB
FF
3F
1B
03
03
ENDCHAR
STARTCHAR 04BA
ENCODING 1210
SWIDTH 780 0
DWIDTH 13 0
BBX 11 12 1 0
BITMAP
E000
E000
E000
E000
FF00
FFC0
E1C0
E0E0
E0E0
E0E0
E0E0
E0E0
ENDCHAR
STARTCHAR 04BB
ENCODING 1211
SWIDTH 660 0
DWIDTH 11 0
BBX 9 13 1 0
BITMAP
E000
E000
E000
E000
EE00
FF00
E380
E380
E380
E380
E380
E380
E380
ENDCHAR
STARTCHAR 04BC
ENCODING 1212
SWIDTH 900 0
DWIDTH 15 0
BBX 13 12 1 0
BITMAP
03C0
0FF0
1E70
DC38
D838
FFF8
3FF8
1800
1C00
1E10
0FF0
03F0
ENDCHAR
STARTCHAR 04BD
ENCODING 1213
SWIDTH 780 0
DWIDTH 13 0
BBX 11 9 1 0
BITMAP
0780
1FC0
D8E0
FFE0
7FE0
3800
1C40
1FE0
07C0
ENDCHAR
STARTCHAR 04BE
ENCODING 1214
SWIDTH 900 0
DWIDTH 15 0
BBX 13 16 1 -4
BITMAP
03C0
0FF0
1E70
DC38
D838
FFF8
3FF8
1800
1C00
1E10
0FF0
03F0
01C0
01C0
01C0
01C0
ENDCHAR
STARTCHAR 04BF
ENCODING 1215
SWIDTH 780 0
DWIDTH 13 0
BBX 11 13 1 -4
BITMAP
0780
1FC0
D8E0
FFE0
7FE0
3800
1C40
0FE0
07C0
0300
0300
0300
0300
ENDCHAR
STARTCHAR 04C0
ENCODING 1216
SWIDTH 300 0
DWIDTH 5 0
BBX 3 12 1 0
BITMAP
E0
E0
E0
E0
E0
E0
E0
E0
E0
E0
E0
E0
ENDCHAR
STARTCHAR 04C1
ENCODING 1217
SWIDTH 1200 0
DWIDTH 20 0
BBX 18 16 1 0
BITMAP
023000
03F000
01E000
000000
F1C380
71C780
39C700
39CE00
1DCE00
0FFC00
1FFE00
3DCE00
39C700
71C700
71C380
E1C3C0
ENDCHAR
STARTCHAR 04C2
ENCODING 1218
SWIDTH 1020 0
DWIDTH 17 0
BBX 15 13 1 0
BITMAP
0C60
07C0
0380
0000
E39E
739C
73B8
3BB0
1FF0
3FF0
73B8
739C
E39E
ENDCHAR
STARTCHAR 04C3
ENCODING 1219
SWIDTH 780 0
DWIDTH 13 0
BBX 11 15 1 -3
BITMAP
E1C0
E380
E780
E700
EE00
FF00
FF80
E1C0
E0C0
E0E0
E0E0
E0C0
01C0
0380
0300
ENDCHAR
STARTCHAR 04C4
ENCODING 1220
SWIDTH 660 0
DWIDTH 11 0
BBX 9 11 1 -2
BITMAP
E780
E700
EE00
FC00
FE00
FF00
E380
E380
E380
0700
0600
ENDCHAR
STARTCHAR 04C5
ENCODING 1221
SWIDTH 900 0
DWIDTH 15 0
BBX 13 15 1 -3
BITMAP
1FE0
3FE0
3860
3860
3860
3860
3860
3860
3860
7060
F078
E078
0018
0018
0030
ENDCHAR
STARTCHAR 04C6
ENCODING 1222
SWIDTH 780 0
DWIDTH 13 0
BBX 11 12 1 -3
BITMAP
3F80
3F80
3180
3180
3180
3180
7180
E1E0
C1E0
0060
0060
00C0
ENDCHAR
STARTCHAR 04C7
ENCODING 1223
SWIDTH 780 0
DWIDTH 13 0
BBX 11 15 1 -3
BITMAP
E0E0
E0E0
E0E0
E0E0
E0E0
FFE0
FFE0
E0E0
E0E0
E0E0
E0E0
E0E0
00E0
03C0
0380
ENDCHAR
STARTCHAR 04C8
ENCODING 1224
SWIDTH 660 0
DWIDTH 11 0
BBX 9 12 1 -3
BITMAP
E380
E380
E380
E380
FF80
FF80
E380
E380
E380
0380
0F00
0E00
ENDCHAR
STARTCHAR 04C9
ENCODING 1225
SWIDTH 900 0
DWIDTH 15 0
BBX 13 15 1 -3
BITMAP
E0E0
E0E0
E0E0
E0E0
E0E0
FFE0
FFE0
E0E0
E0E0
E0E0
E0F8
E0F8
0018
0030
0030
ENDCHAR
STARTCHAR 04CA
ENCODING 1226
SWIDTH 780 0
DWIDTH 13 0
BBX 11 12 1 -3
BITMAP
E380
E380
E380
E380
FF80
FF80
E380
E3E0
E3E0
00E0
00C0
01C0
ENDCHAR
STARTCHAR 04CB
ENCODING 1227
SWIDTH 780 0
DWIDTH 13 0
BBX 10 15 1 -3
BITMAP
E0C0
E0C0
E0C0
E0C0
E0C0
E0C0
7FC0
3FC0
00C0
00C0
03C0
03C0
0300
0300
0300
ENDCHAR
STARTCHAR 04CC
ENCODING 1228
SWIDTH 660 0
DWIDTH 11 0
BBX 8 12 1 -3
BITMAP
E3
E3
E3
E3
FF
3F
03
0F
0F
0C
0C
0C
ENDCHAR
STARTCHAR 04CD
ENCODING 1229
SWIDTH 1080 0
DWIDTH 18 0
BBX 16 15 1 -3
BITMAP
F03C
F03C
F83C
F87C
F87C
ECFC
ECDC
EEDC
E79C
E79C
E39F
E31F
0003
0007
0006
ENDCHAR
STARTCHAR 04CE
ENCODING 1230
SWIDTH 960 0
DWIDTH 16 0
BBX 14 12 1 -3
BITMAP
F0F0
F0F0
F1F0
F9F0
F9F0
EF70
EF70
EE7C
E67C
001C
0018
0018
ENDCHAR
STARTCHAR 04CF
ENCODING 1231
SWIDTH 300 0
DWIDTH 5 0
BBX 3 12 1 0
BITMAP
E0
E0
E0
E0
E0
E0
E0
E0
E0
E0
E0
E0
ENDCHAR
STARTCHAR 04D0
ENCODING 1232
SWIDTH 840 0
DWIDTH 14 0
BBX 12 16 1 0
BITMAP
1980
1F80
0F00
0000
0E00
0F00
0F00
1F00
1B80
3980
31C0
3FC0
7FE0
60E0
E060
E070
ENDCHAR
STARTCHAR 04D1
ENCODING 1233
SWIDTH 600 0
DWIDTH 10 0
BBX 8 13 1 0
BITMAP
66
7E
3C
00
3E
7F
E7
1F
7F
E3
E7
FF
7B
ENDCHAR
STARTCHAR 04D2
ENCODING 1234
SWIDTH 840 0
DWIDTH 14 0
BBX 12 15 1 0
BITMAP
1980
3980
0000
0E00
0F00
0F00
1F00
1B80
3980
31C0
3FC0
7FE0
60E0
E060
E070
ENDCHAR
STARTCHAR 04D3
ENCODING 1235
SWIDTH 600 0
DWIDTH 10 0
BBX 8 12 1 0
BITMAP
66
67
00
3E
7F
E7
1F
7F
E3
E7
FF
7B
ENDCHAR
STARTCHAR 04D4
ENCODING 1236
SWIDTH 1080 0
DWIDTH 18 0
BBX 16 12 1 0
BITMAP
03FF
03FF
07E0
06E0
0EFE
1CFE
1CE0
3FE0
3FE0
70E0
70FF
E0FF
ENDCHAR
STARTCHAR 04D5
ENCODING 1237
SWIDTH 960 0
DWIDTH 16 0
BBX 14 9 1 0
BITMAP
3EF0
7FFC
E38C
3FFC
FFFC
E300
E380
FFFC
7CF8
ENDCHAR
STARTCHAR 04D6
ENCODING 1238
SWIDTH 660 0
DWIDTH 11 0
BBX 9 16 1 0
BITMAP
2300
3F00
1E00
0000
FF80
FF80
E000
E000
E000
FF00
FF00
E000
E000
E000
FF80
FF80
ENDCHAR
STARTCHAR 04D7
ENCODING 1239
SWIDTH 660 0
DWIDTH 11 0
BBX 9 13 1 0
BITMAP
6600
7E00
3C00
0000
3E00
7F00
E300
FF80
FF80
E000
E100
7F80
3E00
ENDCHAR
STARTCHAR 04D8
ENCODING 1240
SWIDTH 780 0
DWIDTH 13 0
BBX 11 12 1 0
BITMAP
7F00
7F80
63C0
00E0
00E0
FFE0
FFE0
E0E0
E0E0
71C0
7F80
1F00
ENDCHAR
STARTCHAR 04D9
ENCODING 1241
SWIDTH 600 0
DWIDTH 10 0
BBX 8 9 1 0
BITMAP
7C
FE
07
03
FF
FF
E7
7F
3C
ENDCHAR
STARTCHAR 04DA
ENCODING 1242
SWIDTH 780 0
DWIDTH 13 0
BBX 11 15 1 0
BITMAP
3300
3300
0000
7F00
7F80
63C0
00E0
00E0
FFE0
FFE0
E0E0
E0E0
71C0
7F80
1F00
ENDCHAR
STARTCHAR 04DB
ENCODING 1243
SWIDTH 600 0
DWIDTH 10 0
BBX 8 12 1 0
BITMAP
66
66
00
7C
FE
07
03
FF
FF
E7
7E
3C
ENDCHAR
STARTCHAR 04DC
ENCODING 1244
SWIDTH 1200 0
DWIDTH 20 0
BBX 18 15 1 0
BITMAP
033000
073000
000000
F1C380
71C780
39C700
39CE00
1DCE00
0FFC00
1FFE00
3DCE00
39C700
71C700
71C380
E1C3C0
ENDCHAR
STARTCHAR 04DD
ENCODING 1245
SWIDTH 1020 0
DWIDTH 17 0
BBX 15 12 1 0
BITMAP
0C60
0CE0
0000
E39E
739C
73B8
3BB0
1FF0
3FF0
73B8
739C
E39E
ENDCHAR
STARTCHAR 04DE
ENCODING 1246
SWIDTH 720 0
DWIDTH 12 0
BBX 10 15 1 0
BITMAP
3300
7300
0000
3E00
7F80
E380
E180
0380
1F00
1F80
01C0
E1C0
E3C0
7F80
3F00
ENDCHAR
STARTCHAR 04DF
ENCODING 1247
SWIDTH 600 0
DWIDTH 10 0
BBX 8 12 1 0
BITMAP
66
66
00
3C
FF
E7
1E
1E
07
E7
FF
7C
ENDCHAR
STARTCHAR 04E0
ENCODING 1248
SWIDTH 660 0
DWIDTH 11 0
BBX 9 12 1 0
BITMAP
FF80
FF80
0700
0E00
1C00
1F00
0780
0380
E380
E380
7F00
3E00
ENDCHAR
STARTCHAR 04E1
ENCODING 1249
SWIDTH 660 0
DWIDTH 11 0
BBX 9 12 1 -3
BITMAP
FF80
FF80
0700
0E00
1C00
1F00
0780
0380
C380
E380
FF00
3E00
ENDCHAR
STARTCHAR 04E2
ENCODING 1250
SWIDTH 780 0
DWIDTH 13 0
BBX 11 15 1 0
BITMAP
3F80
3F80
0000
E0E0
E1E0
E3E0
E3E0
E7E0
EEE0
EEE0
FCE0
F8E0
F8E0
F0E0
E0E0
ENDCHAR
STARTCHAR 04E3
ENCODING 1251
SWIDTH 660 0
DWIDTH 11 0
BBX 9 12 1 0
BITMAP
7F00
7F00
0000
E380
E780
E780
EF80
FB80
FB80
F380
F380
E380
ENDCHAR
STARTCHAR 04E4
ENCODING 1252
SWIDTH 780 0
DWIDTH 13 0
BBX 11 15 1 0
BITMAP
3180
3180
0000
E0E0
E1E0
E3E0
E3E0
E7E0
EEE0
EEE0
FCE0
F8E0
F8E0
F0E0
E0E0
ENDCHAR
STARTCHAR 04E5
ENCODING 1253
SWIDTH 660 0
DWIDTH 11 0
BBX 9 12 1 0
BITMAP
6300
6700
0000
E380
E780
E780
EF80
FB80
FB80
F380
F380
E380
ENDCHAR
STARTCHAR 04E6
ENCODING 1254
SWIDTH 780 0
DWIDTH 13 0
BBX 11 15 1 0
BITMAP
3180
3380
0000
1F00
3F80
71C0
E0E0
E0E0
E0E0
E0E0
E0E0
E0E0
71C0
3F80
1F00
ENDCHAR
STARTCHAR 04E7
ENCODING 1255
SWIDTH 660 0
DWIDTH 11 0
BBX 9 12 1 0
BITMAP
6300
6700
0000
3E00
7F00
E380
E380
E180
E380
E380
7F00
3E00
ENDCHAR
STARTCHAR 04E8
ENCODING 1256
SWIDTH 780 0
DWIDTH 13 0
BBX 11 12 1 0
BITMAP
1F00
3F80
71C0
E0E0
E0E0
FFE0
FFE0
E0E0
E0E0
71C0
3F80
1F00
ENDCHAR
STARTCHAR 04E9
ENCODING 1257
SWIDTH 660 0
DWIDTH 11 0
BBX 9 9 1 0
BITMAP
3E00
7F00
E380
E380
FF80
FF80
E380
7F00
3E00
ENDCHAR
STARTCHAR 04EA
ENCODING 1258
SWIDTH 780 0
DWIDTH 13 0
BBX 11 15 1 0
BITMAP
3180
3980
0000
1F00
3F80
71C0
E0E0
E0E0
FFE0
FFE0
E0E0
E0E0
71C0
3F80
1F00
ENDCHAR
STARTCHAR 04EB
ENCODING 1259
SWIDTH 660 0
DWIDTH 11 0
BBX 9 12 1 0
BITMAP
6300
6700
0000
3E00
7F00
E380
E380
FF80
FF80
E380
7F00
3E00
ENDCHAR
STARTCHAR 04EC
ENCODING 1260
SWIDTH 780 0
DWIDTH 13 0
BBX 11 15 1 0
BITMAP
3300
3380
0000
3F00
7F80
E1C0
E1C0
00C0
0FE0
0FE0
00C0
E0C0
E1C0
7F80
3F00
ENDCHAR
STARTCHAR 04ED
ENCODING 1261
SWIDTH 600 0
DWIDTH 10 0
BBX 8 12 1 0
BITMAP
66
66
00
3C
FE
E7
1F
1F
C3
E7
7E
3C
ENDCHAR
STARTCHAR 04EE
ENCODING 1262
SWIDTH 720 0
DWIDTH 12 0
BBX 11 15 1 0
BITMAP
3F80
3F80
0000
E0E0
E1C0
71C0
7380
3B80
1B00
1F00
0E00
0E00
0C00
3C00
3800
ENDCHAR
STARTCHAR 04EF
ENCODING 1263
SWIDTH 660 0
DWIDTH 11 0
BBX 9 15 1 -3
BITMAP
7F00
7F00
0000
E380
E300
6700
7600
7600
3E00
3C00
1C00
1800
1800
7800
7000
ENDCHAR
STARTCHAR 04F0
ENCODING 1264
SWIDTH 720 0
DWIDTH 12 0
BBX 11 15 1 0
BITMAP
3380
3380
0000
E0E0
E1C0
71C0
7380
3B80
1B00
1F00
0E00
0E00
0C00
3C00
3800
ENDCHAR
STARTCHAR 04F1
ENCODING 1265
SWIDTH 660 0
DWIDTH 11 0
BBX 9 15 1 -3
BITMAP
6600
6700
0000
E380
E300
6700
7600
7600
3E00
3C00
1C00
1800
1800
7800
7000
ENDCHAR
STARTCHAR 04F2
ENCODING 1266
SWIDTH 720 0
DWIDTH 12 0
BBX 11 16 1 0
BITMAP
0EC0
0D80
1B00
0000
E0E0
E1C0
71C0
7380
3B80
1B00
1F00
0E00
0E00
0C00
3C00
3800
ENDCHAR
STARTCHAR 04F3
ENCODING 1267
SWIDTH 660 0
DWIDTH 11 0
BBX 9 16 1 -3
BITMAP
1B80
3B00
3600
0000
E380
E300
6700
7600
7600
3E00
3C00
1C00
1800
1800
7800
7000
ENDCHAR
STARTCHAR 04F4
ENCODING 1268
SWIDTH 780 0
DWIDTH 13 0
BBX 10 15 1 0
BITMAP
3180
3380
0000
E0C0
E0C0
E0C0
E0C0
E0C0
E0C0
7FC0
3FC0
00C0
00C0
00C0
00C0
ENDCHAR
STARTCHAR 04F5
ENCODING 1269
SWIDTH 660 0
DWIDTH 11 0
BBX 8 12 1 0
BITMAP
66
67
00
E3
E3
E3
E3
FF
3F
03
03
03
ENDCHAR
STARTCHAR 04F6
ENCODING 1270
SWIDTH 660 0
DWIDTH 11 0
BBX 9 15 1 -3
BITMAP
FF80
FF80
E000
E000
E000
E000
E000
E000
E000
E000
F800
F800
3800
3800
3800
ENDCHAR
STARTCHAR 04F7
ENCODING 1271
SWIDTH 540 0
DWIDTH 9 0
BBX 7 12 1 -3
BITMAP
FE
FE
E0
E0
E0
E0
E0
F8
F8
38
38
38
ENDCHAR
STARTCHAR 04F8
ENCODING 1272
SWIDTH 960 0
DWIDTH 16 0
BBX 14 15 1 0
BITMAP
0CC0
0CC0
0000
E01C
E01C
E01C
E01C
FF1C
FF9C
E1DC
E1DC
E1DC
E1DC
FF9C
FF1C
ENDCHAR
STARTCHAR 04F9
ENCODING 1273
SWIDTH 900 0
DWIDTH 15 0
BBX 13 12 1 0
BITMAP
18C0
1CC0
0000
E038
E038
E038
FE38
FF38
E3B8
E3B8
FF38
FE38
ENDCHAR
STARTCHAR 04FA
ENCODING 1274
SWIDTH 720 0
DWIDTH 12 0
BBX 10 15 1 -3
BITMAP
7FC0
7FC0
7000
7000
7000
FC00
FC00
7000
7000
7000
7E00
7E00
0C00
3C00
3800
ENDCHAR
STARTCHAR 04FB
ENCODING 1275
SWIDTH 600 0
DWIDTH 10 0
BBX 8 13 1 -4
BITMAP
7F
7F
70
FC
FC
70
70
7C
7C
1C
1C
7C
78
ENDCHAR
STARTCHAR 04FC
ENCODING 1276
SWIDTH 840 0
DWIDTH 14 0
BBX 12 15 1 -3
BITMAP
E0E0
71C0
7380
3B80
1F00
1E00
1F00
1F00
3B80
7380
71F0
E0F0
0030
00F0
00E0
ENDCHAR
STARTCHAR 04FD
ENCODING 1277
SWIDTH 720 0
DWIDTH 12 0
BBX 10 12 1 -3
BITMAP
E300
7700
7E00
3E00
1C00
3E00
7E00
67C0
E3C0
01C0
07C0
0780
ENDCHAR
STARTCHAR 04FE
ENCODING 1278
SWIDTH 780 0
DWIDTH 13 0
BBX 11 12 1 0
BITMAP
E0E0
71C0
7380
3B80
1F00
3F80
3F80
1F00
3B80
7380
71C0
E0E0
ENDCHAR
STARTCHAR 04FF
ENCODING 1279
SWIDTH 660 0
DWIDTH 11 0
BBX 9 9 1 0
BITMAP
E300
7700
7E00
7E00
7E00
3E00
7600
6700
E380
ENDCHAR
STARTCHAR 0500
ENCODING 1280
SWIDTH 720 0
DWIDTH 12 0
BBX 10 12 1 0
BITMAP
01C0
01C0
01C0
01C0
3FC0
7FC0
E1C0
E1C0
E1C0
E1C0
7FC0
3FC0
ENDCHAR
STARTCHAR 0501
ENCODING 1281
SWIDTH 660 0
DWIDTH 11 0
BBX 9 13 1 0
BITMAP
0380
0380
0380
0380
3B80
7F80
E380
E380
E380
E380
E380
7F80
3B80
ENDCHAR
STARTCHAR 0502
ENCODING 1282
SWIDTH 1020 0
DWIDTH 17 0
BBX 15 12 1 0
BITMAP
01C0
01C0
01C0
01C0
3FDC
7FCC
E1CE
E1CE
E1CE
E1DC
7FFC
3FF8
ENDCHAR
STARTCHAR 0503
ENCODING 1283
SWIDTH 960 0
DWIDTH 16 0
BBX 14 13 1 0
BITMAP
0380
0380
0380
0380
3B80
7F98
E39C
E39C
E39C
E39C
E39C
7FF8
39F0
ENDCHAR
STARTCHAR 0504
ENCODING 1284
SWIDTH 900 0
DWIDTH 15 0
BBX 13 12 1 0
BITMAP
FC00
FE00
0E00
0700
0630
7E30
7C38
0E38
0738
0770
07F0
03C0
ENDCHAR
STARTCHAR 0505
ENCODING 1285
SWIDTH 780 0
DWIDTH 13 0
BBX 11 9 1 0
BITMAP
F800
FC00
1C00
0CE0
78E0
7CE0
0CE0
0FC0
0780
ENDCHAR
STARTCHAR 0506
ENCODING 1286
SWIDTH 660 0
DWIDTH 11 0
BBX 9 15 1 -3
BITMAP
F800
FC00
0E00
0600
0E00
FC00
FC00
0E00
0600
0600
0780
0780
0180
0180
0300
ENDCHAR
STARTCHAR 0507
ENCODING 1287
SWIDTH 660 0
DWIDTH 11 0
BBX 9 12 1 -3
BITMAP
F800
FC00
0E00
0E00
FC00
FC00
0E00
0F80
0F80
0180
0300
0300
ENDCHAR
STARTCHAR 0508
ENCODING 1288
SWIDTH 1140 0
DWIDTH 19 0
BBX 17 12 1 0
BITMAP
3FE000
3FE000
38E000
38E000
38E700
38E300
38E300
38E380
38E300
70E700
F07F00
E03C00
ENDCHAR
STARTCHAR 0509
ENCODING 1289
SWIDTH 960 0
DWIDTH 16 0
BBX 14 9 1 0
BITMAP
3F80
3F80
339C
339C
338C
339C
739C
F1F8
E0F0
ENDCHAR
STARTCHAR 050A
ENCODING 1290
SWIDTH 1080 0
DWIDTH 18 0
BBX 16 12 1 0
BITMAP
E0E0
E0E0
E0E0
E0E0
E0E7
FFE7
FFE3
E0E3
E0E7
E0E7
E07E
E07C
ENDCHAR
STARTCHAR 050B
ENCODING 1291
SWIDTH 960 0
DWIDTH 16 0
BBX 14 9 1 0
BITMAP
E380
E380
E39C
FF9C
FF9C
E39C
E39C
E1F8
E1F0
ENDCHAR
STARTCHAR 050C
ENCODING 1292
SWIDTH 720 0
DWIDTH 12 0
BBX 10 12 1 0
BITMAP
1F00
7F80
7100
E000
E000
E1C0
E0C0
E0C0
E0C0
71C0
7FC0
1F00
ENDCHAR
STARTCHAR 050D
ENCODING 1293
SWIDTH 660 0
DWIDTH 11 0
BBX 8 9 1 0
BITMAP
3E
7E
E0
E0
E3
E3
E3
7F
3E
ENDCHAR
STARTCHAR 050E
ENCODING 1294
SWIDTH 840 0
DWIDTH 14 0
BBX 12 12 1 0
BITMAP
FFC0
FFC0
0C00
0C00
0C60
0C70
0C70
0C70
0C70
0CE0
0FE0
07C0
ENDCHAR
STARTCHAR 050F
ENCODING 1295
SWIDTH 720 0
DWIDTH 12 0
BBX 10 9 1 0
BITMAP
FF00
FF00
3800
39C0
38C0
38C0
19C0
1FC0
0F00
ENDCHAR
STARTCHAR 0510
ENCODING 1296
SWIDTH 720 0
DWIDTH 12 0
BBX 10 12 1 0
BITMAP
3F00
7F80
F1C0
E1C0
E000
7E00
7E00
E000
E0C0
E1C0
7FC0
3F00
ENDCHAR
STARTCHAR 0511
ENCODING 1297
SWIDTH 660 0
DWIDTH 11 0
BBX 9 9 1 0
BITMAP
3E00
FF00
E380
7C00
7C00
E000
E380
FF00
3E00
ENDCHAR
STARTCHAR 0512
ENCODING 1298
SWIDTH 960 0
DWIDTH 16 0
BBX 14 15 1 -3
BITMAP
1FE0
3FE0
3860
3860
3860
3860
3860
3860
3860
7060
F07C
E07C
001C
0078
0070
ENDCHAR
STARTCHAR 0513
ENCODING 1299
SWIDTH 840 0
DWIDTH 14 0
BBX 12 12 1 -3
BITMAP
3F80
3F80
3180
3180
3180
3180
7180
E1F0
C1F0
0070
01E0
01C0
ENDCHAR
STARTCHAR 1E00
ENCODING 7680
SWIDTH 840 0
DWIDTH 14 0
BBX 12 15 1 -3
BITMAP
0E00
0F00
0F00
1F80
1B80
3980
31C0
3FC0
7FE0
60E0
E060
E070
0600
0900
0600
ENDCHAR
STARTCHAR 1E01
ENCODING 7681
SWIDTH 660 0
DWIDTH 11 0
BBX 8 12 1 -3
BITMAP
3E
7F
E7
1F
7F
E3
E7
FF
7B
38
28
38
ENDCHAR
STARTCHAR 1E3E
ENCODING 7742
SWIDTH 960 0
DWIDTH 16 0
BBX 14 16 1 0
BITMAP
01C0
0180
0300
0000
F03C
F03C
F87C
F87C
F87C
ECFC
ECDC
EEDC
E79C
E79C
E39C
E31C
ENDCHAR
STARTCHAR 1E3F
ENCODING 7743
SWIDTH 960 0
DWIDTH 16 0
BBX 14 13 1 0
BITMAP
01C0
0180
0380
0000
FE78
FFFC
E39C
E31C
E31C
E31C
E31C
E31C
E31C
ENDCHAR
STARTCHAR 1E80
ENCODING 7808
SWIDTH 1020 0
DWIDTH 17 0
BBX 15 16 1 0
BITMAP
0E00
0700
0380
0000
C38E
E38E
E38E
678C
66CC
76DC
76DC
3CD8
3C78
3C78
3C78
1870
ENDCHAR
STARTCHAR 1E81
ENCODING 7809
SWIDTH 900 0
DWIDTH 15 0
BBX 13 13 1 0
BITMAP
1C00
0E00
0600
0100
C638
E730
E730
6F70
6DE0
6DE0
39E0
38E0
38C0
ENDCHAR
STARTCHAR 1E82
ENCODING 7810
SWIDTH 1020 0
DWIDTH 17 0
BBX 15 16 1 0
BITMAP
00E0
01C0
0380
0000
C38E
E38E
E38E
678C
66CC
76DC
76DC
3CD8
3C78
3C78
3C78
1870
ENDCHAR
STARTCHAR 1E83
ENCODING 7811
SWIDTH 900 0
DWIDTH 15 0
BBX 13 13 1 0
BITMAP
0380
0300
0600
0000
C638
E730
E730
6F70
6DE0
6DE0
39E0
38E0
38C0
ENDCHAR
STARTCHAR 1E84
ENCODING 7812
SWIDTH 1020 0
DWIDTH 17 0
BBX 15 15 1 0
BITMAP
0C60
0CE0
0000
C38E
E38E
E38E
678C
66CC
76DC
76DC
3CD8
3C78
3C78
3C78
1870
ENDCHAR
STARTCHAR 1E85
ENCODING 7813
SWIDTH 900 0
DWIDTH 15 0
BBX 13 12 1 0
BITMAP
1980
19C0
0000
C638
E730
E730
6F70
6DE0
6DE0
39E0
38E0
38C0
ENDCHAR
STARTCHAR 1EA0
ENCODING 7840
SWIDTH 840 0
DWIDTH 14 0
BBX 12 15 1 -3
BITMAP
0E00
0F00
0F00
1F80
1B80
3980
31C0
3FC0
7FE0
60E0
E060
E070
0000
0600
0600
ENDCHAR
STARTCHAR 1EA1
ENCODING 7841
SWIDTH 660 0
DWIDTH 11 0
BBX 8 12 1 -3
BITMAP
3E
7F
E7
1F
7F
E3
E7
FF
7B
00
38
38
ENDCHAR
STARTCHAR 1EA2
ENCODING 7842
SWIDTH 840 0
DWIDTH 14 0
BBX 12 16 1 0
BITMAP
0700
0300
0700
0000
0E00
0F00
0F00
1F80
1B80
3980
31C0
3FC0
7FE0
60E0
E060
E070
ENDCHAR
STARTCHAR 1EA3
ENCODING 7843
SWIDTH 600 0
DWIDTH 10 0
BBX 8 13 1 0
BITMAP
1C
0E
18
00
3E
7F
E7
1F
7F
E3
E7
FF
7B
ENDCHAR
STARTCHAR 1EA4
ENCODING 7844
SWIDTH 840 0
DWIDTH 14 0
BBX 12 16 1 0
BITMAP
0030
0060
0FC0
1980
0E00
0F00
0F00
1F80
1B80
3980
31C0
3FC0
7FE0
60E0
E060
E070
ENDCHAR
STARTCHAR 1EA5
ENCODING 7845
SWIDTH 720 0
DWIDTH 12 0
BBX 10 13 1 0
BITMAP
00C0
1980
3600
4000
3E00
7F00
E700
1F00
7F00
E300
E700
FF00
7B00
ENDCHAR
STARTCHAR 1EA6
ENCODING 7846
SWIDTH 840 0
DWIDTH 14 0
BBX 12 16 1 0
BITMAP
C000
6000
2F00
1980
0E00
0F00
0F00
1F80
1B80
3980
31C0
3FC0
7FE0
60E0
E060
E070
ENDCHAR
STARTCHAR 1EA7
ENCODING 7847
SWIDTH 720 0
DWIDTH 12 0
BBX 10 13 1 0
BITMAP
C000
6600
1B00
0080
1F00
3F80
31C0
07C0
3FC0
31C0
71C0
3FC0
1FC0
ENDCHAR
STARTCHAR 1EA8
ENCODING 7848
SWIDTH 840 0
DWIDTH 14 0
BBX 12 16 1 0
BITMAP
00C0
0060
0EC0
1980
0E00
0F00
0F00
1F80
1B80
3980
31C0
3FC0
7FE0
60E0
E060
E070
ENDCHAR
STARTCHAR 1EA9
ENCODING 7849
SWIDTH 660 0
DWIDTH 11 0
BBX 9 14 1 0
BITMAP
0180
0080
1980
3600
4000
3E00
7F00
E700
1F00
7F00
E300
E700
FF00
7B00
ENDCHAR
STARTCHAR 1EAA
ENCODING 7850
SWIDTH 840 0
DWIDTH 14 0
BBX 12 17 1 0
BITMAP
0100
0F00
0800
0F00
1980
0E00
0F00
0F00
1F80
1B80
3980
31C0
3FC0
7FE0
60E0
E060
E070
ENDCHAR
STARTCHAR 1EAB
ENCODING 7851
SWIDTH 600 0
DWIDTH 10 0
BBX 8 14 1 0
BITMAP
38
2C
18
36
40
3E
7F
E7
1F
7F
E3
E7
FF
7B
ENDCHAR
STARTCHAR 1EAC
ENCODING 7852
SWIDTH 840 0
DWIDTH 14 0
BBX 12 19 1 -3
BITMAP
0600
0F00
1980
0000
0E00
0F00
0F00
1F80
1B80
3980
31C0
3FC0
7FE0
60E0
E060
E070
0000
0600
0600
ENDCHAR
STARTCHAR 1EAD
ENCODING 7853
SWIDTH 600 0
DWIDTH 10 0
BBX 8 16 1 -3
BITMAP
18
3C
67
00
3E
7F
E7
1F
7F
E3
E7
FF
7B
00
38
38
ENDCHAR
STARTCHAR 1EAE
ENCODING 7854
SWIDTH 840 0
DWIDTH 14 0
BBX 12 16 1 0
BITMAP
0300
1980
1F00
0000
0E00
0F00
0F00
1F80
1B80
3980
31C0
3FC0
7FE0
60E0
E060
E070
ENDCHAR
STARTCHAR 1EAF
ENCODING 7855
SWIDTH 600 0
DWIDTH 10 0
BBX 8 14 1 0
BITMAP
06
0C
66
3E
00
3E
7F
E7
1F
7F
E3
E7
FF
7B
ENDCHAR
STARTCHAR 1EB0
ENCODING 7856
SWIDTH 840 0
DWIDTH 14 0
BBX 12 18 1 0
BITMAP
1C00
0E00
1980
1F80
0F00
0000
0E00
0F00
0F00
1F80
1B80
3980
31C0
3FC0
7FE0
60E0
E060
E070
ENDCHAR
STARTCHAR 1EB1
ENCODING 7857
SWIDTH 600 0
DWIDTH 10 0
BBX 8 15 1 0
BITMAP
30
18
66
7E
18
00
3E
7F
E7
1F
7F
E3
E7
FF
7B
ENDCHAR
STARTCHAR 1EB2
ENCODING 7858
SWIDTH 840 0
DWIDTH 14 0
BBX 12 18 1 0
BITMAP
0600
0300
0700
1980
1F00
0000
0E00
0F00
0F00
1F80
1B80
3980
31C0
3FC0
7FE0
60E0
E060
E070
ENDCHAR
STARTCHAR 1EB3
ENCODING 7859
SWIDTH 600 0
DWIDTH 10 0
BBX 8 15 1 0
BITMAP
18
0C
1C
66
3E
00
3E
7F
E7
1F
7F
E3
E7
FF
7B
ENDCHAR
STARTCHAR 1EB4
ENCODING 7860
SWIDTH 840 0
DWIDTH 14 0
BBX 12 17 1 0
BITMAP
0D00
1300
1980
1F00
0000
0E00
0F00
0F00
1F80
1B80
3980
31C0
3FC0
7FE0
60E0
E060
E070
ENDCHAR
STARTCHAR 1EB5
ENCODING 7861
SWIDTH 600 0
DWIDTH 10 0
BBX 8 14 1 1
BITMAP
3E
20
66
3E
00
3E
7F
E7
1F
7F
E3
E7
FF
7B
ENDCHAR
STARTCHAR 1EB6
ENCODING 7862
SWIDTH 840 0
DWIDTH 14 0
BBX 12 19 1 -3
BITMAP
1980
1F80
0F00
0000
0E00
0F00
0F00
1F80
1B80
3980
31C0
3FC0
7FE0
60E0
E060
E070
0000
0600
0600
ENDCHAR
STARTCHAR 1EB7
ENCODING 7863
SWIDTH 600 0
DWIDTH 10 0
BBX 8 16 1 -3
BITMAP
66
7E
3C
00
3E
7F
E7
1F
7F
E3
E7
FF
7B
00
38
38
ENDCHAR
STARTCHAR 1EB8
ENCODING 7864
SWIDTH 660 0
DWIDTH 11 0
BBX 9 15 1 -3
BITMAP
FF80
FF80
E000
E000
E000
FF00
FF00
E000
E000
E000
FF80
FF80
0000
1C00
0C00
ENDCHAR
STARTCHAR 1EB9
ENCODING 7865
SWIDTH 660 0
DWIDTH 11 0
BBX 9 12 1 -3
BITMAP
3E00
7F00
E300
FF80
FF80
E000
E100
7F80
3E00
0000
1C00
1C00
ENDCHAR
STARTCHAR 1EBA
ENCODING 7866
SWIDTH 660 0
DWIDTH 11 0
BBX 9 16 1 0
BITMAP
0E00
0600
0C00
0000
FF80
FF80
E000
E000
E000
FF00
FF00
E000
E000
E000
FF80
FF80
ENDCHAR
STARTCHAR 1EBB
ENCODING 7867
SWIDTH 660 0
DWIDTH 11 0
BBX 9 13 1 0
BITMAP
1C00
0C00
1800
0000
3E00
7F00
E300
FF80
FF80
E000
E100
7F80
3E00
ENDCHAR
STARTCHAR 1EBC
ENCODING 7868
SWIDTH 660 0
DWIDTH 11 0
BBX 9 15 1 0
BITMAP
3F00
7E00
0000
FF80
FF80
E000
E000
E000
FF00
FF00
E000
E000
E000
FF80
FF80
ENDCHAR
STARTCHAR 1EBD
ENCODING 7869
SWIDTH 660 0
DWIDTH 11 0
BBX 9 13 1 0
BITMAP
3300
7E00
4400
0000
3E00
7F00
E300
FF80
FF80
E000
E100
7F80
3E00
ENDCHAR
STARTCHAR 1EBE
ENCODING 7870
SWIDTH 720 0
DWIDTH 12 0
BBX 11 16 1 0
BITMAP
0060
00C0
1F80
6300
FF80
FF80
E000
E000
E000
FF00
FF00
E000
E000
E000
FF80
FF80
ENDCHAR
STARTCHAR 1EBF
ENCODING 7871
SWIDTH 720 0
DWIDTH 12 0
BBX 10 13 1 0
BITMAP
00C0
1980
3600
4000
3E00
7F00
E300
FF80
FF80
E000
E100
7F80
3E00
ENDCHAR
STARTCHAR 1EC0
ENCODING 7872
SWIDTH 720 0
DWIDTH 12 0
BBX 10 16 1 0
BITMAP
C000
6000
2F00
3980
7FC0
7FC0
7000
7000
7000
7F80
7F80
7000
7000
7000
7FC0
7FC0
ENDCHAR
STARTCHAR 1EC1
ENCODING 7873
SWIDTH 720 0
DWIDTH 12 0
BBX 10 13 1 0
BITMAP
C000
6600
1B00
0080
0F00
3F80
39C0
3FC0
3FC0
3000
3880
1FC0
0F80
ENDCHAR
STARTCHAR 1EC2
ENCODING 7874
SWIDTH 660 0
DWIDTH 11 0
BBX 10 16 1 0
BITMAP
0180
00C0
1D80
3300
FF80
FF80
E000
E000
E000
FF00
FF00
E000
E000
E000
FF80
FF80
ENDCHAR
STARTCHAR 1EC3
ENCODING 7875
SWIDTH 660 0
DWIDTH 11 0
BBX 9 14 1 0
BITMAP
0380
0080
1900
3600
4000
3E00
7F00
E300
FF80
FF80
E000
E100
7F80
3E00
ENDCHAR
STARTCHAR 1EC4
ENCODING 7876
SWIDTH 660 0
DWIDTH 11 0
BBX 9 16 1 1
BITMAP
1E00
0000
1E00
6300
FF80
FF80
E000
E000
E000
FF00
FF00
E000
E000
E000
FF80
FF80
ENDCHAR
STARTCHAR 1EC5
ENCODING 7877
SWIDTH 660 0
DWIDTH 11 0
BBX 9 14 1 0
BITMAP
3000
2C00
1800
3600
4000
3E00
7F00
E300
FF80
FF80
E000
E100
7F80
3E00
ENDCHAR
STARTCHAR 1EC6
ENCODING 7878
SWIDTH 660 0
DWIDTH 11 0
BBX 9 19 1 -3
BITMAP
0C00
1E00
3300
0000
FF80
FF80
E000
E000
E000
FF00
FF00
E000
E000
E000
FF80
FF80
0000
1C00
0C00
ENDCHAR
STARTCHAR 1EC7
ENCODING 7879
SWIDTH 660 0
DWIDTH 11 0
BBX 9 16 1 -3
BITMAP
1800
3C00
6600
0000
3E00
7F00
E300
FF80
FF80
E000
E100
7F80
3E00
0000
1C00
1C00
ENDCHAR
STARTCHAR 1EC8
ENCODING 7880
SWIDTH 300 0
DWIDTH 5 0
BBX 4 16 1 0
BITMAP
E0
30
E0
00
E0
E0
E0
E0
E0
E0
E0
E0
E0
E0
E0
E0
ENDCHAR
STARTCHAR 1EC9
ENCODING 7881
SWIDTH 360 0
DWIDTH 6 0
BBX 4 14 1 0
BITMAP
E0
70
70
C0
00
E0
E0
E0
E0
E0
E0
E0
E0
E0
ENDCHAR
STARTCHAR 1ECA
ENCODING 7882
SWIDTH 300 0
DWIDTH 5 0
BBX 3 15 1 -3
BITMAP
E0
E0
E0
E0
E0
E0
E0
E0
E0
E0
E0
E0
00
E0
E0
ENDCHAR
STARTCHAR 1ECB
ENCODING 7883
SWIDTH 300 0
DWIDTH 5 0
BBX 3 15 1 -3
BITMAP
E0
E0
40
E0
E0
E0
E0
E0
E0
E0
E0
E0
00
E0
E0
ENDCHAR
STARTCHAR 1ECC
ENCODING 7884
SWIDTH 780 0
DWIDTH 13 0
BBX 11 15 1 -3
BITMAP
1F00
3F80
71C0
E0E0
E0E0
E0E0
E0E0
E0E0
E0E0
71C0
3F80
1F00
0000
0E00
0E00
ENDCHAR
STARTCHAR 1ECD
ENCODING 7885
SWIDTH 660 0
DWIDTH 11 0
BBX 9 12 1 -3
BITMAP
3E00
7F00
E380
E380
E180
E380
E380
7F00
3E00
0000
1C00
1C00
ENDCHAR
STARTCHAR 1ECE
ENCODING 7886
SWIDTH 780 0
DWIDTH 13 0
BBX 11 16 1 0
BITMAP
0E00
0300
0E00
0000
1F00
3F80
71C0
E0E0
E0E0
E0E0
E0E0
E0E0
E0E0
71C0
3F80
1F00
ENDCHAR
STARTCHAR 1ECF
ENCODING 7887
SWIDTH 660 0
DWIDTH 11 0
BBX 9 13 1 0
BITMAP
1C00
0600
1800
0000
3E00
7F00
E380
E380
E180
E380
E380
7F00
3E00
ENDCHAR
STARTCHAR 1ED0
ENCODING 7888
SWIDTH 780 0
DWIDTH 13 0
BBX 12 16 1 0
BITMAP
0070
0060
0EC0
3B80
1F00
3F80
71C0
E0E0
E0E0
E0E0
E0E0
E0E0
E0E0
71C0
3F80
1F00
ENDCHAR
STARTCHAR 1ED1
ENCODING 7889
SWIDTH 720 0
DWIDTH 12 0
BBX 10 13 1 0
BITMAP
00C0
1D80
3600
0000
3E00
7F00
E380
E380
E180
E380
E380
7F00
3E00
ENDCHAR
STARTCHAR 1ED2
ENCODING 7890
SWIDTH 780 0
DWIDTH 13 0
BBX 11 16 1 0
BITMAP
C000
4000
6E00
1980
1F00
3FC0
71C0
60E0
E0E0
E060
E060
E0E0
60E0
71E0
3FC0
1F00
ENDCHAR
STARTCHAR 1ED3
ENCODING 7891
SWIDTH 720 0
DWIDTH 12 0
BBX 10 13 1 0
BITMAP
C000
6600
1B00
0080
1F00
3F80
31C0
70C0
70C0
70C0
31C0
3F80
1F00
ENDCHAR
STARTCHAR 1ED4
ENCODING 7892
SWIDTH 780 0
DWIDTH 13 0
BBX 11 16 1 0
BITMAP
00C0
0040
0EC0
1B00
1F00
3F80
71C0
E0E0
E0E0
E0E0
E0E0
E0E0
E0E0
71C0
3F80
1F00
ENDCHAR
STARTCHAR 1ED5
ENCODING 7893
SWIDTH 660 0
DWIDTH 11 0
BBX 9 14 1 0
BITMAP
0180
0080
1D80
3600
0000
3E00
7F00
E380
E380
E180
E380
E380
7F00
3E00
ENDCHAR
STARTCHAR 1ED6
ENCODING 7894
SWIDTH 780 0
DWIDTH 13 0
BBX 11 16 1 1
BITMAP
0F00
0000
0E00
3180
1F00
3F80
71C0
E0E0
E0E0
E0E0
E0E0
E0E0
E0E0
71C0
3F80
1F00
ENDCHAR
STARTCHAR 1ED7
ENCODING 7895
SWIDTH 660 0
DWIDTH 11 0
BBX 9 14 1 0
BITMAP
1A00
2E00
1C00
3600
0000
3E00
7F00
E380
E380
E180
E380
E380
7F00
3E00
ENDCHAR
STARTCHAR 1ED8
ENCODING 7896
SWIDTH 780 0
DWIDTH 13 0
BBX 11 19 1 -3
BITMAP
0400
0E00
3B80
0000
1F00
3F80
71C0
E0E0
E0E0
E0E0
E0E0
E0E0
E0E0
71C0
3F80
1F00
0000
0E00
0E00
ENDCHAR
STARTCHAR 1ED9
ENCODING 7897
SWIDTH 660 0
DWIDTH 11 0
BBX 9 16 1 -3
BITMAP
1C00
3E00
7300
0000
3E00
7F00
E380
E380
E180
E380
E380
7F00
3E00
0000
1C00
1C00
ENDCHAR
STARTCHAR 1EDA
ENCODING 7898
SWIDTH 840 0
DWIDTH 14 0
BBX 12 16 1 0
BITMAP
0380
0700
0600
0010
1F30
3FB0
71E0
E0E0
E0E0
E0E0
E0E0
E0E0
E0E0
71C0
3F80
1F00
ENDCHAR
STARTCHAR 1EDB
ENCODING 7899
SWIDTH 720 0
DWIDTH 12 0
BBX 10 13 1 0
BITMAP
0700
0E00
0C00
0040
3EC0
7FC0
E380
E380
E180
E380
E380
7F00
3E00
ENDCHAR
STARTCHAR 1EDC
ENCODING 7900
SWIDTH 840 0
DWIDTH 14 0
BBX 12 16 1 0
BITMAP
3800
1C00
0E00
0010
1F30
3FB0
71E0
E0E0
E0E0
E0E0
E0E0
E0E0
E0E0
71C0
3F80
1F00
ENDCHAR
STARTCHAR 1EDD
ENCODING 7901
SWIDTH 720 0
DWIDTH 12 0
BBX 10 13 1 0
BITMAP
7000
3800
1C00
0040
3EC0
7FC0
E380
E380
E180
E380
E380
7F00
3E00
ENDCHAR
STARTCHAR 1EDE
ENCODING 7902
SWIDTH 840 0
DWIDTH 14 0
BBX 12 16 1 0
BITMAP
0E00
0300
0600
0010
1F10
3FB0
71E0
E0E0
E0E0
E0E0
E0E0
E0E0
E0E0
71C0
3F80
1F00
ENDCHAR
STARTCHAR 1EDF
ENCODING 7903
SWIDTH 720 0
DWIDTH 12 0
BBX 10 13 1 0
BITMAP
1C00
0600
0800
0040
3EC0
7FC0
E380
E380
E180
E380
E380
7F00
3E00
ENDCHAR
STARTCHAR 1EE0
ENCODING 7904
SWIDTH 840 0
DWIDTH 14 0
BBX 12 15 1 0
BITMAP
1F80
3F00
0010
1F10
3FB0
71E0
E0E0
E0E0
E0E0
E0E0
E0E0
E0E0
71C0
3F80
1F00
ENDCHAR
STARTCHAR 1EE1
ENCODING 7905
SWIDTH 720 0
DWIDTH 12 0
BBX 10 13 1 0
BITMAP
3300
7F00
6600
0040
3EC0
7FC0
E380
E380
E180
E380
E380
7F00
3E00
ENDCHAR
STARTCHAR 1EE2
ENCODING 7906
SWIDTH 840 0
DWIDTH 14 0
BBX 12 16 1 -3
BITMAP
0010
1F10
3FB0
71E0
E0E0
E0E0
E0E0
E0E0
E0E0
E0E0
71C0
3F80
1F00
0000
0E00
0E00
ENDCHAR
STARTCHAR 1EE3
ENCODING 7907
SWIDTH 720 0
DWIDTH 12 0
BBX 10 13 1 -3
BITMAP
0040
3EC0
7FC0
E380
E380
E180
E380
E380
7F00
3E00
0000
1C00
1C00
ENDCHAR
STARTCHAR 1EE4
ENCODING 7908
SWIDTH 720 0
DWIDTH 12 0
BBX 10 15 1 -3
BITMAP
E1C0
E1C0
E1C0
E1C0
E1C0
E1C0
E1C0
E1C0
E1C0
F1C0
7F80
1F00
0000
0C00
0C00
ENDCHAR
STARTCHAR 1EE5
ENCODING 7909
SWIDTH 660 0
DWIDTH 11 0
BBX 8 12 1 -3
BITMAP
E3
E3
E3
E3
E3
E3
E3
FF
7B
00
38
38
ENDCHAR
STARTCHAR 1EE6
ENCODING 7910
SWIDTH 720 0
DWIDTH 12 0
BBX 10 16 1 0
BITMAP
0E00
0600
0E00
0000
E1C0
E1C0
E1C0
E1C0
E1C0
E1C0
E1C0
E1C0
E1C0
F1C0
7F80
1F00
ENDCHAR
STARTCHAR 1EE7
ENCODING 7911
SWIDTH 660 0
DWIDTH 11 0
BBX 8 14 1 0
BITMAP
1C
0E
0C
18
00
E3
E3
E3
E3
E3
E3
E3
FF
7B
ENDCHAR
STARTCHAR 1EE8
ENCODING 7912
SWIDTH 900 0
DWIDTH 15 0
BBX 14 16 1 0
BITMAP
0380
0700
0600
000C
E1CC
E1D8
E1F8
E1C0
E1C0
E1C0
E1C0
E1C0
E1C0
F1C0
7F80
1F00
ENDCHAR
STARTCHAR 1EE9
ENCODING 7913
SWIDTH 780 0
DWIDTH 13 0
BBX 11 12 1 0
BITMAP
0E00
0C00
1020
E360
E3C0
E300
E300
E300
E300
E300
FF00
7B00
ENDCHAR
STARTCHAR 1EEA
ENCODING 7914
SWIDTH 900 0
DWIDTH 15 0
BBX 14 16 1 0
BITMAP
3800
1C00
0C00
020C
E1CC
E1D8
E1F8
E1C0
E1C0
E1C0
E1C0
E1C0
E1C0
F1C0
7F80
1F00
ENDCHAR
STARTCHAR 1EEB
ENCODING 7915
SWIDTH 780 0
DWIDTH 13 0
BBX 11 12 1 0
BITMAP
7000
1800
0420
E360
E3C0
E300
E300
E300
E300
E300
FF00
7B00
ENDCHAR
STARTCHAR 1EEC
ENCODING 7916
SWIDTH 900 0
DWIDTH 15 0
BBX 14 17 1 0
BITMAP
0E00
0300
0E00
0000
000C
E1CC
E1D8
E1F8
E1C0
E1C0
E1C0
E1C0
E1C0
E1C0
F1C0
7F80
1F00
ENDCHAR
STARTCHAR 1EED
ENCODING 7917
SWIDTH 780 0
DWIDTH 13 0
BBX 11 13 1 0
BITMAP
1C00
0E00
1800
0020
E360
E3C0
E300
E300
E300
E300
E300
FF00
7B00
ENDCHAR
STARTCHAR 1EEE
ENCODING 7918
SWIDTH 900 0
DWIDTH 15 0
BBX 14 16 1 0
BITMAP
1980
3F80
3300
000C
E1CC
E1D8
E1F8
E1C0
E1C0
E1C0
E1C0
E1C0
E1C0
F1C0
7F80
1F00
ENDCHAR
STARTCHAR 1EEF
ENCODING 7919
SWIDTH 780 0
DWIDTH 13 0
BBX 11 12 1 0
BITMAP
7F00
7E00
0020
E360
E3C0
E300
E300
E300
E300
E300
FF00
7B00
ENDCHAR
STARTCHAR 1EF0
ENCODING 7920
SWIDTH 900 0
DWIDTH 15 0
BBX 14 16 1 -3
BITMAP
000C
E1CC
E1D8
E1F8
E1C0
E1C0
E1C0
E1C0
E1C0
E1C0
F1C0
7F80
1F00
0000
0E00
0E00
ENDCHAR
STARTCHAR 1EF1
ENCODING 7921
SWIDTH 780 0
DWIDTH 13 0
BBX 11 13 1 -3
BITMAP
0020
E360
E3C0
E300
E300
E300
E300
E300
FF00
7B00
0000
3800
3800
ENDCHAR
STARTCHAR 1EF2
ENCODING 7922
SWIDTH 780 0
DWIDTH 13 0
BBX 11 16 1 0
BITMAP
3800
1C00
0C00
0200
E0E0
E1C0
71C0
3380
3B80
1F00
1E00
0E00
0E00
0E00
0E00
0E00
ENDCHAR
STARTCHAR 1EF3
ENCODING 7923
SWIDTH 660 0
DWIDTH 11 0
BBX 9 16 1 -3
BITMAP
7000
3800
1800
0400
E380
E300
6700
7700
3600
3E00
3C00
1C00
1800
1800
7800
7000
ENDCHAR
STARTCHAR 1EF4
ENCODING 7924
SWIDTH 780 0
DWIDTH 13 0
BBX 11 15 1 -3
BITMAP
E0E0
E1C0
71C0
3380
3B80
1F00
1E00
0E00
0E00
0E00
0E00
0E00
0000
0E00
0E00
ENDCHAR
STARTCHAR 1EF5
ENCODING 7925
SWIDTH 660 0
DWIDTH 11 0
BBX 9 12 1 -3
BITMAP
E380
E300
6700
7700
3600
3E00
3C00
1C00
1800
1800
7B00
7700
ENDCHAR
STARTCHAR 1EF6
ENCODING 7926
SWIDTH 780 0
DWIDTH 13 0
BBX 11 16 1 0
BITMAP
0E00
0700
0E00
0000
E0E0
E1C0
71C0
3380
3B80
1F00
1E00
0E00
0E00
0E00
0E00
0E00
ENDCHAR
STARTCHAR 1EF7
ENCODING 7927
SWIDTH 660 0
DWIDTH 11 0
BBX 9 17 1 -3
BITMAP
1C00
0E00
0E00
1800
0000
E380
E300
6700
7700
3600
3E00
3C00
1C00
1800
1800
7800
7000
ENDCHAR
STARTCHAR 1EF8
ENCODING 7928
SWIDTH 780 0
DWIDTH 13 0
BBX 11 15 1 0
BITMAP
1F80
3F00
0000
E0E0
E1C0
71C0
3380
3B80
1F00
1E00
0E00
0E00
0E00
0E00
0E00
ENDCHAR
STARTCHAR 1EF9
ENCODING 7929
SWIDTH 660 0
DWIDTH 11 0
BBX 9 16 1 -3
BITMAP
3300
7E00
6600
0000
E380
E300
6700
7700
3600
3E00
3C00
1C00
1800
1800
7800
7000
ENDCHAR
STARTCHAR 1F4D
ENCODING 8013
SWIDTH 960 0
DWIDTH 16 0
BBX 14 14 1 0
BITMAP
5800
D000
B3C0
0FF0
1E78
1C38
181C
181C
181C
181C
1C38
1E78
0FF0
03E0
ENDCHAR
STARTCHAR 2000
ENCODING 8192
SWIDTH 180 0
DWIDTH 3 0
BBX 0 0 0 0
BITMAP
ENDCHAR
STARTCHAR 2001
ENCODING 8193
SWIDTH 180 0
DWIDTH 3 0
BBX 0 0 0 0
BITMAP
ENDCHAR
STARTCHAR 2002
ENCODING 8194
SWIDTH 180 0
DWIDTH 3 0
BBX 0 0 0 0
BITMAP
ENDCHAR
STARTCHAR 2003
ENCODING 8195
SWIDTH 180 0
DWIDTH 3 0
BBX 0 0 0 0
BITMAP
ENDCHAR
STARTCHAR 2004
ENCODING 8196
SWIDTH 180 0
DWIDTH 3 0
BBX 0 0 0 0
BITMAP
ENDCHAR
STARTCHAR 2005
ENCODING 8197
SWIDTH 180 0
DWIDTH 3 0
BBX 0 0 0 0
BITMAP
ENDCHAR
STARTCHAR 2006
ENCODING 8198
SWIDTH 180 0
DWIDTH 3 0
BBX 0 0 0 0
BITMAP
ENDCHAR
STARTCHAR 2007
ENCODING 8199
SWIDTH 180 0
DWIDTH 3 0
BBX 0 0 0 0
BITMAP
ENDCHAR
STARTCHAR 2008
ENCODING 8200
SWIDTH 180 0
DWIDTH 3 0
BBX 0 0 0 0
BITMAP
ENDCHAR
STARTCHAR 2009
ENCODING 8201
SWIDTH 180 0
DWIDTH 3 0
BBX 0 0 0 0
BITMAP
ENDCHAR
STARTCHAR 200A
ENCODING 8202
SWIDTH 180 0
DWIDTH 3 0
BBX 0 0 0 0
BITMAP
ENDCHAR
STARTCHAR 200B
ENCODING 8203
SWIDTH 180 0
DWIDTH 3 0
BBX 0 0 0 0
BITMAP
ENDCHAR
STARTCHAR 2013
ENCODING 8211
SWIDTH 720 0
DWIDTH 12 0
BBX 9 2 1 5
BITMAP
FF80
FF80
ENDCHAR
STARTCHAR 2014
ENCODING 8212
SWIDTH 900 0
DWIDTH 15 0
BBX 12 2 1 5
BITMAP
FFF0
FFF0
ENDCHAR
STARTCHAR 2015
ENCODING 8213
SWIDTH 900 0
DWIDTH 15 0
BBX 12 2 1 5
BITMAP
FFF0
FFF0
ENDCHAR
STARTCHAR 2017
ENCODING 8215
SWIDTH 600 0
DWIDTH 10 0
BBX 8 5 1 -4
BITMAP
FF
FF
00
FF
FF
ENDCHAR
STARTCHAR 2018
ENCODING 8216
SWIDTH 300 0
DWIDTH 5 0
BBX 3 4 1 9
BITMAP
60
C0
C0
C0
ENDCHAR
STARTCHAR 2019
ENCODING 8217
SWIDTH 300 0
DWIDTH 5 0
BBX 3 4 1 9
BITMAP
60
60
60
C0
ENDCHAR
STARTCHAR 201A
ENCODING 8218
SWIDTH 300 0
DWIDTH 5 0
BBX 3 4 1 -3
BITMAP
60
60
60
C0
ENDCHAR
STARTCHAR 201B
ENCODING 8219
SWIDTH 300 0
DWIDTH 5 0
BBX 3 4 1 9
BITMAP
C0
C0
C0
60
ENDCHAR
STARTCHAR 201C
ENCODING 8220
SWIDTH 480 0
DWIDTH 8 0
BBX 6 4 1 9
BITMAP
6C
CC
D8
D8
ENDCHAR
STARTCHAR 201D
ENCODING 8221
SWIDTH 480 0
DWIDTH 8 0
BBX 6 4 1 9
BITMAP
6C
6C
6C
D8
ENDCHAR
STARTCHAR 201E
ENCODING 8222
SWIDTH 480 0
DWIDTH 8 0
BBX 6 5 1 -3
BITMAP
6C
6C
6C
D8
D8
ENDCHAR
STARTCHAR 2020
ENCODING 8224
SWIDTH 660 0
DWIDTH 11 0
BBX 9 12 1 0
BITMAP
1C00
1C00
1C00
FF80
FF80
1C00
1C00
1C00
1C00
1C00
1C00
1C00
ENDCHAR
STARTCHAR 2021
ENCODING 8225
SWIDTH 660 0
DWIDTH 11 0
BBX 9 15 1 -3
BITMAP
1C00
1C00
1C00
FF80
FF80
1C00
1C00
1C00
1C00
1C00
FF80
FF80
1C00
1C00
1C00
ENDCHAR
STARTCHAR 2022
ENCODING 8226
SWIDTH 360 0
DWIDTH 6 0
BBX 4 4 1 4
BITMAP
F0
F0
F0
70
ENDCHAR
STARTCHAR 2025
ENCODING 8229
SWIDTH 540 0
DWIDTH 9 0
BBX 7 3 1 0
BITMAP
46
EE
E6
ENDCHAR
STARTCHAR 2026
ENCODING 8230
SWIDTH 780 0
DWIDTH 13 0
BBX 11 3 1 0
BITMAP
4660
EE60
E660
ENDCHAR
STARTCHAR 2030
ENCODING 8240
SWIDTH 1080 0
DWIDTH 18 0
BBX 16 12 1 0
BITMAP
7000
F880
8980
C980
FB00
2600
0444
0DFF
1B33
1333
31FF
01EE
ENDCHAR
STARTCHAR 2032
ENCODING 8242
SWIDTH 240 0
DWIDTH 4 0
BBX 2 4 1 8
BITMAP
C0
C0
C0
80
ENDCHAR
STARTCHAR 2033
ENCODING 8243
SWIDTH 420 0
DWIDTH 7 0
BBX 5 4 1 8
BITMAP
D8
D8
D0
90
ENDCHAR
STARTCHAR 2034
ENCODING 8244
SWIDTH 600 0
DWIDTH 10 0
BBX 8 4 1 8
BITMAP
DB
DA
D2
92
ENDCHAR
STARTCHAR 2039
ENCODING 8249
SWIDTH 360 0
DWIDTH 6 0
BBX 4 7 1 1
BITMAP
30
20
60
C0
E0
60
30
ENDCHAR
STARTCHAR 203A
ENCODING 8250
SWIDTH 360 0
DWIDTH 6 0
BBX 4 7 1 1
BITMAP
C0
60
60
30
30
60
C0
ENDCHAR
STARTCHAR 203C
ENCODING 8252
SWIDTH 600 0
DWIDTH 10 0
BBX 8 12 1 0
BITMAP
E7
E7
E7
E7
E7
E7
E7
E7
00
42
E7
E7
ENDCHAR
STARTCHAR 203D
ENCODING 8253
SWIDTH 600 0
DWIDTH 10 0
BBX 8 13 1 0
BITMAP
18
7E
FF
DF
17
1E
1E
18
18
00
10
38
38
ENDCHAR
STARTCHAR 2044
ENCODING 8260
SWIDTH 540 0
DWIDTH 9 0
BBX 7 10 1 1
BITMAP
02
06
0C
0C
18
30
30
60
C0
80
ENDCHAR
STARTCHAR 2074
ENCODING 8308
SWIDTH 480 0
DWIDTH 8 0
BBX 6 7 1 5
BITMAP
18
38
78
58
FC
FC
18
ENDCHAR
STARTCHAR 207F
ENCODING 8319
SWIDTH 480 0
DWIDTH 8 0
BBX 6 7 1 5
BITMAP
FC
FC
CC
CC
CC
CC
CC
ENDCHAR
STARTCHAR 20A3
ENCODING 8355
SWIDTH 660 0
DWIDTH 11 0
BBX 10 12 1 0
BITMAP
7FC0
7FC0
7000
7000
7000
7F80
7F80
7000
FC00
FC00
7000
7000
ENDCHAR
STARTCHAR 20A4
ENCODING 8356
SWIDTH 660 0
DWIDTH 11 0
BBX 10 12 1 0
BITMAP
1F00
3F80
7180
7000
7000
FE00
7000
FE00
7000
7000
FFC0
FFC0
ENDCHAR
STARTCHAR 20A7
ENCODING 8359
SWIDTH 960 0
DWIDTH 16 0
BBX 14 12 1 0
BITMAP
FC00
FF70
E770
E3FC
E3FC
E770
FF70
FC70
E070
E070
E03C
E03C
ENDCHAR
STARTCHAR 20AB
ENCODING 8363
SWIDTH 720 0
DWIDTH 12 0
BBX 10 16 1 -3
BITMAP
0380
0FC0
0FC0
0380
3B80
7F80
E380
E380
C380
E380
E380
7F80
3B80
0000
7F80
7F80
ENDCHAR
STARTCHAR 20AC
ENCODING 8364
SWIDTH 660 0
DWIDTH 11 0
BBX 9 12 1 0
BITMAP
0F80
1F80
3800
3000
FE00
7000
7000
FE00
7000
3800
1F80
0F80
ENDCHAR
STARTCHAR 20BD
ENCODING 8381
SWIDTH 840 0
DWIDTH 14 0
BBX 12 12 1 0
BITMAP
3F80
3FE0
30E0
3070
3070
30E0
FFE0
FF80
3000
FE00
FE00
3000
ENDCHAR
STARTCHAR 2105
ENCODING 8453
SWIDTH 840 0
DWIDTH 14 0
BBX 12 12 1 0
BITMAP
7000
F880
C180
D900
FB00
2600
0C80
0BE0
1B30
3330
23E0
01E0
ENDCHAR
STARTCHAR 2113
ENCODING 8467
SWIDTH 600 0
DWIDTH 10 0
BBX 8 12 1 0
BITMAP
1E
3F
37
73
77
7E
7C
F8
F0
38
3C
1C
ENDCHAR
STARTCHAR 2116
ENCODING 8470
SWIDTH 1140 0
DWIDTH 19 0
BBX 17 12 1 0
BITMAP
E18E00
F19B00
F19180
F99180
F99180
FD9F00
ED8000
EF9F00
E78000
E78000
E38000
E38000
ENDCHAR
STARTCHAR 2121
ENCODING 8481
SWIDTH 1200 0
DWIDTH 20 0
BBX 18 13 1 0
BITMAP
0001C0
FFC1C0
FFC1C0
0C01C0
0C79C0
0DFDC0
0DCFC0
0DFFC0
0FFFC0
0D81C0
0DC5C0
0CFFC0
0C7DC0
ENDCHAR
STARTCHAR 2122
ENCODING 8482
SWIDTH 660 0
DWIDTH 11 0
BBX 9 5 1 7
BITMAP
FC80
4D80
4D80
4A80
4A80
ENDCHAR
STARTCHAR 2126
ENCODING 8486
SWIDTH 720 0
DWIDTH 12 0
BBX 10 12 2 0
BITMAP
3E00
7F80
F380
E1C0
E1C0
E1C0
E1C0
E1C0
E180
7300
F7C0
F7C0
ENDCHAR
STARTCHAR 212E
ENCODING 8494
SWIDTH 660 0
DWIDTH 11 0
BBX 9 9 1 0
BITMAP
1E00
6100
4180
C180
FF80
C000
C000
6100
3E00
ENDCHAR
STARTCHAR 215B
ENCODING 8539
SWIDTH 840 0
DWIDTH 14 0
BBX 12 12 1 0
BITMAP
6000
E080
6180
6300
6200
66E0
0DF0
09B0
18F0
31F0
21F0
00F0
ENDCHAR
STARTCHAR 215C
ENCODING 8540
SWIDTH 960 0
DWIDTH 16 0
BBX 14 12 1 0
BITMAP
7800
F840
0860
38C0
CD80
F910
237C
066C
0478
0C7C
187C
0078
ENDCHAR
STARTCHAR 215D
ENCODING 8541
SWIDTH 960 0
DWIDTH 16 0
BBX 14 13 1 0
BITMAP
7800
F800
C060
F8C0
5980
C980
FB78
26FC
06CC
0C78
18FC
18FC
0078
ENDCHAR
STARTCHAR 215E
ENCODING 8542
SWIDTH 900 0
DWIDTH 15 0
BBX 13 12 1 0
BITMAP
FC00
F8C0
1880
3180
3300
6670
06F8
0CD8
18F8
10F8
30F8
00F0
ENDCHAR
STARTCHAR 2160
ENCODING 8544
SWIDTH 300 0
DWIDTH 5 0
BBX 3 12 1 0
BITMAP
E0
E0
E0
E0
E0
E0
E0
E0
E0
E0
E0
E0
ENDCHAR
STARTCHAR 2161
ENCODING 8545
SWIDTH 600 0
DWIDTH 10 0
BBX 8 12 1 0
BITMAP
E3
E3
E3
E3
E3
E3
E3
E3
E3
E3
E3
E3
ENDCHAR
STARTCHAR 2162
ENCODING 8546
SWIDTH 960 0
DWIDTH 16 0
BBX 14 12 1 0
BITMAP
E31C
E31C
E31C
E31C
E31C
E31C
E31C
E31C
E31C
E31C
E31C
E31C
ENDCHAR
STARTCHAR 2163
ENCODING 8547
SWIDTH 1080 0
DWIDTH 18 0
BBX 16 12 1 0
BITMAP
EE07
E707
E70E
E30E
E38C
E39C
E19C
E1D8
E1F8
E0F8
E0F0
E070
ENDCHAR
STARTCHAR 2164
ENCODING 8548
SWIDTH 780 0
DWIDTH 13 0
BBX 11 12 1 0
BITMAP
E060
E0E0
70E0
70C0
71C0
39C0
3980
1B80
1F00
1F00
0F00
0E00
ENDCHAR
STARTCHAR 2165
ENCODING 8549
SWIDTH 1080 0
DWIDTH 18 0
BBX 16 12 1 0
BITMAP
E067
E0E7
70E7
70C7
71C7
39C7
3987
1B87
1F07
1F07
0F07
0E07
ENDCHAR
STARTCHAR 2166
ENCODING 8550
SWIDTH 1380 0
DWIDTH 23 0
BBX 21 12 1 0
BITMAP
E06738
E0E738
70E738
70C738
71C738
39C738
398738
1B8738
1F0738
1F0738
0F0738
0E0738
ENDCHAR
STARTCHAR 2167
ENCODING 8551
SWIDTH 1740 0
DWIDTH 29 0
BBX 26 12 1 0
BITMAP
E06738C0
E0E738C0
70E738C0
70C738C0
71C738C0
39C738C0
398738C0
1B8738C0
1F0738C0
1F0738C0
0F0738C0
0E0738C0
ENDCHAR
STARTCHAR 2168
ENCODING 8552
SWIDTH 1020 0
DWIDTH 17 0
BBX 15 12 1 0
BITMAP
E70E
E70E
E39C
E1F8
E1F8
E0F0
E0F0
E1F8
E1F8
E39C
E70E
E70E
ENDCHAR
STARTCHAR 2169
ENCODING 8553
SWIDTH 780 0
DWIDTH 13 0
BBX 11 12 1 0
BITMAP
E0E0
71C0
7380
3B80
1F00
1E00
1F00
1F00
3B80
73C0
71C0
E0E0
ENDCHAR
STARTCHAR 216A
ENCODING 8554
SWIDTH 1020 0
DWIDTH 17 0
BBX 15 12 1 0
BITMAP
E0E6
71C6
7386
3B86
1F06
1E06
1F06
1F06
3B86
73C6
71C6
E0E6
ENDCHAR
STARTCHAR 216B
ENCODING 8555
SWIDTH 1380 0
DWIDTH 23 0
BBX 21 12 1 0
BITMAP
E0E638
71C638
738638
3B8638
1F0638
1E0638
1F0638
1F0638
3B8638
73C638
71C638
E0E638
ENDCHAR
STARTCHAR 216C
ENCODING 8556
SWIDTH 600 0
DWIDTH 10 0
BBX 9 12 1 0
BITMAP
E000
E000
E000
E000
E000
E000
E000
E000
E000
E000
FF80
FF80
ENDCHAR
STARTCHAR 216D
ENCODING 8557
SWIDTH 720 0
DWIDTH 12 0
BBX 10 12 1 0
BITMAP
1F00
7F80
71C0
E0C0
E000
E000
E000
E000
E0C0
71C0
7F80
1F00
ENDCHAR
STARTCHAR 216E
ENCODING 8558
SWIDTH 720 0
DWIDTH 12 0
BBX 10 12 1 0
BITMAP
FE00
FF00
E380
E1C0
E1C0
E1C0
E1C0
E1C0
E1C0
E380
FF00
FE00
ENDCHAR
STARTCHAR 216F
ENCODING 8559
SWIDTH 960 0
DWIDTH 16 0
BBX 14 12 1 0
BITMAP
F03C
F03C
F83C
F87C
F87C
ECFC
ECDC
EEDC
E79C
E79C
E39C
E31C
ENDCHAR
STARTCHAR 2183
ENCODING 8579
SWIDTH 720 0
DWIDTH 12 0
BBX 11 12 1 0
BITMAP
1F00
7F80
F1C0
E1C0
00C0
00E0
00E0
00C0
E1C0
F1C0
7F80
3F00
ENDCHAR
STARTCHAR 2202
ENCODING 8706
SWIDTH 660 0
DWIDTH 11 0
BBX 9 13 1 0
BITMAP
7C00
7E00
0700
0380
3D80
7F80
E380
E380
E380
E380
E300
7F00
3E00
ENDCHAR
STARTCHAR 2206
ENCODING 8710
SWIDTH 900 0
DWIDTH 15 0
BBX 13 12 2 0
BITMAP
0700
0780
0F80
0D80
1DC0
18C0
38E0
38E0
7070
7070
7FF0
FFF8
ENDCHAR
STARTCHAR 220F
ENCODING 8719
SWIDTH 720 0
DWIDTH 12 0
BBX 10 14 1 -2
BITMAP
FFC0
FFC0
E1C0
E1C0
E1C0
E1C0
E1C0
E1C0
E1C0
E1C0
E1C0
E1C0
E1C0
E1C0
ENDCHAR
STARTCHAR 2211
ENCODING 8721
SWIDTH 720 0
DWIDTH 12 0
BBX 10 14 1 -2
BITMAP
FFC0
FFC0
7000
3800
1C00
0E00
0E00
0E00
0E00
1C00
3800
7000
FFC0
FFC0
ENDCHAR
STARTCHAR 2212
ENCODING 8722
SWIDTH 600 0
DWIDTH 10 0
BBX 8 2 1 5
BITMAP
FF
FF
ENDCHAR
STARTCHAR 221A
ENCODING 8730
SWIDTH 660 0
DWIDTH 11 0
BBX 9 12 1 0
BITMAP
0180
0180
0180
0300
0300
0300
F200
F600
3600
1E00
1C00
1C00
ENDCHAR
STARTCHAR 221E
ENCODING 8734
SWIDTH 1140 0
DWIDTH 19 0
BBX 17 9 1 0
BITMAP
3E1E00
7F7F00
E3E380
E1C180
E1C180
E1E180
E3E380
7F7F00
3E1E00
ENDCHAR
STARTCHAR 222B
ENCODING 8747
SWIDTH 480 0
DWIDTH 8 0
BBX 7 16 1 -3
BITMAP
1E
3E
38
30
30
30
30
30
30
30
30
30
30
30
F0
E0
ENDCHAR
STARTCHAR 2248
ENCODING 8776
SWIDTH 660 0
DWIDTH 11 0
BBX 9 7 1 2
BITMAP
7000
FC80
8F80
0700
7880
FF80
8700
ENDCHAR
STARTCHAR 2260
ENCODING 8800
SWIDTH 600 0
DWIDTH 10 0
BBX 8 9 1 1
BITMAP
02
06
FF
FF
18
FF
FF
60
40
ENDCHAR
STARTCHAR 2264
ENCODING 8804
SWIDTH 600 0
DWIDTH 10 0
BBX 8 9 1 0
BITMAP
07
3F
F8
F0
7E
0F
01
FF
FF
ENDCHAR
STARTCHAR 2265
ENCODING 8805
SWIDTH 600 0
DWIDTH 10 0
BBX 8 9 1 0
BITMAP
E0
FC
1F
0F
FE
F0
80
FF
FF
ENDCHAR
STARTCHAR 25CA
ENCODING 9674
SWIDTH 600 0
DWIDTH 10 0
BBX 8 12 1 0
BITMAP
1C
3C
3E
76
67
E3
E3
67
76
3E
3C
1C
ENDCHAR
STARTCHAR EE01
ENCODING 60929
SWIDTH 300 0
DWIDTH 5 0
BBX 3 10 1 1
BITMAP
40
E0
E0
00
00
00
00
E0
E0
40
ENDCHAR
STARTCHAR EE02
ENCODING 60930
SWIDTH 420 0
DWIDTH 7 0
BBX 4 4 1 5
BITMAP
D0
D0
D0
D0
ENDCHAR
STARTCHAR F6C3
ENCODING 63171
SWIDTH 300 0
DWIDTH 5 0
BBX 3 4 1 -1
BITMAP
60
60
C0
C0
ENDCHAR
STARTCHAR FB01
ENCODING 64257
SWIDTH 720 0
DWIDTH 12 0
BBX 10 13 1 0
BITMAP
1F00
3F00
7000
7000
FDC0
FDC0
71C0
71C0
71C0
71C0
71C0
71C0
71C0
ENDCHAR
STARTCHAR FB02
ENCODING 64258
SWIDTH 720 0
DWIDTH 12 0
BBX 10 13 1 0
BITMAP
1DC0
3DC0
71C0
71C0
FDC0
FDC0
71C0
71C0
71C0
71C0
71C0
71C0
71C0
ENDCHAR
STARTCHAR FB03
ENCODING 64259
SWIDTH 1080 0
DWIDTH 18 0
BBX 16 13 1 0
BITMAP
1C3E
3CFE
70E2
70C0
FFF3
FFF3
70C3
70C3
70C3
70C3
70C3
70C3
70C3
ENDCHAR
STARTCHAR FB04
ENCODING 64260
SWIDTH 1140 0
DWIDTH 19 0
BBX 16 13 1 0
BITMAP
1C7B
3CFB
70E3
70C3
FFF3
FFF3
70C3
70C3
70C3
70C3
70C3
70C3
70C3
ENDCHAR
STARTCHAR FEFF
ENCODING 65279
SWIDTH 180 0
DWIDTH 3 0
BBX 0 0 0 0
BITMAP
ENDCHAR
STARTCHAR FFFC
ENCODING 65532
SWIDTH 1200 0
DWIDTH 20 0
BBX 18 15 1 -3
BITMAP
EEDDC0
800040
800040
800040
800040
0DC000
932240
93E240
932A40
1DEE00
800040
800040
800040
800040
EEDDC0
ENDCHAR
STARTCHAR FFFD
ENCODING 65533
SWIDTH 1140 0
DWIDTH 19 0
BBX 16 15 1 1
BITMAP
0180
03C0
07E0
0FF0
1FF8
3C1C
7D9E
FF9F
FF3F
7E7E
3FFC
0E78
07F0
03E0
01C0
ENDCHAR
ENDFONT
